<?xml version="1.0" standalone="no"?>
<!DOCTYPE svg PUBLIC "-//W3C//DTD SVG 1.1//EN" "http://www.w3.org/Graphics/SVG/1.1/DTD/svg11.dtd" >
<svg>
<metadata>
Created by FontForge 20110222 at Tue Jul  5 11:37:04 2011
 By www-data
Copyright (c) 2011 by Bruno de Souza Lea~o. All rights reserved.
</metadata>
<defs>
<font id="Intuitive" horiz-adv-x="833" >
  <font-face 
    font-family="Intuitive"
    font-weight="600"
    font-stretch="normal"
    units-per-em="1000"
    panose-1="2 0 0 0 0 0 0 0 0 0"
    ascent="750"
    descent="-250"
    x-height="502"
    cap-height="721"
    bbox="-188.348 -303 908.095 914.882"
    underline-thickness="50"
    underline-position="-50"
    unicode-range="U+0020-2122"
  />
    <missing-glyph />
    <glyph glyph-name="B" unicode="B" horiz-adv-x="484" 
d="M23 696q17 8 46.5 13.5t66 6.5t76 -1.5t75.5 -10.5t66 -22t48 -34q31 -37 42.5 -74t7.5 -72.5t-22 -68.5t-45 -63q25 -24 48 -44.5t38 -46.5t21 -61.5t-3 -90.5q-6 -36 -32 -59t-64 -38t-83 -24t-87 -16t-77.5 -14t-54.5 -18q-17 -3 -29.5 3.5t-18 17t-4 23.5t12.5 24
q5 17 13 27.5t10 27.5q3 14 3.5 30.5t-0.5 43.5t-5 68.5t-10.5 105.5t-16 153.5t-22.5 213.5zM176 306q5 -27 9 -51.5t6.5 -50.5t2 -55.5t-3.5 -66.5q25 7 59.5 15t64.5 24t48 42t9 69q-7 31 -26 50.5t-45.5 28.5t-57.5 8t-62 -9q3 0 2 -1zM141 613q4 -29 7.5 -54t7 -49.5
t7.5 -50t9 -55.5q18 4 46 13t53 24.5t39.5 38.5t4.5 55q-11 34 -28.5 52t-40 25.5t-49.5 6t-56 -5.5z" />
    <glyph glyph-name="P" unicode="P" horiz-adv-x="469" 
d="M27 11q5 44 7 107.5t3.5 134t2 141.5t1.5 128.5t2.5 96.5t4.5 45l-1 -1q11 27 43.5 35t74.5 4t88 -18t84 -30q24 -10 45.5 -23.5t37.5 -31.5t24 -42t6 -55q-3 -38 -22 -73t-51 -56q-17 -10 -49.5 -20.5t-67.5 -20t-66 -19t-46 -16.5q-3 -26 -3 -58.5t1 -71t-0.5 -80.5
t-7.5 -87q-12 -4 -22.5 -6.5t-23 -1.5t-28 5t-37.5 14zM137 606q7 -50 7.5 -100.5t3.5 -103.5q35 6 67.5 10t57 14t39 30.5t13.5 60.5q-1 32 -25.5 50.5t-56 27.5t-62.5 10.5t-44 0.5z" />
    <glyph glyph-name="R" unicode="R" horiz-adv-x="510" 
d="M151 295q-1 1 -1.5 1t-1.5 1l-10 -297q-12 -4 -22.5 -6.5t-23 -1.5t-28 5t-37.5 14q5 44 7 107.5t3.5 134t2 141.5t1.5 128.5t2.5 96.5t4.5 45l-1 -1q11 27 43.5 35t74.5 4t88 -18t84 -30q24 -10 45.5 -23.5t37.5 -31.5t24 -42t6 -55q-3 -38 -22 -73t-51 -56
q-11 -6 -21.5 -11.5t-22.5 -10.5t-27 -10t-36 -11l82 -175q17 -32 28 -51t17 -30t9 -17l5 -10q6 -16 3.5 -28.5t-10.5 -20.5t-20.5 -10.5t-26.5 2.5l-199 298zM137 606q7 -50 7.5 -100.5t3.5 -103.5q35 6 67.5 10t57 14t39 30.5t13.5 60.5q-1 32 -25.5 50.5t-56 27.5
t-62.5 10.5t-44 0.5z" />
    <glyph glyph-name="E" unicode="E" horiz-adv-x="532" 
d="M33 3q-14 238 -5.5 415.5t31.5 277.5l397 11q23 -2 36 -20t15.5 -38.5t-5.5 -37t-26 -16.5q-40 -5 -77.5 -5.5t-76.5 1t-80.5 3.5t-89.5 4q4 -8 3 -30.5t-3 -51t-4 -59t0 -55.5q33 -2 61 -2t53.5 0.5t51 0t55.5 -3.5q22 -4 30 -20.5t5.5 -34.5t-13.5 -31.5t-27 -10.5
q-26 -4 -58.5 -3.5t-64.5 1.5t-59 0.5t-41 -5.5q-4 -38 -5 -80.5t-6 -90.5q0 -3 -2 -9q2 0 3 -1q42 -4 75.5 -5.5t65 -1.5t62.5 1.5t68 4.5q44 4 62 0.5t23.5 -13.5t6 -27t9.5 -40q0 -21 -20 -25q-31 -6 -66.5 -6.5t-66.5 -1.5q-34 0 -75 1t-83.5 2t-83.5 2t-75 0z" />
    <glyph glyph-name="T" unicode="T" horiz-adv-x="550" 
d="M80 710q39 -5 93.5 -8t110.5 -4t106 -0.5t79 1.5q14 1 26 1t21 -3.5t14.5 -12t6.5 -24.5q10 -18 2 -34t-34 -21q-44 7 -78.5 9.5t-79.5 1.5q0 -22 -0.5 -44.5t-2 -52t-3 -69.5t-2 -97t0 -133.5t2.5 -178.5q-1 -19 -15 -31t-32.5 -16t-36.5 0t-25 16q0 61 -3.5 119.5
t6.5 102.5v23t0.5 27.5t0.5 41t0.5 63t1 93t0.5 130.5q-17 -3 -56.5 -1t-108.5 2q-15 1 -24 10t-13 21t-2.5 25t7.5 22q9 18 38 21z" />
    <glyph glyph-name="D" unicode="D" horiz-adv-x="565" 
d="M78 13q-35 26 -43 63.5t4 78.5q20 47 22 106t-4.5 119t-16 117.5t-12.5 101.5t6.5 71t40.5 26q67 9 133 -1t124.5 -38.5t106.5 -75.5t78 -112q14 -31 20.5 -69.5t5 -79.5t-11 -82t-26.5 -77q-16 -34 -42 -59.5t-57.5 -44.5t-66 -33.5t-66.5 -25.5q-63 -21 -115 -11
q-5 -2 -13 -4q-1 0 -2 -1t-3 -2q-31 3 -44 23zM152 101q59 -14 106 -0.5t80.5 45.5t53 77.5t22 95t-12 98.5t-48.5 88t-87.5 63.5t-129.5 24.5q1 -55 8.5 -114t13.5 -121t6.5 -126.5t-12.5 -130.5z" />
    <glyph glyph-name="C" unicode="C" horiz-adv-x="570" 
d="M149 53q-74 71 -103.5 154t-23.5 163.5t44 151t98.5 117t139 62t166.5 -14.5q22 -8 37.5 -26t20.5 -39t-2 -42t-30 -34q-29 -6 -46 10t-14 37q-2 1 -5 2t-5 3q-23 16 -50.5 19.5t-56 -2t-54.5 -18.5t-45 -28q-31 -24 -51.5 -60t-30 -78t-8 -86.5t14.5 -84.5t36.5 -72.5
t59 -50.5t82 -18t104.5 24q6 5 12.5 8.5t12.5 5.5q9 16 23 21t28 2t26 -12.5t17 -22.5q5 -17 2 -29.5t-11 -27.5q-18 -37 -45.5 -59.5t-61.5 -33t-71.5 -10t-75 9t-72 24t-62.5 35.5z" />
    <glyph glyph-name="F" unicode="F" horiz-adv-x="515" 
d="M27 13q-8 12 -6.5 61t6.5 134.5t10 206t5 275.5q32 9 77.5 9.5t102 -1.5t122.5 -5t138 -3q14 0 18 -10.5t3 -24.5t-4 -28.5t-2 -22.5q-81 -11 -165 -13t-180 -3q-8 -46 -11.5 -89.5t-1.5 -92.5q33 -2 59 -4.5t50.5 -3.5t50.5 0t59 6q33 -33 41 -54.5t-0.5 -34t-30.5 -18
t-50 -6.5t-59 0.5t-56.5 3.5t-43 2t-18.5 -4q-5 -37 -5.5 -74t-1 -74.5t-4.5 -75t-14 -74.5q-5 0 -8.5 -0.5t-8.5 -0.5q-12 1 -25.5 1t-24.5 1.5t-17.5 5t-4.5 11.5z" />
    <glyph glyph-name="G" unicode="G" horiz-adv-x="598" 
d="M299 280q-6 13 -5.5 27.5t6 27.5t14 23t19.5 14q10 3 30 2.5t43.5 -3t47 -6.5t40.5 -7q26 -5 39 -9t18.5 -12t6 -23t1.5 -41q3 -47 -2.5 -97.5t-25.5 -92.5t-59 -69t-104 -27q-104 0 -174 37t-110.5 95.5t-52.5 132t1 147t49 139t92.5 109t131.5 57t165 -17.5
q22 -8 37.5 -26t20.5 -39t-2 -42t-30 -34q-29 -6 -46 10t-14 37q-2 1 -4.5 2t-5.5 3q-49 32 -91 34t-75.5 -17.5t-58 -56.5t-38.5 -83t-18 -97t4 -97.5t29 -84.5t55 -59.5t82 -22t112 28.5q24 38 28 62t-5.5 38.5t-28.5 21.5t-41.5 10t-44.5 3.5t-36 2.5z" />
    <glyph glyph-name="H" unicode="H" horiz-adv-x="623" 
d="M454 686q2 10 16 19t32 12.5t36.5 1.5t30.5 -12q23 -128 20 -234.5t-12 -190.5t-12 -144.5t20 -97.5q6 -14 -7.5 -24t-35 -15.5t-44.5 -5.5t-34 6q-8 3 -14.5 9.5t-10 14.5t-3 16.5t8.5 16.5q2 40 2 75.5t-1.5 69t-4 66t-4.5 66.5q-59 2 -128 4.5t-132 -2.5
q0 -24 1.5 -59.5t2.5 -79t-1 -92t-8 -98.5q-38 -12 -64 -11t-60 8q-4 20 -6 69t-2 114.5t2.5 140.5t6.5 145t11 129t16 93q14 3 27.5 7.5t27 6t27 -2.5t26.5 -18q17 -18 17.5 -47.5t-4.5 -64t-9.5 -70.5t1.5 -69q7 1 13 1.5t15 0.5q57 4 112.5 0t114.5 -11q9 35 10 70.5
t-0.5 69t-3 63.5t3.5 54z" />
    <glyph glyph-name="I" unicode="I" horiz-adv-x="202" 
d="M69 3q-3 77 -11 167t-14 183t-6 182.5t12 166.5q7 10 25.5 14.5t38.5 4.5t36.5 -2.5t19.5 -4.5q-8 -72 -7 -158t2.5 -178.5t0 -185.5t-12.5 -178q-1 -9 -14 -17.5t-28 -12.5t-28 -0.5t-14 19.5z" />
    <glyph glyph-name="J" unicode="J" horiz-adv-x="416" 
d="M284 558q0 11 -15.5 14.5t-38 5t-48.5 2t-48 4.5t-36.5 14t-14.5 29q6 28 21.5 37.5t36 8t44.5 -8t47.5 -11t45.5 -1t38 22.5q5 18 17 26t24.5 7t23.5 -10.5t14 -27.5q-13 -25 -16.5 -62.5t-2.5 -83t4.5 -96.5t5.5 -102.5t0.5 -100.5t-10.5 -90.5t-28.5 -73.5t-52.5 -49
q-25 -14 -62 -19.5t-74.5 -2.5t-69 15.5t-44.5 34.5q-9 14 -13 29t-6 29q-2 13 0.5 31.5t9 35t17.5 28t27 10.5q21 -3 30 -7.5t12 -11.5t2 -18t-1 -26q0 -31 19 -47t44.5 -18t50.5 10.5t37 38.5q20 46 25 100t2.5 110.5t-9 113.5t-8.5 110z" />
    <glyph glyph-name="O" unicode="O" horiz-adv-x="532" 
d="M18 348q4 79 12 135.5t20.5 95.5t30 63.5t41 38.5t53.5 20.5t67 9.5q76 0 129.5 -41.5t86 -106t45 -143.5t6.5 -155.5t-29 -140.5t-62 -99q-19 -18 -49.5 -27t-64 -11.5t-66 0.5t-55.5 9q-46 13 -75.5 35.5t-47 51.5t-26 62.5t-11.5 68.5t-3 69.5t-2 64.5zM255 76
q24 3 42 17t31 33.5t22 42t16 42.5q6 18 9 54.5t2.5 81.5t-6 93t-16.5 87t-28 64.5t-42 26.5q-51 1 -85 -22t-53.5 -62t-26 -88.5t-3 -101.5t16 -101.5t31 -87.5t42 -60t48.5 -19z" />
    <glyph glyph-name="K" unicode="K" horiz-adv-x="550" 
d="M516 66q12 -49 6 -66t-21 -23.5t-35 3.5q-20 16 -35 35t-29 39.5t-27 41t-35 49t-54 62t-61 69.5q-14 -17 -29.5 -32.5t-31.5 -24.5q-14 -7 -11.5 -59t20 -101.5t5.5 -59.5q-10 -8 -57 -9t-67.5 5.5t-23.5 23.5q5 8 9 16t11 34t10.5 66.5t2.5 119.5t-2 138.5t-13 291.5
q4 22 18.5 31.5t30.5 4.5q15 8 31 0.5t24 -29.5q2 -3 2.5 -25t3 -129.5t-1.5 -142t-6 -69.5q0 -5 0.5 -9.5t1.5 -9.5q25 22 47.5 54.5t38 49.5t47.5 53t58.5 68.5t48.5 57.5t32 33.5t19.5 11t22 0.5t34.5 -4h5q9 -2 13.5 -7.5t5.5 -12.5t-2 -13.5t-10 -10.5q-6 -6 -20.5 -19
t-31 -27t-48.5 -43q-21 -20 -39.5 -42.5t-60.5 -73.5q0 -12 -11 -25.5t-22 -21.5q7 -16 29 -41t52.5 -57t65.5 -69.5t90 -101.5z" />
    <glyph glyph-name="M" unicode="M" horiz-adv-x="573" 
d="M322 304q-18 -22 -21 -22t-5.5 7t-13.5 15q-8 7 -21 27t-28 44.5t-30.5 50.5t-28 45t-20 27.5t-6.5 -1.5q4 -19 5.5 -27t2 -16t-0.5 -21.5t-2.5 -43t-3.5 -81t-4 -134.5q-2 -47 -1 -80.5t-2 -55t-13 -32.5t-34 -13q-25 -1 -40 11t-19 29q-6 83 -3.5 163t5.5 158.5
t3.5 156t-8.5 155.5q0 19 13 29t31.5 13t38 0t31.5 -11q8 -10 14 -24q0 -2 1 -6q6 -30 21.5 -58.5t36.5 -55t43.5 -52t42.5 -49.5q9 9 14 18t15 20q21 25 43 56.5t39.5 61t27 53.5t5.5 35q2 5 5.5 8.5l8.5 8.5q3 2 4 3.5t1 2t1 1t5 0.5q11 0 24.5 -3t25.5 -9t21 -15t10 -21
q-4 -68 -4.5 -129t0.5 -119.5t2.5 -118.5t1.5 -126q0 -31 0.5 -64t-1 -60t-5.5 -44t-12 -17q-17 0 -34.5 1t-32 6.5t-24 17.5t-9.5 35q0 49 3.5 98t7 96t5 90.5t-2.5 82.5q-2 11 -2.5 21.5t-2.5 21.5q-10 -21 -27.5 -40t-36.5 -38.5t-35.5 -39.5t-24.5 -42z" />
    <glyph glyph-name="L" unicode="L" horiz-adv-x="482" 
d="M435 1q-56 2 -125 0.5t-133 3.5q-38 -16 -70.5 -14.5t-52 15.5t-22 38t19.5 53q4 58 3.5 134.5t-2.5 158.5t-5.5 162.5t-5.5 146.5q30 14 53.5 10.5t40.5 -19.5t26.5 -40t11.5 -50q5 -69 4.5 -129.5t-4.5 -120t-10 -121t-12 -130.5q36 -5 80.5 -2t86 8.5t76 9t51.5 -1.5
q16 -6 23 -23.5t5.5 -36t-11.5 -34t-28 -18.5z" />
    <glyph glyph-name="N" unicode="N" horiz-adv-x="540" 
d="M501 73q3 -17 -3.5 -34t-19 -28.5t-30 -15.5t-35.5 6q-6 4 -20 31t-32.5 68t-40.5 92.5t-43.5 104.5t-42 103t-36.5 88.5t-26 61.5t-11 22q0 -69 3 -125t5.5 -110t3 -111t-3.5 -128q-2 -36 -10 -64t-23.5 -41.5t-39.5 -10.5t-60 29q15 76 19 156t4 160.5t-1 160.5t4 158
q1 29 13 43t28.5 17.5t34 0t30.5 -9.5q14 -1 20 -9t11 -15q26 -61 47 -110.5t40 -93.5t38 -86.5t41 -88.5q4 -10 8.5 -19.5t8.5 -18.5q9 43 6.5 98t-6.5 111t-4 109t13 92q9 27 35 40t80 5q1 -9 -1.5 -46t-6.5 -91.5t-7 -121.5t-4 -135t2 -131.5t12 -112.5z" />
    <glyph glyph-name="Q" unicode="Q" horiz-adv-x="513" 
d="M172 -162q-25 -14 -38 -9.5t-17.5 19.5t-2.5 36.5t8 41t13 33t13 12.5q8 1 15.5 7.5t15.5 14.5q-43 2 -75.5 34t-54 83t-31 115.5t-6 132t21.5 132t50.5 114.5t81 81t114.5 31q11 0 32 -0.5t45.5 -10.5t49.5 -33t45 -69t32 -118.5t11 -180.5q4 -62 -14 -115t-49 -94.5
t-69.5 -68t-76.5 -34.5q14 -8 30 -22.5t37.5 -23t50 -4t67.5 34.5q23 -10 27.5 -25t-3.5 -31.5t-25 -32.5t-37.5 -29t-40.5 -21.5t-34 -9.5q-15 -1 -29 7t-26.5 20t-24 25.5t-21.5 24.5q-1 0 -2.5 1t-2.5 1q-7 1 -32 -21zM265 87q29 6 50.5 29t37 55t25 69.5t15 72.5
t7.5 64.5t2 45.5q-1 50 -6.5 91.5t-23.5 69.5t-51.5 40t-88.5 3q-17 -3 -28.5 -16t-19 -30.5t-12 -35.5t-7.5 -31q-6 -27 -12.5 -68t-10 -84.5t-2 -83.5t10.5 -67q6 -16 16.5 -39.5t25 -43.5t33 -33t39.5 -8z" />
    <glyph glyph-name="U" unicode="U" horiz-adv-x="502" 
d="M39 682q0 15 16.5 21t37 4.5t39.5 -10t25 -24.5q0 -66 -0.5 -122t0.5 -110.5t4.5 -110.5t11.5 -122q3 -19 4.5 -36t7 -31.5t17.5 -24.5t35 -14q23 -5 48.5 -2t44.5 13q26 15 31.5 43.5t7.5 58.5q4 56 0.5 116.5t-9 121t-9 118.5t1.5 110q19 26 48.5 31.5t61.5 -23.5
q6 -71 8.5 -131.5t3.5 -111.5t1 -92.5t1 -75.5q1 -22 -1 -60.5t-8 -76.5q-3 -21 -11 -42.5t-37 -51.5q-15 -17 -30 -24.5t-38 -12.5q-35 -8 -74.5 -10t-74.5 2q-41 5 -70 21.5t-49 54.5q-13 25 -22.5 55.5t-15.5 61.5t-9.5 59t-4.5 49z" />
    <glyph glyph-name="S" unicode="S" horiz-adv-x="467" 
d="M353 361q38 -29 59 -64.5t26.5 -72t-2 -72t-26.5 -65.5t-47 -52.5t-63 -32.5q-39 -13 -83 -6t-82 29t-66 56t-35 75q-11 38 -12.5 76t11.5 63q8 10 21.5 15.5t27.5 5t25.5 -7.5t15.5 -23q0 -1 1 -3.5t2 -12.5t3 -30.5t5 -56.5q1 -6 11 -23t27.5 -30.5t43 -16.5t58.5 18
q10 7 21 18.5t16 22.5q9 19 9 35q-5 31 -13 51.5t-20.5 37t-29.5 31t-40 33.5q-5 4 -14.5 11t-25.5 19t-39.5 31t-57.5 47q-17 18 -26 32t-13 25t-5 19.5t-1 16.5q0 27 8.5 53t31.5 47t63.5 34t104.5 14q11 0 31.5 -2t43.5 -6.5t45.5 -13t38.5 -21t21 -30t-6 -40.5
q-11 -22 -25 -26.5t-28.5 -0.5t-26.5 12t-19 11q-16 7 -35 13.5t-39 10t-39.5 3.5t-36.5 -6q-30 -11 -33.5 -36t34.5 -62z" />
    <glyph glyph-name="V" unicode="V" horiz-adv-x="610" 
d="M59 571q-10 31 -17.5 66.5t-3.5 61.5q13 8 27.5 11t27.5 2t23 -5.5t14 -12.5q21 -41 35 -77t25.5 -70.5t21.5 -69t21.5 -73.5t27.5 -83t39 -98q0 -1 0.5 -1t0.5 -1l2 4l161 385l38 88q10 4 19.5 8.5t20 5.5t23 -3t29.5 -15q-27 -56 -49 -115t-43 -119.5t-43.5 -122
t-49.5 -121.5q-4 -8 -11.5 -26.5t-18.5 -41.5t-24.5 -48t-27.5 -45.5t-28 -34.5t-27 -14q-9 0 -21.5 22t-27.5 58t-31.5 82t-32.5 94z" />
    <glyph glyph-name="W" unicode="W" horiz-adv-x="767" 
d="M223 3q-64 165 -118 334t-94 349q-3 9 5 15.5t21.5 10t30 4.5t31.5 -0.5t26 -6.5t14 -12q24 -51 38 -114.5t26 -129.5t25 -130.5t36 -116.5q29 31 45.5 56t28.5 44.5t23.5 34.5t31.5 27q7 6 16 4.5t25.5 -22.5t43.5 -68.5t69 -134.5q0 6 8 14t19 26t23.5 50.5t22.5 88
t15 138t1 200.5q3 18 19.5 27t35.5 9.5t36 -8t22 -26.5q-3 -30 -8 -85.5t-13.5 -122.5t-20 -139.5t-27 -136.5t-34.5 -113t-42 -68q-24 -14 -39 -9t-25 13l-117 246l-141 -252q-10 -7 -29.5 -6t-29.5 10z" />
    <glyph glyph-name="X" unicode="X" horiz-adv-x="651" 
d="M105 -23q-18 -3 -30.5 3t-18.5 17.5t-3.5 25t16.5 25.5q42 62 71.5 105.5t49 73t31.5 46.5t19 27t10 14t6 7q-30 52 -57 93t-50 74.5t-42.5 60t-33.5 49.5q-3 5 -10.5 18t-15 28t-13 28.5t-5.5 19.5q0 10 6 19t15.5 13.5t21.5 4t24 -9.5q44 -33 73.5 -69.5t54 -72.5
t49.5 -71t60 -65q5 12 16 34t25 48t30 54.5t31 54.5q14 23 22.5 44.5t23.5 27.5q12 4 28.5 2.5t30 -7.5t21 -16t0.5 -22q-33 -58 -58.5 -98.5t-46.5 -72.5t-38 -58.5t-32 -56.5l237 -323q3 -11 3 -18.5t-5 -18.5q-10 -12 -24.5 -17t-30 -4.5t-30 6.5t-24.5 17l-1 2v1
l-197 230q-11 -13 -33 -44t-48 -68t-52.5 -73.5t-45.5 -60.5q-16 -21 -30 -27z" />
    <glyph glyph-name="Y" unicode="Y" horiz-adv-x="510" 
d="M19 629q-3 6 -7.5 20t-2.5 25q3 13 12 22.5t21 13.5t25 0.5t23 -16.5q33 -41 50 -71.5t30.5 -56.5t29 -49.5t46.5 -49.5q43 66 71 108.5t46 67.5t28.5 36.5t17.5 16.5q7 3 18 5.5t22.5 1.5t20 -8.5t9.5 -25.5q1 -20 -12 -48t-33.5 -60t-44.5 -65.5t-45.5 -64.5t-36 -57
t-15.5 -43q-3 -39 -1 -79.5l4 -81t2 -81.5t-7 -81q-2 -10 -18 -15t-34.5 -2.5t-33.5 13t-14 31.5q5 61 7.5 136.5t10.5 168.5l-3 6q-15 26 -42.5 65t-56.5 79.5t-53.5 78t-33.5 60.5z" />
    <glyph glyph-name="Z" unicode="Z" horiz-adv-x="580" 
d="M97 572q-12 1 -28 7t-21 20q-4 10 -3.5 29.5t5.5 39.5q3 15 7.5 22.5t12 11.5t18 5.5t25.5 4.5q49 7 103.5 2t109 -12t108 -9.5t100.5 9.5q11 -6 16 -13.5t3 -20.5q-78 -148 -170 -290t-198 -263l205 12q54 3 87 6t51 -2.5t24.5 -23t8.5 -56.5l-2 -12q0 -14 -10 -27
t-32 -15q-29 0 -57 2.5t-56 6t-56 5.5t-57 1q-11 -1 -41 -5t-63.5 -7.5t-62.5 -6t-38 -0.5t-17.5 5.5t-15 9.5t-10.5 15.5t-3 23.5q27 79 67.5 151t88 139.5t99 131t100.5 125.5q-12 4 -35.5 8.5t-49 8.5t-49.5 5t-39 -2q-34 -8 -62.5 -20.5t-62.5 -21.5z" />
    <glyph glyph-name="zero" unicode="0" horiz-adv-x="431" 
d="M237 515q43 -3 73 -22.5t49 -50.5t29 -70t13 -80t-0.5 -80.5t-9.5 -71.5q-2 -13 -6 -30t-10 -34.5t-14 -33.5t-19 -25q-18 -15 -46 -20.5t-57.5 -5t-57.5 4.5t-47 7q-52 9 -77 45t-33.5 84.5t-5 103.5t9.5 102q3 26 8 59t16 57q9 19 32 33t50.5 22.5t55.5 10t47 -4.5z
M309 133q10 27 19 58.5t12 63.5t-2 62.5t-22 55t-48.5 41t-80.5 20.5l-11 -3q-11 -7 -27 -14t-23 -18q-19 -33 -25 -70t-3 -75t12.5 -75.5t20.5 -70.5l37 -29q32 -2 54.5 -3t38.5 4t27.5 17t20.5 36z" />
    <glyph glyph-name="one" unicode="1" horiz-adv-x="245" 
d="M88 305q-14 -16 -29.5 -17.5t-27 7t-15.5 24t7 33.5q38 26 58.5 59.5t37.5 77.5q2 1 2.5 2t2.5 2q5 14 19.5 22.5t35.5 3.5q1 0 1.5 -0.5t1.5 -0.5q11 -7 15 -13t7 -18v-7l-10 -99l-1 -17v17l5 -240q0 -12 3 -28t4.5 -32.5t0 -32t-9.5 -26.5q-9 -12 -26 -20.5t-35 -10
t-32 7t-16 31.5l12 142l22 200q-10 -15 -17.5 -31.5t-15.5 -35.5zM203 464q0 5 1 8v-4q0 -1 -0.5 -3t-0.5 -1z" />
    <glyph glyph-name="two" unicode="2" horiz-adv-x="409" 
d="M63 107q17 29 46 54.5t59 51t56 53t38 61.5q0 1 0.5 1t0.5 1q0 2 1 3q-10 42 -46 66q-23 -2 -49.5 -2.5t-50.5 -6.5q-12 -9 -21.5 -11t-26.5 0q-11 5 -17 13.5t-7 16.5q-11 11 -12 26t12 29q-2 -1 0.5 2.5t4.5 5.5q10 10 17.5 11.5t24.5 7.5q26 8 52 13.5t54 2.5
q36 -3 70 -21.5t52.5 -50t16.5 -76t-36 -99.5q-16 -33 -37 -64t-41 -62q-2 -4 -4.5 -8t-5.5 -9q18 -8 32.5 -14.5t29.5 -10t33 -3.5t44 6q28 -8 33.5 -29t-8.5 -36q0 -2 -0.5 -5t-0.5 -5q-4 -14 -20 -17q-29 0 -58 3.5t-58 8.5q-14 3 -27.5 7.5t-27.5 2.5q-20 -1 -39.5 -5
t-40.5 -6q-27 -8 -46.5 5t-17.5 46q0 6 3 13t7 13t7 11t4 6z" />
    <glyph glyph-name="three" unicode="3" horiz-adv-x="441" 
d="M156 152q-11 -1 -23.5 1t-23.5 6t-18.5 10t-7.5 12q-7 18 6.5 29t37 19.5t50.5 15.5t48.5 18t31 27.5t-3.5 42.5q-5 22 -27.5 33t-52 15t-58.5 3.5t-45 -1.5q-21 2 -31 15t-9 27q-3 24 -1.5 38.5t5.5 22.5t10 11.5t13 3.5l117 1q72 -4 114.5 -28t62 -55.5t20.5 -64
t-9 -54.5q-7 -15 -21 -25.5t-26 -22.5q-12 -11 -24.5 -22t-26.5 -19q40 -20 67 -53t36 -75.5t-2 -92.5t-47 -104q-5 -6 -9.5 -12t-9.5 -12q-24 -26 -62 -50.5t-81.5 -40.5t-88.5 -19t-81 14q-9 5 -14 13q-17 11 -21.5 33t7.5 58q5 9 10 13.5t15 7.5q11 1 19.5 -2t16.5 -6.5
l16 -7t18 -3.5q26 0 62.5 12.5t71.5 33.5t61.5 49t32.5 58t-16 60.5t-83 57.5z" />
    <glyph glyph-name="four" unicode="4" horiz-adv-x="499" 
d="M418 102q41 0 59.5 -14t21 -30t-7.5 -29.5t-25 -11.5h-2q-6 -2 -15.5 -2t-19.5 0.5t-19.5 1.5t-15.5 0q2 -28 1 -59t-4 -62t-6.5 -60.5t-6.5 -53.5q-2 -3 -3 -5.5t-3 -4.5q-10 -17 -32 -21h-70q-23 1 -27.5 15t0 32.5t13 38t12.5 32.5q15 37 22 60t10 38t3 26t-1 23h-13
t-12 -1q-4 0 -10 2l-184 -2q-9 -2 -16.5 -2.5t-17.5 0.5q-11 8 -19 19q-3 23 11 39q1 2 2 2.5t3 2.5q30 41 58 83.5t55.5 85.5t55.5 86t59 85q6 9 12 18.5t11 17.5q16 25 35.5 42.5t38.5 23.5t35 -1.5t25.5 -33t10.5 -70.5t-11 -114q-4 -42 -9.5 -83t-8.5 -83
q2 -8 2.5 -15.5t2.5 -15.5zM360 378q-3 -5 -7.5 -13t-9 -17t-8 -17.5t-6.5 -12.5q-35 -59 -75 -114.5t-84 -109.5q25 -2 49.5 -2h48.5q8 2 13 2h2q7 2 14 3t14 3q1 29 7.5 60.5t14 64t14 64t7.5 60.5z" />
    <glyph glyph-name="five" unicode="5" horiz-adv-x="464" 
d="M53 -128q29 0 71 15.5t79.5 41t61 58.5t15.5 67h1q-8 14 -20.5 28.5t-26 26.5t-27 21t-23.5 13q-4 1 -7 2l-6 2l-82 28q-14 3 -23 14q-10 34 -1 69v2q-4 16 -3 37.5t3 45t5 45.5t3 39q1 14 2.5 27.5t4.5 27.5q5 10 11 13t17 3q63 3 124.5 4t123.5 4q16 -5 23.5 -15.5
t5.5 -25.5t-15.5 -34t-40.5 -40q-10 1 -34.5 4.5t-52 5.5t-51.5 1t-31 -9q-9 -10 -13.5 -24.5t-6.5 -30t-2.5 -31t-1.5 -28.5q0 1 0.5 1t0.5 1v-10q0 -11 -2 -16q28 -3 68 -15l63 -29q32 -16 56 -40.5t36.5 -55.5t14 -67.5t-11.5 -76.5h-2q-12 -41 -41 -85q-5 -6 -9.5 -12
t-9.5 -12q-24 -26 -62 -50.5t-81.5 -40.5t-88.5 -19t-81 14q-9 5 -14 13q-17 11 -21.5 33t7.5 58q5 9 10 13.5t15 7.5q11 1 19.5 -2t16.5 -6.5l16 -7t18 -3.5zM123 438q2 2 4 3t4 3h-7q0 -4 -1 -6z" />
    <glyph glyph-name="six" unicode="6" horiz-adv-x="517" 
d="M493 157q-8 -41 -37.5 -75t-69.5 -56.5t-86.5 -31.5t-89 -1t-77.5 35.5t-52 77.5q-18 53 -25.5 122.5t-5 141t15 139t33.5 115.5t50.5 70t66.5 4v-3q1 0 1.5 -0.5t1.5 -0.5q13 -6 11.5 -18.5t-10 -32.5t-20.5 -47.5t-20 -63.5t-9 -80.5t14 -98.5q42 20 89.5 24t91 -7.5
t77 -38.5t45.5 -67q8 -25 9 -53t-4 -54zM389 152q13 24 11.5 43t-13 36t-30.5 32.5t-41 31.5q-15 11 -33.5 8t-35.5 -15.5t-30.5 -32.5t-18 -44.5t2.5 -51t30 -50.5q24 -26 51 -23.5t50.5 16t39 30.5t17.5 20z" />
    <glyph glyph-name="seven" unicode="7" horiz-adv-x="510" 
d="M112 -255q-6 -17 -18.5 -24.5t-25 -6t-23 11.5t-12.5 28q3 25 4.5 49t8.5 47q31 97 70.5 189t96.5 185q21 35 42.5 72t50.5 66q-23 -5 -59 -7.5t-73.5 -0.5t-71.5 9.5t-53.5 23t-18.5 40.5t33 61q86 -3 148 -4.5t105.5 -2.5t71 -1.5t45 -1.5t27 -3t16.5 -4l7 -35
l-38 -103l-136 -170q-33 -45 -68 -92.5t-63.5 -98.5t-47 -107.5t-18.5 -119.5z" />
    <glyph glyph-name="eight" unicode="8" horiz-adv-x="489" 
d="M81 643q29 53 68.5 78.5t82 29.5t84 -10.5t75 -41.5t55 -64t23 -77.5t-20.5 -82t-75 -77.5l80 -138q9 -13 15 -35.5t7 -49t-6.5 -55.5t-25.5 -55q-21 -31 -61.5 -49t-89 -23t-98.5 5t-89.5 35t-62.5 66t-18 99q3 32 16.5 60t34.5 52.5t48 45t56 38.5q-20 1 -37.5 16
t-32 37t-24.5 49.5t-14 54.5t-2 51.5t12 40.5zM362 208q-3 18 -12.5 39.5t-24.5 38.5t-36 26.5t-46 3.5q-28 -4 -47.5 -18t-30.5 -33.5t-14 -43t2.5 -45.5t19 -41t35.5 -30q21 -9 44 -9t43 9t36.5 27.5t25.5 46.5q2 8 2.5 14.5t2.5 14.5zM270 459q28 4 48 22.5t30 43t8 50.5
t-17.5 45.5t-47 28t-80.5 -2.5q-25 -9 -36.5 -25t-11.5 -36t9 -40.5t24 -38.5t34.5 -31t39.5 -16z" />
    <glyph glyph-name="nine" unicode="9" horiz-adv-x="494" 
d="M103 -195q62 30 101 58t64 62t41 78.5t33 106.5q-67 -24 -121.5 -18t-94 32t-62.5 68t-26 90q-1 17 -1.5 33t-0.5 33q0 52 31.5 90t79 58t101 20.5t97.5 -21.5q54 -26 83.5 -75t39.5 -111t1 -131.5t-32.5 -137t-59.5 -128t-81.5 -104.5t-98.5 -65.5t-110 -11.5
q-12 2 -18.5 7.5t-8.5 12.5q-3 11 7 24t36 30zM332 291q-6 17 -15 36t-26 33.5t-43 21t-66 -0.5l-39 -26q-10 -46 0.5 -81t35 -52t59 -12.5t72.5 38.5z" />
    <glyph glyph-name="colon" unicode=":" horiz-adv-x="219" 
d="M93 461q36 26 56.5 23t28.5 -22.5t4.5 -47.5t-15 -51t-29 -33.5t-38.5 5.5q-4 2 -6.5 4.5l-4.5 4.5t-4.5 3t-4.5 3q-12 9 -21 28.5t-10 39t9 33t35 10.5zM154 121q9 -14 9 -27.5t-6 -24.5q-1 -2 -1 -2.5t-1 -2.5q-1 -4 -1 -7t-2 -6q9 -15 8 -30t-9.5 -25t-22 -12.5
t-28.5 8.5q-16 11 -18 29q-18 -1 -28 8.5t-12.5 23t1.5 29t13 27.5t22.5 17.5t29.5 0.5z" />
    <glyph glyph-name="semicolon" unicode=";" horiz-adv-x="232" 
d="M196 112q-10 -42 -24 -91t-42 -94q-7 -10 -15 -17q-2 -2 -8 -6t-3 -2q11 5 9.5 4t-6.5 -8q-7 -10 -15 -12t-16.5 0.5t-16.5 7.5t-15 8h-1q2 -2 1.5 -2t-1.5 2q-9 12 -8.5 25t7 22t18 13.5t25.5 0.5q6 2 7 2q2 1 4.5 4t1.5 1q-2 -4 -7 -9l1 -1q10 10 13.5 20t2.5 21
t-4.5 22.5t-7.5 25.5q-12 4 -18 12t-8 18q-12 13 -11 28t12 25q-3 8 -2 16t8 14.5t21 11.5t38 8q27 1 42.5 -13.5t17.5 -56.5zM93 461q36 26 56.5 23t28.5 -22.5t4.5 -47.5t-15 -51t-29 -33.5t-38.5 5.5q-4 2 -6.5 4.5l-4.5 4.5t-4.5 3t-4.5 3q-12 9 -21 28.5t-10 39t9 33
t35 10.5z" />
    <glyph glyph-name="period" unicode="." horiz-adv-x="202" 
d="M154 121q9 -14 9 -27.5t-6 -24.5q-1 -2 -1 -2.5t-1 -2.5q-1 -4 -1 -7t-2 -6q9 -15 8 -30t-9.5 -25t-22 -12.5t-28.5 8.5q-16 11 -18 29q-14 -2 -27 9q-10 7 -14 15.5t-4 17t4 16.5t11 13q1 19 17 31t39 4q21 10 46 -6z" />
    <glyph glyph-name="comma" unicode="," horiz-adv-x="232" 
d="M196 112q-10 -42 -24 -91t-42 -94q-10 -14 -16 -21t-7 -8q-7 -10 -15 -12.5t-16.5 -0.5t-17 7t-15.5 10q2 -2 1.5 -2t-1.5 2q-9 12 -8.5 25t7 22t18 13.5t25.5 0.5l6 -2l1 -1q10 10 13.5 20t2.5 21t-4.5 22.5t-7.5 25.5q-12 4 -18 12t-8 18q-12 13 -11 28t12 25
q-3 8 -2 16t8 14.5t21 11.5t38 8q27 1 42.5 -13.5t17.5 -56.5z" />
    <glyph glyph-name="bullet" unicode="&#x2022;" horiz-adv-x="373" 
d="M151 354q36 27 56.5 23.5t28.5 -23t4.5 -47.5t-15 -51t-29 -33.5t-38.5 5.5q-4 2 -6.5 4.5l-4.5 4.5t-4.5 3t-4.5 3q-12 9 -21 28.5t-10 39t9 33t35 10.5z" />
    <glyph glyph-name="a" unicode="a" horiz-adv-x="439" 
d="M219 286q61 6 81.5 20t13.5 29t-34.5 28t-62.5 17t-70 -5t-57 -37q-17 -2 -29.5 5t-17 19t-1 25.5t18.5 24.5q15 5 21 13t20 16q64 34 114.5 37.5t87.5 -14t61 -51t35.5 -74.5t11 -83.5t-13.5 -78.5q-5 -14 -4.5 -26t3 -26.5t5.5 -33.5t5 -45q4 -7 4 -13q4 -11 3 -24
q0 -1 -1 -1q-6 -15 -16.5 -22.5t-22 -7t-22 8t-16.5 21.5q-2 7 -2 10v4q-7 8 -8 15q-4 3 -7 6.5t-6 7.5t-10 3.5t-9 4.5q-5 -2 -9 -4.5t-8 -4.5q-30 -19 -56.5 -33.5t-52.5 -18.5t-52.5 5.5t-56.5 39.5q-9 9 -15.5 24t-10 32.5t-3.5 34.5t5 31q4 11 7.5 18t10.5 15
q10 12 18 21l4.5 4.5t1.5 0.5q5 8 13.5 19.5t15.5 16.5q19 15 47 17.5t51 6.5zM292 120q12 17 16 30t5 24.5t1.5 21.5t3.5 22q-31 5 -67 6.5t-66 -8.5t-49.5 -35.5t-18.5 -73.5l28 -21q30 -7 66 2.5t81 31.5zM340 10q1 -2 0.5 0t-2.5 4q1 -1 1 -2t1 -2z" />
    <glyph glyph-name="b" unicode="b" horiz-adv-x="447" 
d="M32 228q-2 52 -4 119.5t-3 136.5t-0.5 132.5t5.5 108.5q0 2 1.5 4t3.5 4q9 11 16 10.5t21 3.5q2 0 3.5 -1.5t2.5 -0.5q4 2 6 5.5t6 3.5v1q3 -1 6.5 -1.5t6.5 -1.5q1 -1 1 -1.5t1 -1.5q15 -7 18 -24q6 -33 8 -69t2 -72t-0.5 -72t0.5 -69v-28.5t1 -29.5q14 21 39.5 41.5
t51.5 25.5q35 7 59.5 4t42.5 -13.5t32 -27t28 -37.5q26 -40 34.5 -86t2 -91t-27 -84.5t-52 -67t-72.5 -39.5t-88 -1q-14 3 -28 14t-25 20q-5 -25 -13 -37q-6 -10 -18 -15t-25 -4.5t-24.5 6.5t-15.5 18q-8 22 -9.5 50t0 57.5t4 58t2.5 51.5zM139 174q-1 -11 -0.5 -26.5
t-0.5 -32.5q4 -3 9 -11q29 -28 56 -31.5t49.5 9t40.5 38.5t29.5 57t15 63.5t-2.5 59.5t-22 44.5t-45 17.5q-16 0 -31 -6.5t-28.5 -16t-24.5 -19.5t-19 -16q-10 -14 -26 -27q2 -55 0 -103z" />
    <glyph glyph-name="c" unicode="c" horiz-adv-x="416" 
d="M393 108q-16 -40 -53 -67.5t-81.5 -39.5t-90 -7t-76.5 30q-31 24 -49 61t-25 78.5t-5.5 84.5t9.5 80q12 66 44.5 102.5t73 52t82.5 15t73 -7.5q16 -3 34.5 -12t33.5 -22t23.5 -28.5t4.5 -33.5q-9 -19 -29 -15q-6 2 -9.5 4t-8.5 6q-1 2 -4 3.5t-5 3.5q-18 5 -35.5 12.5
t-35.5 13t-36 6.5t-36 -7q-39 -18 -58.5 -52t-25.5 -73t0 -77t18 -65q16 -15 29.5 -26t29.5 -15.5t36.5 -2.5t50.5 11q16 5 37.5 15.5t40.5 14t31.5 -4t11.5 -38.5z" />
    <glyph glyph-name="d" unicode="d" horiz-adv-x="459" 
d="M409 11q-4 -12 -15.5 -18t-24.5 -6.5t-25 4.5t-18 15q-8 12 -13 37q-11 -9 -25 -20t-28 -14q-48 -11 -88.5 1t-72 39.5t-52 67t-27 84.5t1.5 91t35 86q14 21 28 37.5t32 27t42.5 13.5t59.5 -4q26 -5 51.5 -25.5t39.5 -41.5q1 15 1 29.5v28.5q1 67 0 141t10 141
q3 17 18 24q1 1 1 1.5t1 1.5q3 1 6.5 1.5t6.5 1.5v-1q4 0 6 -3.5t6 -5.5q1 -1 2.5 0.5t3.5 1.5q14 -4 21 -3.5t16 -10.5q2 -2 3.5 -4t1.5 -4zM305 174q-2 48 0 103q-16 13 -26 27q-8 6 -19 16t-24.5 19.5t-28.5 16t-31 6.5q-29 0 -45 -17.5t-22 -44.5t-2.5 -59.5t15 -63.5
t29.5 -57t40.5 -38.5t49.5 -9t56 31.5q5 8 9 11q-1 17 -0.5 32.5t-0.5 26.5z" />
    <glyph glyph-name="q" unicode="q" horiz-adv-x="460" 
d="M415 233q2 -53 4 -120t3 -136t0 -132.5t-5 -108.5q0 -2 -1.5 -4t-3.5 -4q-9 -11 -16 -10.5t-21 -3.5q-2 0 -3.5 1.5t-2.5 0.5q-4 -2 -6 -5.5t-6 -3.5v-1q-3 1 -6.5 1.5t-6.5 1.5q-1 1 -1 1.5t-1 1.5q-15 7 -18 24q-11 67 -10 141t0 141v28.5t-1 29.5q-14 -21 -39.5 -41.5
t-51.5 -25.5q-35 -7 -59.5 -4t-42.5 13.5t-32 27t-28 37.5q-27 40 -35 86t-1.5 91t27 84.5t52 67t72 39.5t88.5 1q14 -3 28 -14t25 -20q5 25 13 37q6 10 18 15t25 4.5t24.5 -6.5t15.5 -18q8 -23 9 -51t-0.5 -57t-3.5 -57.5t-2 -51.5zM308 287q1 11 0.5 26.5t0.5 32.5
q-4 3 -9 11q-39 37 -73.5 32.5t-60.5 -33t-41.5 -72t-16 -84.5t16 -71t54.5 -30q16 0 31 6.5t28.5 16t24.5 19.5t19 16q10 14 26 27q-2 55 0 103z" />
    <glyph glyph-name="p" unicode="p" horiz-adv-x="452" 
d="M32 224q0 23 -2.5 51.5t-4 57.5t0 57t9.5 51q4 12 15.5 18t24.5 6.5t25 -4.5t18 -15q8 -12 13 -37q11 9 25 20t28 14q47 11 88 -1t72.5 -39.5t52 -67t27 -84.5t-2 -91t-34.5 -86q-14 -21 -28 -37.5t-32 -27t-42.5 -13.5t-59.5 4q-26 5 -51.5 25.5t-39.5 41.5
q-1 -15 -1 -29.5v-28.5q-1 -33 -0.5 -69t0.5 -72t-2 -72t-8 -69q-3 -17 -18 -24q-1 -1 -1 -1.5t-1 -1.5q-3 -1 -6.5 -1.5t-6.5 -1.5v1q-4 0 -6 3.5t-6 5.5q-1 1 -2.5 -0.5t-3.5 -1.5q-14 4 -21 3.5t-16 10.5q-2 2 -3.5 4t-1.5 4q-5 45 -5.5 108.5t0.5 132.5t3 136t4 120z
M139 278q2 -48 0 -103q16 -13 26 -27q8 -6 19 -16t24.5 -19.5t28.5 -16t31 -6.5q38 0 54.5 30t16 71t-16 84.5t-41.5 72t-61 33t-73 -32.5q-5 -8 -9 -11q1 -17 0.5 -32.5t0.5 -26.5z" />
    <glyph glyph-name="e" unicode="e" horiz-adv-x="477" 
d="M337 237q-19 0 -45 1t-53.5 1h-53.5t-45 -1q-3 -22 2.5 -44t18.5 -42t33 -36t47 -25q10 -4 25 -7t30.5 -4t28.5 1t20 7q9 6 19 10t16 10q2 2 2 4.5t1 5.5l1 -1q6 11 16.5 13.5t19 -0.5t12.5 -11.5t-1 -20.5q-20 -44 -55 -68.5t-77 -30.5t-86.5 4.5t-83.5 36t-68.5 64.5
t-40 89t1 110.5t54.5 129.5q17 27 51.5 44t76 22.5t85.5 -2t80.5 -28t59.5 -56t24 -86.5q0 -35 -1 -53.5t-11.5 -27t-34.5 -9.5t-69 0zM259 412q-28 -4 -43.5 -8.5t-25.5 -14t-17.5 -25t-19.5 -41.5q51 1 104 -2t103 -1q-3 28 -12.5 44.5t-23.5 26t-30.5 14t-34.5 7.5z
M110 409l1 -1z" />
    <glyph glyph-name="f" unicode="f" horiz-adv-x="382" 
d="M69 346q0 57 19.5 93t50 54.5t67 19.5t70 -12t59.5 -40t35 -65q-9 -11 -20 -11.5t-22 9.5q-28 18 -52.5 25t-44 6t-33 -9.5t-18.5 -20.5q-16 -40 -15 -60.5t11 -30t26.5 -11.5t32 -3.5t26.5 -6t11 -20.5q0 -17 -17 -25q-16 -6 -28.5 -8t-23 -5t-20.5 -11t-22 -27v-5
q-1 -57 -2.5 -113t-2.5 -113q-1 -42 2.5 -85t-2.5 -85q0 -18 -19.5 -27.5t-41 -9t-38.5 12t-12 35.5q4 23 22 33v3q0 5 0.5 8.5t0.5 7.5q-1 23 -2.5 44.5t-1.5 43.5q-1 79 -1 157.5t2 157.5q1 24 2.5 47.5t1.5 46.5zM64 -193q0 -3 0.5 -1.5t0.5 5.5q0 -1 -0.5 -1t-0.5 -1v-2
z" />
    <glyph glyph-name="g" unicode="g" horiz-adv-x="459" 
d="M415 233q-8 -26 -8 -67t1.5 -88t2.5 -97t-4.5 -93.5t-21.5 -77t-47 -48.5q-19 -9 -41.5 -12.5t-43.5 -5.5q-23 -2 -48 0t-48 7q-8 1 -21 10t-25.5 20.5t-23 24t-13.5 21.5q-3 5 -4 11q-13 38 -3 59.5t37 21.5q9 -1 14 -7.5t11 -17.5t14.5 -25.5t25.5 -32.5
q16 -11 36 -13.5t39.5 0t36.5 9t26 15.5q16 16 17 44t-3 60.5t-8.5 65.5t0.5 59q-14 -21 -39.5 -41.5t-51.5 -25.5q-35 -7 -59.5 -4t-42.5 13.5t-32 27t-28 37.5q-27 40 -35 86t-1.5 91t27 84.5t52 67t72 39.5t88.5 1q14 -3 28 -14t25 -20q5 25 13 37q6 10 18 15t25 4.5
t24.5 -6.5t15.5 -18q8 -23 9 -51t-0.5 -57t-3.5 -57.5t-2 -51.5zM308 287q1 11 0.5 26.5t0.5 32.5q-4 3 -9 11q-39 37 -73.5 32.5t-60.5 -33t-41.5 -72t-16 -84.5t16 -71t54.5 -30q16 0 31 6.5t28.5 16t24.5 19.5t19 16q10 14 26 27q-2 55 0 103z" />
    <glyph glyph-name="h" unicode="h" horiz-adv-x="454" 
d="M364 -8q-26 1 -32 23t-2.5 59.5t11 87.5t8.5 108q-2 15 -4.5 31.5t-8 32t-15.5 29.5t-27 26l-6 1l-37 9q-13 -8 -24 -14t-21.5 -14.5t-20 -21t-19.5 -33.5q0 -40 -2 -79t-2 -79q0 -11 1.5 -32.5t1 -45t-5 -44.5t-16.5 -31q-14 -8 -27 -7.5t-22 6.5q-10 0 -22 2.5
t-16 16.5q-4 15 -3 40.5t3.5 53t5 52t2.5 36.5q0 121 -9.5 241.5t-18.5 248.5q3 14 11 24q0 4 1 6q17 28 32 31.5t27.5 -10t22 -40t15 -58t7.5 -65t-1 -60.5l11 -116q17 17 33 35.5t40 23.5l29 2l14 2l17 -3l28 -6h1h1q25 -8 44 -24v-1q1 -1 2 -1q30 -21 41.5 -49.5
t14 -61.5t0 -67.5t-0.5 -67.5q2 -29 1 -59.5t1 -60.5q1 -25 0 -38.5t-7.5 -21t-19.5 -11t-37 -6.5z" />
    <glyph glyph-name="i" unicode="i" horiz-adv-x="197" 
d="M106 641q32 2 44.5 -11.5t12.5 -32.5q0 -7 -1.5 -16t-9 -18t-22.5 -15t-42 -7q-20 4 -32.5 15t-12.5 28q0 7 1.5 16.5t7.5 17.5t18.5 14.5t35.5 8.5zM153 25q-3 -15 -13 -24.5t-23 -12t-25.5 1.5t-19.5 15q-11 2 -20.5 10t-14.5 23q3 85 2 168t6 168q1 18 1.5 34.5
t2.5 32t8.5 29.5t21.5 27q5 4 18.5 4t19.5 4q21 -9 29 -25.5t10 -36t-0.5 -40.5t-2.5 -40q-3 -85 -3.5 -169t3.5 -169z" />
    <glyph glyph-name="j" unicode="j" horiz-adv-x="207" 
d="M56 -153q11 12 14.5 31t2 41.5t-5 47t-6.5 47.5q-14 85 -14 178t8 182q1 18 1.5 34.5t2.5 32t8.5 29.5t21.5 27q5 4 18.5 4t19.5 4q21 -9 29 -25.5t10 -36t-0.5 -40.5t-2.5 -40q-12 -34 -11 -86.5t5.5 -113t8.5 -123.5t-0.5 -118.5t-22 -98t-56.5 -61.5
q-19 -9 -41.5 -12.5t-43.5 -5.5q-23 -2 -48 0t-48 7q-8 1 -21 10t-25.5 20.5t-23 24t-13.5 21.5q-3 5 -4 11q-13 38 -3 59.5t37 21.5q9 -1 14 -7.5t11 -17.5t14.5 -25.5t25.5 -32.5q16 -11 36 -13.5t39.5 0t36.5 9t26 15.5zM116 641q32 2 44.5 -11.5t12.5 -32.5
q0 -7 -1.5 -16t-9 -18t-22.5 -15t-42 -7q-20 4 -32.5 15t-12.5 28q0 7 1.5 16.5t7.5 17.5t18.5 14.5t35.5 8.5z" />
    <glyph glyph-name="k" unicode="k" horiz-adv-x="431" 
d="M42 725q17 28 32 31.5t27.5 -10t22 -40t15 -58t7.5 -65t-1 -60.5l13 -200q18 12 37 22.5t35 21.5q19 14 31 23t22.5 17t21.5 16.5t28 21.5q6 5 14 12.5t16.5 12.5t17.5 5.5t18 -7.5q15 -12 11 -27.5t-16.5 -29.5t-27.5 -25.5t-22 -17.5l-13 -13t-16 -16.5t-14.5 -15.5
t-7.5 -8q-16 -16 -34 -27q-7 -3 -14 -8q0 -4 -4.5 -6.5t-7.5 -5.5q-7 -8 -12.5 -14t-11.5 -12q1 -2 2 -2.5t2 -1.5q8 -8 14.5 -17.5t12.5 -19.5l18 -20t19 -19q20 -19 43 -33.5t40 -35.5q15 -17 26 -37t-1 -43q-15 -18 -33.5 -18t-29.5 13q-2 0 -2 1q-11 10 -17 21
q-4 4 -6 7q-15 20 -15 21.5t3.5 -1.5t4 -3.5t-13.5 16.5q-10 13 -25.5 24t-26.5 22q-1 1 -8.5 9t-17.5 18.5l-20 21t-16 16.5l-6 6v-29q0 -11 1.5 -32.5t1 -45t-5 -44.5t-16.5 -31q-14 -8 -27 -7.5t-22 6.5q-10 0 -22 2.5t-16 16.5q-4 15 -3 40.5t3.5 53t5 52t2.5 36.5
q0 121 -9.5 241.5t-18.5 248.5q3 14 11 24q0 4 1 6zM233 272q2 0 4.5 2.5l4.5 4.5q-12 -7 -9 -7z" />
    <glyph glyph-name="l" unicode="l" horiz-adv-x="310" 
d="M120 -5q-2 0 -3 0.5t-3 0.5q-10 -4 -22 -3t-22.5 6.5t-17 17t-6.5 28.5l3 299q-7 33 -7 71.5t0.5 78t-2.5 76.5t-16 67q-2 -1 -6 -5q-16 9 -22 22t-3.5 25.5t13.5 21.5t29 9q2 -4 3 -5q7 7 23 9q11 -1 21 -3.5t21 -5.5q6 2 12.5 2.5t12.5 0.5q13 -4 18 -11t9 -22
q10 -81 5.5 -164t-7.5 -164q-2 -42 0.5 -100.5t-3.5 -123.5q4 -5 6.5 -10.5t2.5 -11.5q3 0 5 -2q9 -2 26 0t35.5 4.5t35.5 4t26 0.5q10 -3 14 -18.5t2 -32.5t-9.5 -32t-18.5 -17h-2q-14 -1 -34 -2t-41.5 -3t-42 -4t-35.5 -4z" />
    <glyph glyph-name="m" unicode="m" horiz-adv-x="666" 
d="M53 -13q-5 5 -18 13q-3 15 5 30v2q1 5 2 16t1 12q1 15 1.5 30.5t0.5 29.5q1 46 -1 91.5t1 90.5q1 11 2 20.5t3 20.5q-1 15 -2.5 33.5t-2 37t-1 36.5t0.5 33q4 16 11 24t21 13q1 1 3 1q11 0 19 -3q4 0 6 -1q14 7 30.5 0t23.5 -28q15 8 32 13.5t33 3.5q42 -5 66 -26t48 -56
q2 -4 4 -6q14 22 35.5 42t48.5 29q34 11 67 9t60.5 -19t48 -49.5t31.5 -83.5q7 -32 6.5 -70.5t-4.5 -82.5t-10 -93.5t-10 -102.5q-10 -10 -25 -16t-29 -5.5t-25 9.5t-13 29q2 19 6 46t8.5 55.5t8.5 55.5t6 46q2 21 -2.5 44.5t-14.5 44t-24.5 35t-33.5 16.5t-41 -11.5
t-47 -48.5q-4 -11 -7.5 -23t-5.5 -25q-4 -29 -3 -59t3.5 -60t6 -59.5t3.5 -59.5q-1 -27 -27 -31q-32 -5 -48 -1t-22 17t-5 33t4 46l-3 250q-3 11 -7.5 20.5t-9.5 18.5q-13 11 -26 12t-30 0q-31 -2 -48.5 -20t-25 -44.5t-7.5 -58.5t3 -62.5t7 -55.5t5 -38q1 -18 3.5 -33.5
t3 -29.5t-2.5 -28t-13 -29z" />
    <glyph glyph-name="n" unicode="n" horiz-adv-x="477" 
d="M53 -13q-5 5 -18 13q-3 15 5 30v2q1 5 2 16t1 12q1 15 1.5 30.5t0.5 29.5q1 46 -1 86.5t1 85.5q1 11 2 20.5t3 20.5q-1 15 -2.5 33.5t-2 37t-1 36.5t0.5 33q4 16 11 24t21 13q1 1 3 1q11 0 19 -3q4 0 6 -1q14 7 30.5 0t23.5 -28q15 8 32 13.5t33 3.5q51 -6 93 -13
t70.5 -27.5t42.5 -59.5t9 -109q-4 -11 -7.5 -18t-5.5 -20q-4 -29 -3 -59t3.5 -60t6 -59.5t3.5 -59.5q-1 -27 -27 -31q-32 -5 -48 -1t-22 17t-5 33t4 46q4 74 7 125.5t2 86t-8 54t-22 29.5t-40.5 12.5t-64.5 3.5q-31 1 -48.5 -17t-25 -46t-7.5 -62t3 -66t7 -58.5t5 -39.5
q1 -18 3.5 -33.5t3 -29.5t-2.5 -28t-13 -29z" />
    <glyph glyph-name="o" unicode="o" horiz-adv-x="444" 
d="M296 484q40 -18 63 -47.5t34.5 -66t14.5 -77.5t4 -83q1 -24 -3.5 -55.5t-17.5 -53.5q-20 -32 -45 -54t-57 -42q-30 -6 -59 -7.5t-54 0t-43.5 6t-26.5 10.5q-20 15 -33 30.5t-22 32.5t-15.5 36.5t-13.5 41.5q-11 36 -8.5 85t16.5 98t39.5 90.5t60.5 62.5q9 5 21.5 9.5
t32 5t46.5 -4.5t66 -17zM164 404q-9 -4 -16 -14t-11.5 -22t-8.5 -23t-7 -17q-4 -12 -11.5 -33t-12.5 -45.5t-4 -50t13 -48t38.5 -38.5t72.5 -22q28 -4 47.5 9.5t32 35.5t19.5 47.5t10 46t3.5 31.5t1.5 4q-2 27 -10 56.5t-26 52t-49.5 33t-81.5 -2.5z" />
    <glyph glyph-name="r" unicode="r" horiz-adv-x="352" 
d="M305 446q35 -22 35 -37t-20.5 -27t-53 -23t-62.5 -26t-49 -36t-13 -53q-1 -5 -1.5 -9t-0.5 -6q-3 -49 -8 -98.5t-6 -105.5q-1 -20 -15 -30t-31.5 -10.5t-33.5 7t-21 24.5q-4 9 -4 14t2 12.5t5 21t5 39t2 67.5t-3 106q4 48 3 92.5t-1 91.5q0 14 9.5 24t23.5 14t30 0.5
t29 -16t20 -36t3 -59.5q3 1 10 6t14.5 10t14.5 9.5t10 5.5q23 17 53 22t54 6z" />
    <glyph glyph-name="s" unicode="s" horiz-adv-x="406" 
d="M375 472q17 -17 15.5 -34t-12.5 -27q1 -9 0 -16q-3 -11 -11.5 -14t-35.5 8q-31 7 -39 11.5t-12 8.5q-16 4 -33.5 6.5t-33.5 2.5t-30 -3t-23 -12t-13.5 -21.5t-3.5 -25.5t5.5 -25t13.5 -20q12 -11 26.5 -19t29.5 -14q18 -2 33.5 -5t30.5 -8.5t31 -15t36 -22.5
q17 -12 27.5 -32t12.5 -40q1 -23 -2.5 -48t-13.5 -46.5t-27.5 -37.5t-43.5 -21q-25 -5 -52 -4t-50 0q-32 -1 -63 -2.5t-63 -1.5q-22 1 -34 17t-10.5 35t17.5 35t51 18q20 -1 41.5 -2.5t43 -1t42.5 4.5t41 14q3 6 5.5 14.5t3 17.5t-1 17.5t-5.5 13.5q-8 10 -17.5 17t-19.5 13
q-2 1 -3 2t-3 2q-26 12 -56.5 18.5t-58 16t-47.5 27t-24 50.5q-3 19 0.5 38.5t5.5 39.5l16 32q26 31 66.5 49t85 23t87.5 -3.5t75 -29.5z" />
    <glyph glyph-name="space" unicode=" " horiz-adv-x="400" 
 />
    <glyph glyph-name="t" unicode="t" horiz-adv-x="437" 
d="M77 681q3 6 12.5 22t24 31.5t31.5 25.5t34 4q23 -14 30 -35t5 -44q0 -18 -3.5 -38t-8.5 -38l114 -25l6 -6q5 0 10 -0.5t11 -0.5q2 -1 4.5 -2t4.5 -2l5 -5q1 -1 3 -5q1 -1 1 -3q1 -3 1 -7q0 -6 -5 -13q0 -1 -2 -3l-2 -2q-5 -3 -12 -5l-147 -13h-1q-2 0 -2.5 -0.5
t-1.5 -0.5q-1 -8 -1 -14.5v-14.5q1 -24 0 -58.5t-1 -74t1.5 -80.5t8.5 -78.5t20.5 -69t36.5 -51.5q9 -8 17.5 -8t16.5 3t16.5 7t17.5 5h11q2 3 4.5 8.5t3.5 8.5q10 17 26 15t21 -21q0 -27 -10.5 -46.5t-28 -31.5t-39.5 -18t-46 -6q-14 -6 -32 -2t-36 14q-20 8 -35.5 19.5
t-23.5 26.5q-11 11 -19 21t-12 17q-11 19 -14 37.5t-4 39.5l-14 119q-2 63 -4 126.5t-1 127.5l-94 1q-19 3 -23 19q-1 4 -1 11q2 7 7 12q2 2 6 4q1 1 2 1t2 1q3 1 9 1q8 0 24.5 1t24.5 3q11 3 17 7.5t10.5 9.5t8.5 10t10 8q1 14 2 27.5t3 27.5z" />
    <glyph glyph-name="u" unicode="u" horiz-adv-x="449" 
d="M23 470q3 13 12 21.5t20 11.5t23 1t20 -9q14 -27 21 -66.5t10.5 -84t5.5 -90t5 -82.5q1 -15 2.5 -23.5t4 -14.5t7 -13t11.5 -20q15 -26 35 -23.5t41 18t41.5 36.5t35.5 32q2 98 3.5 175.5t11 121.5t32 48t65.5 -45q-3 -44 -9.5 -91.5t-11.5 -96.5t-5.5 -98t8.5 -94
q1 15 2.5 8.5t2.5 -20.5t1 -30t-3 -22q-7 -19 -19.5 -26t-26.5 -4q-17 -10 -36.5 4.5t-21.5 45.5q-1 8 -1 16v16q-19 -23 -41.5 -43.5t-48.5 -32.5q-13 -6 -32 -9t-33 2q-42 14 -67.5 46t-39 74.5t-17.5 92.5t-4.5 98.5t0 93t-3.5 76.5z" />
    <glyph glyph-name="v" unicode="v" horiz-adv-x="505" 
d="M15 452q-3 20 6.5 33t23 17t28 -3t20.5 -27q3 -15 10.5 -35t28.5 -63q17 -24 30 -56.5t24 -65t20.5 -61.5t20.5 -47q12 26 26 63t30.5 77t36 79t42.5 69t51 47.5t61 15.5q19 -8 12 -33q-2 -2 -2 -3q0 -3 -2 -11l-63 -118q-8 -18 -20 -47.5t-27 -63.5t-33 -70.5t-37 -68
t-39 -55.5t-39 -34q-12 -2 -20 -0.5t-17 10.5q-54 112 -97 223t-75 228z" />
    <glyph glyph-name="w" unicode="w" horiz-adv-x="646" 
d="M-6 422q-2 14 3.5 25.5t13.5 17.5q-6 22 13 30q32 2 59 -16t50 -48.5t42.5 -69.5t36 -79t31 -76.5t28.5 -61.5q22 59 40.5 92t39.5 34q8 0 10.5 -10.5t6.5 -28.5t13 -41t30 -46q14 22 27 57t26.5 74.5t29 80.5t34.5 74.5t42 57t53 29.5q20 -5 15 -31q-2 -2 -2 -4
q0 -7 -1 -11l-51 -123q-6 -19 -15 -49.5t-21 -66t-26 -73.5t-30 -71t-33 -59t-35 -38q-12 -4 -20 -3t-18 9q-6 9 -12 23t-12 29.5t-12 29.5t-11 23q-4 -8 -7.5 -22t-6.5 -28.5t-6.5 -28.5t-7.5 -22q-9 -9 -17 -10.5t-20 0.5q-18 10 -36.5 32.5t-36 52.5t-33.5 64.5t-30 68.5
q-5 11 -11 21t-12 21q-28 45 -60.5 85.5t-60.5 85.5z" />
    <glyph glyph-name="x" unicode="x" horiz-adv-x="477" 
d="M64 -33q-16 -3 -28 2t-18.5 14.5t-6.5 21.5t8 23q-13 10 -14.5 25t7.5 27q4 5 8.5 11.5t7.5 9.5q21 20 39 36.5t38 37.5q18 20 37 39t39 38q-29 48 -56.5 96t-61.5 93q-20 6 -26 22t0 30q1 11 7.5 19t15.5 11.5t20.5 2t22.5 -8.5l40 -8q12 -5 27.5 -21t33 -39t35.5 -50.5
t35 -54.5l14 16l14 16q5 5 13 18.5t19 29.5t23.5 31t25.5 24t25.5 9t24.5 -14q8 -11 3 -25q-33 -40 -63.5 -82.5t-59.5 -86.5l87 -145q3 -6 6 -11.5t5 -11.5q22 -27 42 -54q10 -13 7.5 -25t-16.5 -20q-3 -2 -5.5 -3t-5.5 -1q-6 -13 -18.5 -21.5t-26.5 -3.5q-23 7 -43.5 27
t-38 44.5t-32.5 49.5t-27 43l-12 17l-6 -9q-35 -51 -73 -102.5t-92 -86.5zM25 92q-1 -1 -1 -2q1 1 2 1.5t2 1.5q-1 -1 -3 -1z" />
    <glyph glyph-name="y" unicode="y" horiz-adv-x="502" 
d="M-21 -272q-18 2 -28 12.5t-11.5 23t6 25t24.5 18.5q13 0 36 2t46.5 6t44 11t29.5 18q12 14 22 30t21 32q30 61 43 101.5t13.5 68t-9.5 45t-26.5 34t-37 35.5t-40.5 49l-55 87q-2 0 -8 6.5t-12.5 16.5t-12 21t-5.5 19q1 5 5 15q0 8 5 13t13 6q14 7 30 1t24 -26q-1 2 -1 4
q15 -26 26.5 -43t19.5 -29t14.5 -20.5t12.5 -16.5q28 -22 47.5 -35.5t33 -22.5t22.5 -14t16 -9q2 4 3 7t3 7q14 34 31 73t27 74l6 24t5 23q2 5 8.5 14t10.5 14q2 2 2.5 3.5t1.5 3.5q2 5 3 8t3 7q10 18 29 21q12 12 27 15q16 0 26.5 -6.5t15.5 -16t3.5 -21t-9.5 -20.5
q-1 -2 -4.5 -8.5t-4.5 -7.5q-5 -10 -10.5 -19.5t-10.5 -20.5q-20 -49 -36 -102t-31.5 -106.5t-33 -106.5t-41 -103t-55.5 -95.5t-76 -84.5q-4 -3 -10 -9q-21 -18 -39.5 -28t-39.5 -14.5t-47.5 -6t-64.5 -2.5z" />
    <glyph glyph-name="z" unicode="z" horiz-adv-x="547" 
d="M432 491q35 10 56.5 7t31 -16t6.5 -34.5t-18 -49.5q-21 -33 -57.5 -69.5t-77.5 -72t-81.5 -69.5t-71.5 -62q-15 -15 -34 -37q30 -5 64.5 -11.5t73 -10t79 -3t81.5 10.5q14 -4 21.5 -12t9.5 -18q15 -5 15.5 -18.5t-13.5 -21.5q-52 -15 -102 -17.5t-100.5 0.5t-103.5 7
t-110 3q-14 -3 -27 -3t-22 4.5t-13 14t-1 26.5q1 3 4 7.5t14 17.5t33.5 36.5t62.5 65.5t100.5 105t147.5 154q-15 -2 -30 -4.5t-32 -2.5q-62 -1 -123 -2t-123 -4q-18 4 -35.5 22t-24.5 37t0 33.5t39 13.5q33 -4 77 -10t92.5 -10.5t98 -7t93.5 0.5z" />
    <glyph glyph-name="exclam" unicode="!" horiz-adv-x="227" 
d="M102 -22q-32 -2 -44.5 11.5t-12.5 32.5q0 7 1.5 16t9 18t22.5 15t42 7q20 -4 32.5 -15t12.5 -28q0 -8 -1.5 -17t-7.5 -17t-19 -14.5t-35 -8.5zM55 594q3 15 13 24.5t23 12t25 -1.5t20 -15q11 -2 20.5 -10t14.5 -23q-3 -85 -2 -168t-6 -168q-2 -18 -2 -34.5t-2 -32
t-8.5 -29.5t-21.5 -27q-5 -4 -18.5 -4t-19.5 -4q-21 9 -29 25.5t-10 36t0.5 40.5t2.5 40q3 85 3.5 169t-3.5 169z" />
    <glyph glyph-name="quotedbl" unicode="&#x22;" horiz-adv-x="251" 
d="M38 500q-2 12 -5 32.5t-4.5 41.5t0 40.5t8.5 30t21.5 10t39.5 -19.5l11 -32q-2 -30 -2 -72t-8 -80q5 -21 3 -40.5t-22 -31.5q-9 -5 -18 -3t-18 7q-10 11 -7 26q8 23 6.5 44t-5.5 47zM149 500q-2 12 -5 32.5t-4.5 41.5t0 40.5t8.5 30t21.5 10t39.5 -19.5l11 -32
q-2 -30 -2 -72t-8 -80q5 -21 3 -40.5t-22 -31.5q-9 -5 -18 -3t-18 7q-10 11 -7 26q8 23 6.5 44t-5.5 47z" />
    <glyph glyph-name="quotesingle" unicode="'" horiz-adv-x="134" 
d="M38 500q-2 12 -5 32.5t-4.5 41.5t0 40.5t8.5 30t21.5 10t39.5 -19.5l11 -32q-2 -30 -2 -72t-8 -80q5 -21 3 -40.5t-22 -31.5q-9 -5 -18 -3t-18 7q-10 11 -7 26q8 23 6.5 44t-5.5 47z" />
    <glyph glyph-name="quotedblright" unicode="&#x201d;" horiz-adv-x="285" 
d="M146.197 589.896q-6.94824 -29.2109 -16.6768 -63.29t-29.1855 -65.377q-6.94824 -9.73633 -11.1182 -14.6055q-4.16895 -4.86816 -4.86426 -5.56348q-4.86426 -6.95508 -10.4229 -8.69336q-5.55957 -1.73926 -11.4658 -0.348633q-5.90625 1.3916 -11.8135 4.86914
q-5.90625 3.47754 -10.7705 6.95508q1.38965 -1.3916 1.04297 -1.3916q-0.347656 0 -1.04297 1.3916q-6.25391 8.3457 -5.90625 17.3867q0.347656 9.04199 4.86426 15.3008q4.5166 6.25977 12.5078 9.38965t17.7197 0.347656l4.16895 -1.39062l0.695312 -0.696289
q6.94824 6.95508 9.38086 13.9102q2.43164 6.95508 1.7373 14.6055q-0.695312 7.65039 -3.12695 15.6484q-2.43262 7.99902 -5.21191 17.7354q-8.33887 2.78223 -12.5078 8.3457q-4.16992 5.56445 -5.55957 12.5195q-8.33789 9.04102 -7.64355 19.4736
q0.695312 10.4326 8.33887 17.3877q-2.08496 5.56348 -1.38965 11.1279q0.694336 5.56348 5.55859 10.084q4.86426 4.52148 14.5928 7.99902t26.4053 5.56348q18.7627 0.695312 29.5332 -9.38867q10.7705 -10.085 12.1602 -39.2959zM268.197 589.896
q-6.94824 -29.2109 -16.6768 -63.29t-29.1855 -65.377q-6.94824 -9.73633 -11.1182 -14.6055q-4.16895 -4.86816 -4.86426 -5.56348q-4.86426 -6.95508 -10.4229 -8.69336q-5.55957 -1.73926 -11.4658 -0.348633q-5.90625 1.3916 -11.8135 4.86914
q-5.90625 3.47754 -10.7705 6.95508q1.38965 -1.3916 1.04297 -1.3916q-0.347656 0 -1.04297 1.3916q-6.25391 8.3457 -5.90625 17.3867q0.347656 9.04199 4.86426 15.3008q4.5166 6.25977 12.5078 9.38965t17.7197 0.347656l4.16895 -1.39062l0.695312 -0.696289
q6.94824 6.95508 9.38086 13.9102q2.43164 6.95508 1.7373 14.6055q-0.695312 7.65039 -3.12695 15.6484q-2.43262 7.99902 -5.21191 17.7354q-8.33887 2.78223 -12.5078 8.3457q-4.16992 5.56445 -5.55957 12.5195q-8.33789 9.04102 -7.64355 19.4736
q0.695312 10.4326 8.33887 17.3877q-2.08496 5.56348 -1.38965 11.1279q0.694336 5.56348 5.55859 10.084q4.86426 4.52148 14.5928 7.99902t26.4053 5.56348q18.7627 0.695312 29.5332 -9.38867q10.7705 -10.085 12.1602 -39.2959z" />
    <glyph glyph-name="quotedblleft" unicode="&#x201c;" horiz-adv-x="285" 
d="M22.8145 471.111q6.94824 29.208 16.6758 63.2842q9.72754 34.0771 29.1826 65.3711q6.94824 9.73633 11.1172 14.6045t4.86426 5.56348q4.86328 6.9541 10.4219 8.69238q5.55859 1.73926 11.4648 0.347656q5.90625 -1.39062 11.8115 -4.86719
q5.90625 -3.47754 10.7705 -6.95508q-1.39062 1.39062 -1.04297 1.39062t1.04297 -1.39062q6.25293 -8.34473 5.90527 -17.3857q-0.34668 -9.04004 -4.86328 -15.2998q-4.5166 -6.25879 -12.5068 -9.3877q-7.99023 -3.12988 -17.7188 -0.347656l-4.16797 1.39062
l-0.695312 0.695312q-6.94824 -6.9541 -9.37988 -13.9092q-2.43262 -6.9541 -1.7373 -14.6035q0.695312 -7.65039 3.12695 -15.6475t5.21094 -17.7334q8.33789 -2.78223 12.5068 -8.3457t5.55859 -12.5176q8.33789 -9.04102 7.64355 -19.4717
q-0.695312 -10.4316 -8.33789 -17.3857q2.08398 -5.56445 1.38867 -11.127q-0.694336 -5.56445 -5.55859 -10.084q-4.86328 -4.52051 -14.5908 -7.99805q-9.72754 -3.47656 -26.4033 -5.56348q-18.7598 -0.695312 -29.5303 9.38867q-10.7695 10.084 -12.1592 39.292z
M144.814 471.111q6.94824 29.208 16.6758 63.2842q9.72754 34.0771 29.1826 65.3711q6.94824 9.73633 11.1172 14.6045t4.86426 5.56348q4.86328 6.9541 10.4219 8.69238q5.55859 1.73926 11.4648 0.347656q5.90625 -1.39062 11.8115 -4.86719
q5.90625 -3.47754 10.7705 -6.95508q-1.39062 1.39062 -1.04297 1.39062t1.04297 -1.39062q6.25293 -8.34473 5.90527 -17.3857q-0.34668 -9.04004 -4.86328 -15.2998q-4.5166 -6.25879 -12.5068 -9.3877q-7.99023 -3.12988 -17.7188 -0.347656l-4.16797 1.39062
l-0.695312 0.695312q-6.94824 -6.9541 -9.37988 -13.9092q-2.43262 -6.9541 -1.7373 -14.6035q0.695312 -7.65039 3.12695 -15.6475t5.21094 -17.7334q8.33789 -2.78223 12.5068 -8.3457t5.55859 -12.5176q8.33789 -9.04102 7.64355 -19.4717
q-0.695312 -10.4316 -8.33789 -17.3857q2.08398 -5.56445 1.38867 -11.127q-0.694336 -5.56445 -5.55859 -10.084q-4.86328 -4.52051 -14.5908 -7.99805q-9.72754 -3.47656 -26.4033 -5.56348q-18.7598 -0.695312 -29.5303 9.38867q-10.7695 10.084 -12.1592 39.292z" />
    <glyph glyph-name="quoteleft" unicode="&#x2018;" horiz-adv-x="154" 
d="M22.8145 471.111q6.94824 29.208 16.6758 63.2842q9.72754 34.0771 29.1826 65.3711q6.94824 9.73633 11.1172 14.6045t4.86426 5.56348q4.86328 6.9541 10.4219 8.69238q5.55859 1.73926 11.4648 0.347656q5.90625 -1.39062 11.8115 -4.86719
q5.90625 -3.47754 10.7705 -6.95508q-1.39062 1.39062 -1.04297 1.39062t1.04297 -1.39062q6.25293 -8.34473 5.90527 -17.3857q-0.34668 -9.04004 -4.86328 -15.2998q-4.5166 -6.25879 -12.5068 -9.3877q-7.99023 -3.12988 -17.7188 -0.347656l-4.16797 1.39062
l-0.695312 0.695312q-6.94824 -6.9541 -9.37988 -13.9092q-2.43262 -6.9541 -1.7373 -14.6035q0.695312 -7.65039 3.12695 -15.6475t5.21094 -17.7334q8.33789 -2.78223 12.5068 -8.3457t5.55859 -12.5176q8.33789 -9.04102 7.64355 -19.4717
q-0.695312 -10.4316 -8.33789 -17.3857q2.08398 -5.56445 1.38867 -11.127q-0.694336 -5.56445 -5.55859 -10.084q-4.86328 -4.52051 -14.5908 -7.99805q-9.72754 -3.47656 -26.4033 -5.56348q-18.7598 -0.695312 -29.5303 9.38867q-10.7695 10.084 -12.1592 39.292z" />
    <glyph glyph-name="quoteright" unicode="&#x2019;" horiz-adv-x="179" 
d="M146.197 589.896q-6.94824 -29.2109 -16.6768 -63.29t-29.1855 -65.377q-6.94824 -9.73633 -11.1182 -14.6055q-4.16895 -4.86816 -4.86426 -5.56348q-4.86426 -6.95508 -10.4229 -8.69336q-5.55957 -1.73926 -11.4658 -0.348633q-5.90625 1.3916 -11.8135 4.86914
q-5.90625 3.47754 -10.7705 6.95508q1.38965 -1.3916 1.04297 -1.3916q-0.347656 0 -1.04297 1.3916q-6.25391 8.3457 -5.90625 17.3867q0.347656 9.04199 4.86426 15.3008q4.5166 6.25977 12.5078 9.38965t17.7197 0.347656l4.16895 -1.39062l0.695312 -0.696289
q6.94824 6.95508 9.38086 13.9102q2.43164 6.95508 1.7373 14.6055q-0.695312 7.65039 -3.12695 15.6484q-2.43262 7.99902 -5.21191 17.7354q-8.33887 2.78223 -12.5078 8.3457q-4.16992 5.56445 -5.55957 12.5195q-8.33789 9.04102 -7.64355 19.4736
q0.695312 10.4326 8.33887 17.3877q-2.08496 5.56348 -1.38965 11.1279q0.694336 5.56348 5.55859 10.084q4.86426 4.52148 14.5928 7.99902t26.4053 5.56348q18.7627 0.695312 29.5332 -9.38867q10.7705 -10.085 12.1602 -39.2959z" />
    <glyph glyph-name="tilde" unicode="&#x2dc;" horiz-adv-x="449" 
d="M62 520q-15 1 -24.5 8.5t-13 17.5t-1.5 20.5t10 18.5q0 1 1 2q8 9 24 20.5t34.5 21t38 16t34.5 4.5q23 -3 37 -10t25 -17t22.5 -21t29.5 -21q6 -3 17.5 -2t25 8.5t27 21.5t24.5 36q15 13 28.5 10t22 -15t8.5 -29t-12 -31q-11 -9 -25.5 -23t-31.5 -24.5t-36 -15t-40 4.5
q-15 6 -30 20.5t-30.5 28t-30.5 22t-29 4.5q-17 -5 -29.5 -17.5t-24 -26t-23.5 -23.5t-28 -9zM321 584q0 -1 -0.5 1t-1 3.5l-0.5 1.5z" />
    <glyph glyph-name="at" unicode="@" horiz-adv-x="656" 
d="M310 453q16 0 27 -6q12 4 28 0q5 -4 9 -7l8 -6q2 1 4.5 2t5.5 1q7 10 17.5 14.5t21 2.5t19.5 -10t13 -23q0 -27 -2.5 -54t-4 -53.5t-0.5 -53t7 -53.5l26 -61q23 22 36.5 53t19.5 63.5t6 62t-4 49.5q-8 48 -24 76.5t-32.5 45.5t-30 25.5t-17.5 15.5q-14 11 -28.5 20
t-35.5 14.5t-52 5t-79 -9.5q-20 -11 -35.5 -18t-28.5 -15q-15 -17 -25 -32q-32 -51 -49 -120t-17 -141q3 -32 9 -64t17 -61q23 -60 58.5 -98t95.5 -57q19 -6 37 -2.5t34 12t30.5 19.5t26.5 20q15 11 26.5 14.5t28.5 7.5q17 1 28 -6.5t16 -18.5q6 -43 -11 -73t-49 -47.5
t-73 -23t-82 0.5t-78 22.5t-60 44.5q-49 60 -74.5 124t-29.5 145q-8 55 -4.5 106t17.5 92q8 21 15 41.5t15 40.5t22 36.5t27 33.5q4 5 9.5 9.5t11.5 9.5t12.5 10.5t13.5 10.5q49 39 101 49.5t101 -0.5t92 -41.5t75 -73.5t50 -95.5t17 -108t-24.5 -111.5t-74.5 -105
q-11 -14 -30 -21.5t-37 -2.5q-20 5 -34 15t-25 24q-10 -17 -24.5 -31.5t-32.5 -21.5q-12 -5 -25.5 -2t-26.5 4q-16 1 -32 11t-25 23q-8 12 -16.5 23t-12.5 25q-9 32 -14.5 73t-1 81.5t21.5 75t52 54.5q13 7 26.5 10.5t27.5 8.5zM361 177q0 3 2 7q-7 28 -9 57
q-2 25 -0.5 50.5t3.5 50.5q-11 21 -28 33l-18 -2t-18 -5q-27 -13 -42.5 -51t-17 -81t12 -80t44.5 -48q16 -6 28.5 0t21 17.5t13.5 26t8 25.5z" />
    <glyph glyph-name="dollar" unicode="$" horiz-adv-x="467" 
d="M353 361q52 -41 71.5 -88.5t15 -94t-29 -88.5t-60.5 -70q-10 -9 -23.5 -11.5t-26.5 -6.5q-7 -2 -13 -3t-13 -3q-7 -34 -17 -52.5t-20.5 -19t-19.5 17.5t-15 57q-27 6 -52.5 18t-47 29.5t-37.5 39.5t-23 47q-8 11 -8 23q-11 38 -12.5 76t11.5 63q17 20 37 18
q20 7 34.5 -2.5t18.5 -25.5q1 -2 2 -4.5t2 -5.5q0 -23 2.5 -45t4.5 -45q8 -29 24 -48t39 -25v7q1 9 1.5 32t1.5 56t1.5 75t0.5 88q-18 13 -37.5 28.5t-42.5 37.5l-42 31q-17 18 -26 32t-13 25t-5 19.5t-1 16.5q0 24 7 48t25.5 44.5t51 34.5t83.5 19q1 31 11.5 46t23.5 14
t24 -16t14 -43q16 -1 33.5 -3t33.5 -6.5t29.5 -11.5t21.5 -18q4 -5 9.5 -15t9.5 -21t6 -21t-1 -16q-11 -22 -25 -26.5t-28.5 -0.5t-26.5 12t-19 11q-8 4 -17 7.5t-18 6.5q2 -42 -0.5 -83.5t-5.5 -86.5q22 -18 40.5 -36t35.5 -38zM169 514q8 -6 15.5 -11.5t15.5 -10.5
q-1 28 -1.5 55.5t-1.5 53.5q-1 4 -1 8v9q-16 -2 -28 -6q-30 -11 -33.5 -36t34.5 -62zM320 206q-7 40 -18.5 63t-30.5 43q-1 -74 3 -115t7 -62q9 8 17 17.5t13 18.5q9 19 9 35zM132 192q-2 6 -2 8t0.5 -0.5z" />
    <glyph glyph-name="quotedblbase" unicode="&#x201e;" horiz-adv-x="280" 
d="M136.197 70.8955q-6.94824 -29.2109 -16.6768 -63.29t-29.1855 -65.377q-6.94824 -9.73633 -11.1182 -14.6055q-4.16895 -4.86816 -4.86426 -5.56348q-4.86426 -6.95508 -10.4229 -8.69336q-5.55957 -1.73926 -11.4658 -0.348633q-5.90625 1.3916 -11.8135 4.86914
q-5.90625 3.47754 -10.7705 6.95508q1.38965 -1.3916 1.04297 -1.3916q-0.347656 0 -1.04297 1.3916q-6.25391 8.3457 -5.90625 17.3867q0.347656 9.04199 4.86426 15.3008q4.5166 6.25977 12.5078 9.38965t17.7197 0.347656l4.16895 -1.39062l0.695312 -0.696289
q6.94824 6.95508 9.38086 13.9102q2.43164 6.95508 1.7373 14.6055q-0.695312 7.65039 -3.12695 15.6484q-2.43262 7.99902 -5.21191 17.7354q-8.33887 2.78223 -12.5078 8.3457q-4.16992 5.56445 -5.55957 12.5195q-8.33789 9.04102 -7.64355 19.4736
q0.695312 10.4326 8.33887 17.3877q-2.08496 5.56348 -1.38965 11.1279q0.694336 5.56348 5.55859 10.084q4.86426 4.52148 14.5928 7.99902t26.4053 5.56348q18.7627 0.695312 29.5332 -9.38867q10.7705 -10.085 12.1602 -39.2959zM258.197 70.8955
q-6.94824 -29.2109 -16.6768 -63.29t-29.1855 -65.377q-6.94824 -9.73633 -11.1182 -14.6055q-4.16895 -4.86816 -4.86426 -5.56348q-4.86426 -6.95508 -10.4229 -8.69336q-5.55957 -1.73926 -11.4658 -0.348633q-5.90625 1.3916 -11.8135 4.86914
q-5.90625 3.47754 -10.7705 6.95508q1.38965 -1.3916 1.04297 -1.3916q-0.347656 0 -1.04297 1.3916q-6.25391 8.3457 -5.90625 17.3867q0.347656 9.04199 4.86426 15.3008q4.5166 6.25977 12.5078 9.38965t17.7197 0.347656l4.16895 -1.39062l0.695312 -0.696289
q6.94824 6.95508 9.38086 13.9102q2.43164 6.95508 1.7373 14.6055q-0.695312 7.65039 -3.12695 15.6484q-2.43262 7.99902 -5.21191 17.7354q-8.33887 2.78223 -12.5078 8.3457q-4.16992 5.56445 -5.55957 12.5195q-8.33789 9.04102 -7.64355 19.4736
q0.695312 10.4326 8.33887 17.3877q-2.08496 5.56348 -1.38965 11.1279q0.694336 5.56348 5.55859 10.084q4.86426 4.52148 14.5928 7.99902t26.4053 5.56348q18.7627 0.695312 29.5332 -9.38867q10.7705 -10.085 12.1602 -39.2959z" />
    <glyph glyph-name="question" unicode="?" horiz-adv-x="462" 
d="M161 106q-28 3 -35 16.5t1 43.5q2 21 4 50.5t5.5 58.5t9 53.5t14.5 34.5q21 16 42.5 28t42.5 25t39 30t31 44q4 16 4 32t-5.5 30t-18 24.5t-31.5 15.5l-12 3h-5q-19 -1 -36 -5t-34 -12q-2 -2 -4 -3.5t-4 -3.5q-3 -2 -4 -4l-39 -37q-5 -6 -13.5 -13t-19 -12.5t-23.5 -7
t-28 4.5q-12 6 -16 17.5t-2.5 24.5t7 26.5t12.5 23.5q19 29 36.5 49t39.5 32t50.5 17t68.5 5q88 0 133.5 -45.5t48.5 -128.5q1 -32 -9.5 -58.5t-28.5 -48.5t-40.5 -39.5t-45.5 -32.5t-43.5 -28t-33.5 -25q3 -48 3 -78.5t-2 -49t-4.5 -29.5t-3.5 -21q-11 -3 -24 -4.5
t-27 -2.5zM162 -22q-32 -2 -44.5 11.5t-12.5 32.5q0 7 1.5 16t9 18t22.5 15t42 7q20 -4 32.5 -15t12.5 -28q0 -8 -1.5 -17t-7.5 -17t-19 -14.5t-35 -8.5zM168 572q1 1 1.5 1t1.5 1q-2 -1 -3.5 -2t0.5 0z" />
    <glyph glyph-name="quotesinglbase" unicode="&#x201a;" horiz-adv-x="166" 
d="M136.197 70.8955q-6.94824 -29.2109 -16.6768 -63.29t-29.1855 -65.377q-6.94824 -9.73633 -11.1182 -14.6055q-4.16895 -4.86816 -4.86426 -5.56348q-4.86426 -6.95508 -10.4229 -8.69336q-5.55957 -1.73926 -11.4658 -0.348633q-5.90625 1.3916 -11.8135 4.86914
q-5.90625 3.47754 -10.7705 6.95508q1.38965 -1.3916 1.04297 -1.3916q-0.347656 0 -1.04297 1.3916q-6.25391 8.3457 -5.90625 17.3867q0.347656 9.04199 4.86426 15.3008q4.5166 6.25977 12.5078 9.38965t17.7197 0.347656l4.16895 -1.39062l0.695312 -0.696289
q6.94824 6.95508 9.38086 13.9102q2.43164 6.95508 1.7373 14.6055q-0.695312 7.65039 -3.12695 15.6484q-2.43262 7.99902 -5.21191 17.7354q-8.33887 2.78223 -12.5078 8.3457q-4.16992 5.56445 -5.55957 12.5195q-8.33789 9.04102 -7.64355 19.4736
q0.695312 10.4326 8.33887 17.3877q-2.08496 5.56348 -1.38965 11.1279q0.694336 5.56348 5.55859 10.084q4.86426 4.52148 14.5928 7.99902t26.4053 5.56348q18.7627 0.695312 29.5332 -9.38867q10.7705 -10.085 12.1602 -39.2959z" />
    <glyph glyph-name="asciitilde" unicode="~" horiz-adv-x="623" 
d="M81 171q-21 1 -34 8t-18 16.5t-2 19t14 17.5q0 1 1 2q12 8 34 18.5t48 19.5t52.5 15t47.5 4q32 -3 51.5 -9.5t34.5 -15.5t30.5 -19t41.5 -20q9 -3 24.5 -2t34 8t37.5 20t34 33q21 12 39.5 9.5t30 -14t11.5 -27t-16 -28.5q-16 -9 -36 -21.5t-43.5 -22.5t-50 -14t-54.5 4
q-20 6 -41.5 19t-42.5 26t-42 21t-40 4q-24 -5 -41 -16.5t-33 -24t-32.5 -22t-39.5 -8.5zM440 231q-2 5 -2.5 5.5t0.5 -1t1.5 -3.5t0.5 -1z" />
    <glyph glyph-name="circumflex" unicode="&#x2c6;" 
d="M195 534q-12 -14 -28 -16t-29 4t-18.5 19t3.5 28q14 23 32 30.5t41 16.5q31 21 47.5 39t30 25.5t31 1.5t52.5 -33q15 -16 34 -24t40 -11q21 -23 19.5 -40t-15.5 -25t-36.5 -5t-41.5 20q-18 17 -33.5 38t-33.5 39z" />
    <glyph glyph-name="grave" unicode="`" horiz-adv-x="368" 
d="M248 541q-12 4 -33.5 15.5t-44 27.5t-42 34.5t-29 36.5t-4 33t33.5 25q18 4 32 -0.5t25.5 -14t21 -21.5t17.5 -24q1 -2 10 -16t18.5 -30.5t17.5 -30.5t8 -16q-1 -14 -9.5 -20t-21.5 1z" />
    <glyph glyph-name="acute" unicode="&#xb4;" horiz-adv-x="313" 
d="M89.0156 541q11.999 4 33.4971 15.5q21.499 11.5 43.998 27.5q22.498 16 41.9971 34.5t28.998 36.5q9.5 18 4 33t-33.498 25q-17.999 4 -31.998 -0.5t-25.498 -14q-11.5 -9.5 -20.999 -21.5t-17.499 -24q-1 -2 -9.99902 -16q-9 -14 -18.499 -30.5
q-9.5 -16.5 -17.499 -30.5q-8 -14 -8 -16q1 -14 9.5 -20q8.49902 -6 21.499 1z" />
    <glyph glyph-name="exclamdown" unicode="&#xa1;" horiz-adv-x="227" 
d="M126.006 640.999q31.998 1.99902 44.498 -11.5q12.499 -13.499 12.499 -32.498q0 -6.99902 -1.5 -15.999q-1.5 -8.99902 -9 -17.998q-7.49902 -9 -22.498 -15q-14.999 -5.99902 -41.9971 -6.99902q-19.999 4 -32.498 14.999q-12.5 10.999 -12.5 27.998q0 8 1.5 16.999
q1.5 9 7.5 16.999q5.99902 8 18.999 14.499q12.999 6.5 34.9971 8.5zM173.003 25.0361q-2.99902 -14.999 -12.999 -24.498q-9.99902 -9.5 -22.998 -12q-13 -2.49902 -24.999 1.5q-11.999 4 -19.999 14.999q-10.999 2 -20.498 10q-9.5 7.99902 -14.499 22.998
q2.99902 84.9951 2 167.99q-1 82.9951 5.99902 167.989q2 17.999 2 34.498t2 31.998t8.49902 29.498q6.5 13.999 21.499 26.999q5 3.99902 18.499 3.99902t19.499 4q20.998 -8.99902 28.998 -25.498q7.99902 -16.499 9.99902 -35.998t-0.5 -40.4971
q-2.5 -20.999 -2.5 -39.998q-2.99902 -84.9951 -3.49902 -168.989q-0.5 -83.9951 3.49902 -168.99z" />
    <glyph glyph-name="questiondown" unicode="&#xbf;" horiz-adv-x="462" 
d="M305.01 417.007q27.998 -3 34.998 -16.499q6.99902 -13.5 -1 -43.498q-2 -20.998 -4 -50.4961q-2 -29.499 -5.49902 -58.4971q-3.5 -28.998 -9 -53.4961q-5.5 -24.499 -14.499 -34.498q-20.999 -15.999 -42.4971 -27.999q-21.499 -11.999 -42.498 -24.998
q-20.998 -12.999 -38.9971 -29.998t-30.998 -43.9971q-4 -15.999 -4 -31.998t5.5 -29.999q5.49902 -13.999 17.998 -24.498q12.5 -10.499 31.498 -15.499l12 -3h4.99902q18.999 1 35.998 5t33.998 11.999q2 2 4 3.5t4 3.5q2.99902 2 3.99902 3.99902l38.998 36.998
q5 6 13.499 12.999q8.49902 7 18.999 12.5q10.499 5.49902 23.498 6.99902q13 1.5 27.999 -4.5q11.999 -5.99902 15.999 -17.499q3.99902 -11.499 2.49902 -24.498q-1.49902 -12.999 -6.99902 -26.498q-5.5 -13.5 -12.499 -23.499q-18.999 -28.998 -36.498 -48.9971
t-39.498 -31.998q-21.998 -11.999 -50.4961 -16.999q-28.499 -4.99902 -68.4961 -4.99902q-87.9951 0 -133.492 45.4971t-48.4971 128.492q-1 31.998 9.5 58.4961q10.499 26.498 28.498 48.4971t40.4971 39.498q22.499 17.498 45.4971 32.498q22.999 14.999 43.498 27.998
q20.498 12.999 33.498 24.998q-3 47.9971 -3 78.4951t2 48.9971t4.49902 29.498q2.5 11 3.5 20.999q11 3 23.999 4.5t26.998 2.5zM304.01 544.999q31.998 1.99902 44.4971 -11.5q12.5 -13.499 12.5 -32.498q0 -6.99902 -1.5 -15.999q-1.5 -8.99902 -9 -17.998
q-7.49902 -9 -22.498 -15q-14.999 -5.99902 -41.998 -6.99902q-19.999 4 -32.498 14.999t-12.499 27.998q0 8 1.5 16.999q1.5 9 7.5 16.999q5.99902 8 18.998 14.499q13 6.5 34.998 8.5zM298.01 -48.9648q-0.999023 -1 -1.49902 -1t-1.5 -1q2 1 3.49902 2q1.5 1 -0.5 0z" />
    <glyph glyph-name="Agrave" unicode="&#xc0;" horiz-adv-x="681" 
d="M417 186q-12 20 -27 27t-34.5 6t-45 -7.5t-58.5 -13.5q-23 -22 -39.5 -52.5t-32 -60.5t-33 -56t-44.5 -39q-16 -20 -38.5 -15.5t-29.5 27.5q-13 5 -20 18t-3 32q67 64 110 140t75.5 158t60.5 166.5t64 165.5q0 3 1 5.5t2 6.5l1 -1q5 6 12 8.5t12.5 0.5t9.5 -7.5t3 -14.5
q0 -1 -1 -1q10 -8 17 -26q11 -81 34.5 -163.5t58 -161.5t79 -152t97.5 -135q17 -12 20 -27.5t-4 -28t-22 -17.5t-34 4q-18 13 -38 27.5t-43.5 37.5t-50.5 58t-59 91zM338 489q-10 -33 -17 -61t-15 -54t-17.5 -50.5t-23.5 -48.5q23 2 52.5 5.5t57.5 14.5q-10 21 -15 43t-8 46
t-5.5 50t-8.5 55zM440 741q-12 4 -33.5 15.5t-44 27.5t-42 34.5t-29 36.5t-4 33t33.5 25q18 4 32 -0.5t25.5 -14t21 -21.5t17.5 -24q1 -2 10 -16t18.5 -30.5t17.5 -30.5t8 -16q-1 -14 -9.5 -20t-21.5 1z" />
    <glyph glyph-name="Aacute" unicode="&#xc1;" horiz-adv-x="681" 
d="M417 186q-12 20 -27 27t-34.5 6t-45 -7.5t-58.5 -13.5q-23 -22 -39.5 -52.5t-32 -60.5t-33 -56t-44.5 -39q-16 -20 -38.5 -15.5t-29.5 27.5q-13 5 -20 18t-3 32q67 64 110 140t75.5 158t60.5 166.5t64 165.5q0 3 1 5.5t2 6.5l1 -1q5 6 12 8.5t12.5 0.5t9.5 -7.5t3 -14.5
q0 -1 -1 -1q10 -8 17 -26q11 -81 34.5 -163.5t58 -161.5t79 -152t97.5 -135q17 -12 20 -27.5t-4 -28t-22 -17.5t-34 4q-18 13 -38 27.5t-43.5 37.5t-50.5 58t-59 91zM338 489q-10 -33 -17 -61t-15 -54t-17.5 -50.5t-23.5 -48.5q23 2 52.5 5.5t57.5 14.5q-10 21 -15 43t-8 46
t-5.5 50t-8.5 55zM268.016 741q11.999 4 33.4971 15.5q21.499 11.5 43.998 27.5q22.498 16 41.9971 34.5t28.998 36.5q9.5 18 4 33t-33.498 25q-17.999 4 -31.998 -0.5t-25.498 -14q-11.5 -9.5 -20.999 -21.5t-17.499 -24q-1 -2 -9.99902 -16q-9 -14 -18.499 -30.5
q-9.5 -16.5 -17.499 -30.5q-8 -14 -8 -16q1 -14 9.5 -20q8.49902 -6 21.499 1z" />
    <glyph glyph-name="Acircumflex" unicode="&#xc2;" horiz-adv-x="681" 
d="M417 186q-12 20 -27 27t-34.5 6t-45 -7.5t-58.5 -13.5q-23 -22 -39.5 -52.5t-32 -60.5t-33 -56t-44.5 -39q-16 -20 -38.5 -15.5t-29.5 27.5q-13 5 -20 18t-3 32q67 64 110 140t75.5 158t60.5 166.5t64 165.5q0 3 1 5.5t2 6.5l1 -1q5 6 12 8.5t12.5 0.5t9.5 -7.5t3 -14.5
q0 -1 -1 -1q10 -8 17 -26q11 -81 34.5 -163.5t58 -161.5t79 -152t97.5 -135q17 -12 20 -27.5t-4 -28t-22 -17.5t-34 4q-18 13 -38 27.5t-43.5 37.5t-50.5 58t-59 91zM338 489q-10 -33 -17 -61t-15 -54t-17.5 -50.5t-23.5 -48.5q23 2 52.5 5.5t57.5 14.5q-10 21 -15 43t-8 46
t-5.5 50t-8.5 55zM242 734q-12 -14 -28 -16t-29 4t-18.5 19t3.5 28q14 23 32 30.5t41 16.5q31 21 47.5 39t30 25.5t31 1.5t52.5 -33q15 -16 34 -24t40 -11q21 -23 19.5 -40t-15.5 -25t-36.5 -5t-41.5 20q-18 17 -33.5 38t-33.5 39z" />
    <glyph glyph-name="Atilde" unicode="&#xc3;" horiz-adv-x="681" 
d="M417 186q-12 20 -27 27t-34.5 6t-45 -7.5t-58.5 -13.5q-23 -22 -39.5 -52.5t-32 -60.5t-33 -56t-44.5 -39q-16 -20 -38.5 -15.5t-29.5 27.5q-13 5 -20 18t-3 32q67 64 110 140t75.5 158t60.5 166.5t64 165.5q0 3 1 5.5t2 6.5l1 -1q5 6 12 8.5t12.5 0.5t9.5 -7.5t3 -14.5
q0 -1 -1 -1q10 -8 17 -26q11 -81 34.5 -163.5t58 -161.5t79 -152t97.5 -135q17 -12 20 -27.5t-4 -28t-22 -17.5t-34 4q-18 13 -38 27.5t-43.5 37.5t-50.5 58t-59 91zM338 489q-10 -33 -17 -61t-15 -54t-17.5 -50.5t-23.5 -48.5q23 2 52.5 5.5t57.5 14.5q-10 21 -15 43t-8 46
t-5.5 50t-8.5 55zM170 720q-15 1 -24.5 8.5t-13 17.5t-1.5 20.5t10 18.5q0 1 1 2q8 9 24 20.5t34.5 21t38 16t34.5 4.5q23 -3 37 -10t25 -17t22.5 -21t29.5 -21q6 -3 17.5 -2t25 8.5t27 21.5t24.5 36q15 13 28.5 10t22 -15t8.5 -29t-12 -31q-11 -9 -25.5 -23t-31.5 -24.5
t-36 -15t-40 4.5q-15 6 -30 20.5t-30.5 28t-30.5 22t-29 4.5q-17 -5 -29.5 -17.5t-24 -26t-23.5 -23.5t-28 -9zM429 784q0 -1 -0.5 1t-1 3.5l-0.5 1.5z" />
    <glyph glyph-name="dieresis" unicode="&#xa8;" horiz-adv-x="219" 
d="M75 642q31 24 49 21t24.5 -21t4 -43.5t-12.5 -46.5t-25 -31t-33 5q-7 4 -9 8q-2 2 -4.5 3t-4.5 3q-11 9 -18.5 26.5t-8 35t8 30t29.5 10.5zM253 642q31 24 49 21t24.5 -21t4 -43.5t-12.5 -46.5t-25 -31t-33 5q-7 4 -9 8q-2 2 -4.5 3t-4.5 3q-11 9 -18.5 26.5t-8 35t8 30
t29.5 10.5z" />
    <glyph glyph-name="Adieresis" unicode="&#xc4;" horiz-adv-x="681" 
d="M417 186q-12 20 -27 27t-34.5 6t-45 -7.5t-58.5 -13.5q-23 -22 -39.5 -52.5t-32 -60.5t-33 -56t-44.5 -39q-16 -20 -38.5 -15.5t-29.5 27.5q-13 5 -20 18t-3 32q67 64 110 140t75.5 158t60.5 166.5t64 165.5q0 3 1 5.5t2 6.5l1 -1q5 6 12 8.5t12.5 0.5t9.5 -7.5t3 -14.5
q0 -1 -1 -1q10 -8 17 -26q11 -81 34.5 -163.5t58 -161.5t79 -152t97.5 -135q17 -12 20 -27.5t-4 -28t-22 -17.5t-34 4q-18 13 -38 27.5t-43.5 37.5t-50.5 58t-59 91zM338 489q-10 -33 -17 -61t-15 -54t-17.5 -50.5t-23.5 -48.5q23 2 52.5 5.5t57.5 14.5q-10 21 -15 43t-8 46
t-5.5 50t-8.5 55zM217 842q31 24 49 21t24.5 -21t4 -43.5t-12.5 -46.5t-25 -31t-33 5q-7 4 -9 8q-2 2 -4.5 3t-4.5 3q-11 9 -18.5 26.5t-8 35t8 30t29.5 10.5zM395 842q31 24 49 21t24.5 -21t4 -43.5t-12.5 -46.5t-25 -31t-33 5q-7 4 -9 8q-2 2 -4.5 3t-4.5 3
q-11 9 -18.5 26.5t-8 35t8 30t29.5 10.5z" />
    <glyph glyph-name="Egrave" unicode="&#xc8;" horiz-adv-x="532" 
d="M33 3q-14 238 -5.5 415.5t31.5 277.5l397 11q23 -2 36 -20t15.5 -38.5t-5.5 -37t-26 -16.5q-40 -5 -77.5 -5.5t-76.5 1t-80.5 3.5t-89.5 4q4 -8 3 -30.5t-3 -51t-4 -59t0 -55.5q33 -2 61 -2t53.5 0.5t51 0t55.5 -3.5q22 -4 30 -20.5t5.5 -34.5t-13.5 -31.5t-27 -10.5
q-26 -4 -58.5 -3.5t-64.5 1.5t-59 0.5t-41 -5.5q-4 -38 -5 -80.5t-6 -90.5q0 -3 -2 -9q2 0 3 -1q42 -4 75.5 -5.5t65 -1.5t62.5 1.5t68 4.5q44 4 62 0.5t23.5 -13.5t6 -27t9.5 -40q0 -21 -20 -25q-31 -6 -66.5 -6.5t-66.5 -1.5q-34 0 -75 1t-83.5 2t-83.5 2t-75 0zM326 741
q-12 4 -33.5 15.5t-44 27.5t-42 34.5t-29 36.5t-4 33t33.5 25q18 4 32 -0.5t25.5 -14t21 -21.5t17.5 -24q1 -2 10 -16t18.5 -30.5t17.5 -30.5t8 -16q-1 -14 -9.5 -20t-21.5 1z" />
    <glyph glyph-name="Eacute" unicode="&#xc9;" horiz-adv-x="532" 
d="M33 3q-14 238 -5.5 415.5t31.5 277.5l397 11q23 -2 36 -20t15.5 -38.5t-5.5 -37t-26 -16.5q-40 -5 -77.5 -5.5t-76.5 1t-80.5 3.5t-89.5 4q4 -8 3 -30.5t-3 -51t-4 -59t0 -55.5q33 -2 61 -2t53.5 0.5t51 0t55.5 -3.5q22 -4 30 -20.5t5.5 -34.5t-13.5 -31.5t-27 -10.5
q-26 -4 -58.5 -3.5t-64.5 1.5t-59 0.5t-41 -5.5q-4 -38 -5 -80.5t-6 -90.5q0 -3 -2 -9q2 0 3 -1q42 -4 75.5 -5.5t65 -1.5t62.5 1.5t68 4.5q44 4 62 0.5t23.5 -13.5t6 -27t9.5 -40q0 -21 -20 -25q-31 -6 -66.5 -6.5t-66.5 -1.5q-34 0 -75 1t-83.5 2t-83.5 2t-75 0z
M274.016 741q11.999 4 33.4971 15.5q21.499 11.5 43.998 27.5q22.498 16 41.9971 34.5t28.998 36.5q9.5 18 4 33t-33.498 25q-17.999 4 -31.998 -0.5t-25.498 -14q-11.5 -9.5 -20.999 -21.5t-17.499 -24q-1 -2 -9.99902 -16q-9 -14 -18.499 -30.5q-9.5 -16.5 -17.499 -30.5
q-8 -14 -8 -16q1 -14 9.5 -20q8.49902 -6 21.499 1z" />
    <glyph glyph-name="Ecircumflex" unicode="&#xca;" horiz-adv-x="532" 
d="M33 3q-14 238 -5.5 415.5t31.5 277.5l397 11q23 -2 36 -20t15.5 -38.5t-5.5 -37t-26 -16.5q-40 -5 -77.5 -5.5t-76.5 1t-80.5 3.5t-89.5 4q4 -8 3 -30.5t-3 -51t-4 -59t0 -55.5q33 -2 61 -2t53.5 0.5t51 0t55.5 -3.5q22 -4 30 -20.5t5.5 -34.5t-13.5 -31.5t-27 -10.5
q-26 -4 -58.5 -3.5t-64.5 1.5t-59 0.5t-41 -5.5q-4 -38 -5 -80.5t-6 -90.5q0 -3 -2 -9q2 0 3 -1q42 -4 75.5 -5.5t65 -1.5t62.5 1.5t68 4.5q44 4 62 0.5t23.5 -13.5t6 -27t9.5 -40q0 -21 -20 -25q-31 -6 -66.5 -6.5t-66.5 -1.5q-34 0 -75 1t-83.5 2t-83.5 2t-75 0zM169 752
q-12 -14 -28 -16t-29 4t-18.5 19t3.5 28q14 23 32 30.5t41 16.5q31 21 47.5 39t30 25.5t31 1.5t52.5 -33q15 -16 34 -24t40 -11q21 -23 19.5 -40t-15.5 -25t-36.5 -5t-41.5 20q-18 17 -33.5 38t-33.5 39z" />
    <glyph glyph-name="Edieresis" unicode="&#xcb;" horiz-adv-x="532" 
d="M33 3q-14 238 -5.5 415.5t31.5 277.5l397 11q23 -2 36 -20t15.5 -38.5t-5.5 -37t-26 -16.5q-40 -5 -77.5 -5.5t-76.5 1t-80.5 3.5t-89.5 4q4 -8 3 -30.5t-3 -51t-4 -59t0 -55.5q33 -2 61 -2t53.5 0.5t51 0t55.5 -3.5q22 -4 30 -20.5t5.5 -34.5t-13.5 -31.5t-27 -10.5
q-26 -4 -58.5 -3.5t-64.5 1.5t-59 0.5t-41 -5.5q-4 -38 -5 -80.5t-6 -90.5q0 -3 -2 -9q2 0 3 -1q42 -4 75.5 -5.5t65 -1.5t62.5 1.5t68 4.5q44 4 62 0.5t23.5 -13.5t6 -27t9.5 -40q0 -21 -20 -25q-31 -6 -66.5 -6.5t-66.5 -1.5q-34 0 -75 1t-83.5 2t-83.5 2t-75 0zM143 862
q31 24 49 21t24.5 -21t4 -43.5t-12.5 -46.5t-25 -31t-33 5q-7 4 -9 8q-2 2 -4.5 3t-4.5 3q-11 9 -18.5 26.5t-8 35t8 30t29.5 10.5zM321 862q31 24 49 21t24.5 -21t4 -43.5t-12.5 -46.5t-25 -31t-33 5q-7 4 -9 8q-2 2 -4.5 3t-4.5 3q-11 9 -18.5 26.5t-8 35t8 30t29.5 10.5z
" />
    <glyph glyph-name="Igrave" unicode="&#xcc;" horiz-adv-x="202" 
d="M69 3q-3 77 -11 167t-14 183t-6 182.5t12 166.5q7 10 25.5 14.5t38.5 4.5t36.5 -2.5t19.5 -4.5q-8 -72 -7 -158t2.5 -178.5t0 -185.5t-12.5 -178q-1 -9 -14 -17.5t-28 -12.5t-28 -0.5t-14 19.5zM202 741q-12 4 -33.5 15.5t-44 27.5t-42 34.5t-29 36.5t-4 33t33.5 25
q18 4 32 -0.5t25.5 -14t21 -21.5t17.5 -24q1 -2 10 -16t18.5 -30.5t17.5 -30.5t8 -16q-1 -14 -9.5 -20t-21.5 1z" />
    <glyph glyph-name="Iacute" unicode="&#xcd;" horiz-adv-x="202" 
d="M69 3q-3 77 -11 167t-14 183t-6 182.5t12 166.5q7 10 25.5 14.5t38.5 4.5t36.5 -2.5t19.5 -4.5q-8 -72 -7 -158t2.5 -178.5t0 -185.5t-12.5 -178q-1 -9 -14 -17.5t-28 -12.5t-28 -0.5t-14 19.5zM109.016 741q11.999 4 33.4971 15.5q21.499 11.5 43.998 27.5
q22.498 16 41.9971 34.5t28.998 36.5q9.5 18 4 33t-33.498 25q-17.999 4 -31.998 -0.5t-25.498 -14q-11.5 -9.5 -20.999 -21.5t-17.499 -24q-1 -2 -9.99902 -16q-9 -14 -18.499 -30.5q-9.5 -16.5 -17.499 -30.5q-8 -14 -8 -16q1 -14 9.5 -20q8.49902 -6 21.499 1z" />
    <glyph glyph-name="Icircumflex" unicode="&#xce;" horiz-adv-x="202" 
d="M69 3q-3 77 -11 167t-14 183t-6 182.5t12 166.5q7 10 25.5 14.5t38.5 4.5t36.5 -2.5t19.5 -4.5q-8 -72 -7 -158t2.5 -178.5t0 -185.5t-12.5 -178q-1 -9 -14 -17.5t-28 -12.5t-28 -0.5t-14 19.5zM4 734q-12 -14 -28 -16t-29 4t-18.5 19t3.5 28q14 23 32 30.5t41 16.5
q31 21 47.5 39t30 25.5t31 1.5t52.5 -33q15 -16 34 -24t40 -11q21 -23 19.5 -40t-15.5 -25t-36.5 -5t-41.5 20q-18 17 -33.5 38t-33.5 39z" />
    <glyph glyph-name="Idieresis" unicode="&#xcf;" horiz-adv-x="202" 
d="M69 3q-3 77 -11 167t-14 183t-6 182.5t12 166.5q7 10 25.5 14.5t38.5 4.5t36.5 -2.5t19.5 -4.5q-8 -72 -7 -158t2.5 -178.5t0 -185.5t-12.5 -178q-1 -9 -14 -17.5t-28 -12.5t-28 -0.5t-14 19.5zM-21 842q31 24 49 21t24.5 -21t4 -43.5t-12.5 -46.5t-25 -31t-33 5
q-7 4 -9 8q-2 2 -4.5 3t-4.5 3q-11 9 -18.5 26.5t-8 35t8 30t29.5 10.5zM157 842q31 24 49 21t24.5 -21t4 -43.5t-12.5 -46.5t-25 -31t-33 5q-7 4 -9 8q-2 2 -4.5 3t-4.5 3q-11 9 -18.5 26.5t-8 35t8 30t29.5 10.5z" />
    <glyph glyph-name="Ntilde" unicode="&#xd1;" horiz-adv-x="563" 
d="M501 73q3 -17 -3.5 -34t-19 -28.5t-30 -15.5t-35.5 6q-6 4 -20 31t-32.5 68t-40.5 92.5t-43.5 104.5t-42 103t-36.5 88.5t-26 61.5t-11 22q0 -69 3 -125t5.5 -110t3 -111t-3.5 -128q-2 -36 -10 -64t-23.5 -41.5t-39.5 -10.5t-60 29q15 76 19 156t4 160.5t-1 160.5t4 158
q1 29 13 43t28.5 17.5t34 0t30.5 -9.5q14 -1 20 -9t11 -15q26 -61 47 -110.5t40 -93.5t38 -86.5t41 -88.5q4 -10 8.5 -19.5t8.5 -18.5q9 43 6.5 98t-6.5 111t-4 109t13 92q9 27 35 40t80 5q1 -9 -1.5 -46t-6.5 -91.5t-7 -121.5t-4 -135t2 -131.5t12 -112.5zM111 720
q-15 1 -24.5 8.5t-13 17.5t-1.5 20.5t10 18.5q0 1 1 2q8 9 24 20.5t34.5 21t38 16t34.5 4.5q23 -3 37 -10t25 -17t22.5 -21t29.5 -21q6 -3 17.5 -2t25 8.5t27 21.5t24.5 36q15 13 28.5 10t22 -15t8.5 -29t-12 -31q-11 -9 -25.5 -23t-31.5 -24.5t-36 -15t-40 4.5
q-15 6 -30 20.5t-30.5 28t-30.5 22t-29 4.5q-17 -5 -29.5 -17.5t-24 -26t-23.5 -23.5t-28 -9zM370 784q0 -1 -0.5 1t-1 3.5l-0.5 1.5z" />
    <glyph glyph-name="Ograve" unicode="&#xd2;" horiz-adv-x="530" 
d="M18 348q4 79 12 135.5t20.5 95.5t30 63.5t41 38.5t53.5 20.5t67 9.5q76 0 129.5 -41.5t86 -106t45 -143.5t6.5 -155.5t-29 -140.5t-62 -99q-19 -18 -49.5 -27t-64 -11.5t-66 0.5t-55.5 9q-46 13 -75.5 35.5t-47 51.5t-26 62.5t-11.5 68.5t-3 69.5t-2 64.5zM255 76
q24 3 42 17t31 33.5t22 42t16 42.5q6 18 9 54.5t2.5 81.5t-6 93t-16.5 87t-28 64.5t-42 26.5q-51 1 -85 -22t-53.5 -62t-26 -88.5t-3 -101.5t16 -101.5t31 -87.5t42 -60t48.5 -19zM364 741q-12 4 -33.5 15.5t-44 27.5t-42 34.5t-29 36.5t-4 33t33.5 25q18 4 32 -0.5
t25.5 -14t21 -21.5t17.5 -24q1 -2 10 -16t18.5 -30.5t17.5 -30.5t8 -16q-1 -14 -9.5 -20t-21.5 1z" />
    <glyph glyph-name="Oacute" unicode="&#xd3;" horiz-adv-x="530" 
d="M18 348q4 79 12 135.5t20.5 95.5t30 63.5t41 38.5t53.5 20.5t67 9.5q76 0 129.5 -41.5t86 -106t45 -143.5t6.5 -155.5t-29 -140.5t-62 -99q-19 -18 -49.5 -27t-64 -11.5t-66 0.5t-55.5 9q-46 13 -75.5 35.5t-47 51.5t-26 62.5t-11.5 68.5t-3 69.5t-2 64.5zM255 76
q24 3 42 17t31 33.5t22 42t16 42.5q6 18 9 54.5t2.5 81.5t-6 93t-16.5 87t-28 64.5t-42 26.5q-51 1 -85 -22t-53.5 -62t-26 -88.5t-3 -101.5t16 -101.5t31 -87.5t42 -60t48.5 -19zM312.016 741q11.999 4 33.4971 15.5q21.499 11.5 43.998 27.5q22.498 16 41.9971 34.5
t28.998 36.5q9.5 18 4 33t-33.498 25q-17.999 4 -31.998 -0.5t-25.498 -14q-11.5 -9.5 -20.999 -21.5t-17.499 -24q-1 -2 -9.99902 -16q-9 -14 -18.499 -30.5q-9.5 -16.5 -17.499 -30.5q-8 -14 -8 -16q1 -14 9.5 -20q8.49902 -6 21.499 1z" />
    <glyph glyph-name="Ocircumflex" unicode="&#xd4;" horiz-adv-x="530" 
d="M18 348q4 79 12 135.5t20.5 95.5t30 63.5t41 38.5t53.5 20.5t67 9.5q76 0 129.5 -41.5t86 -106t45 -143.5t6.5 -155.5t-29 -140.5t-62 -99q-19 -18 -49.5 -27t-64 -11.5t-66 0.5t-55.5 9q-46 13 -75.5 35.5t-47 51.5t-26 62.5t-11.5 68.5t-3 69.5t-2 64.5zM255 76
q24 3 42 17t31 33.5t22 42t16 42.5q6 18 9 54.5t2.5 81.5t-6 93t-16.5 87t-28 64.5t-42 26.5q-51 1 -85 -22t-53.5 -62t-26 -88.5t-3 -101.5t16 -101.5t31 -87.5t42 -60t48.5 -19zM168 737q-12 -14 -28 -16t-29 4t-18.5 19t3.5 28q14 23 32 30.5t41 16.5q31 21 47.5 39
t30 25.5t31 1.5t52.5 -33q15 -16 34 -24t40 -11q21 -23 19.5 -40t-15.5 -25t-36.5 -5t-41.5 20q-18 17 -33.5 38t-33.5 39z" />
    <glyph glyph-name="Otilde" unicode="&#xd5;" horiz-adv-x="530" 
d="M18 348q4 79 12 135.5t20.5 95.5t30 63.5t41 38.5t53.5 20.5t67 9.5q76 0 129.5 -41.5t86 -106t45 -143.5t6.5 -155.5t-29 -140.5t-62 -99q-19 -18 -49.5 -27t-64 -11.5t-66 0.5t-55.5 9q-46 13 -75.5 35.5t-47 51.5t-26 62.5t-11.5 68.5t-3 69.5t-2 64.5zM255 76
q24 3 42 17t31 33.5t22 42t16 42.5q6 18 9 54.5t2.5 81.5t-6 93t-16.5 87t-28 64.5t-42 26.5q-51 1 -85 -22t-53.5 -62t-26 -88.5t-3 -101.5t16 -101.5t31 -87.5t42 -60t48.5 -19zM95 720q-15 1 -24.5 8.5t-13 17.5t-1.5 20.5t10 18.5q0 1 1 2q8 9 24 20.5t34.5 21t38 16
t34.5 4.5q23 -3 37 -10t25 -17t22.5 -21t29.5 -21q6 -3 17.5 -2t25 8.5t27 21.5t24.5 36q15 13 28.5 10t22 -15t8.5 -29t-12 -31q-11 -9 -25.5 -23t-31.5 -24.5t-36 -15t-40 4.5q-15 6 -30 20.5t-30.5 28t-30.5 22t-29 4.5q-17 -5 -29.5 -17.5t-24 -26t-23.5 -23.5t-28 -9z
M354 784q0 -1 -0.5 1t-1 3.5l-0.5 1.5z" />
    <glyph glyph-name="Odieresis" unicode="&#xd6;" horiz-adv-x="530" 
d="M18 348q4 79 12 135.5t20.5 95.5t30 63.5t41 38.5t53.5 20.5t67 9.5q76 0 129.5 -41.5t86 -106t45 -143.5t6.5 -155.5t-29 -140.5t-62 -99q-19 -18 -49.5 -27t-64 -11.5t-66 0.5t-55.5 9q-46 13 -75.5 35.5t-47 51.5t-26 62.5t-11.5 68.5t-3 69.5t-2 64.5zM255 76
q24 3 42 17t31 33.5t22 42t16 42.5q6 18 9 54.5t2.5 81.5t-6 93t-16.5 87t-28 64.5t-42 26.5q-51 1 -85 -22t-53.5 -62t-26 -88.5t-3 -101.5t16 -101.5t31 -87.5t42 -60t48.5 -19zM142 842q31 24 49 21t24.5 -21t4 -43.5t-12.5 -46.5t-25 -31t-33 5q-7 4 -9 8q-2 2 -4.5 3
t-4.5 3q-11 9 -18.5 26.5t-8 35t8 30t29.5 10.5zM320 842q31 24 49 21t24.5 -21t4 -43.5t-12.5 -46.5t-25 -31t-33 5q-7 4 -9 8q-2 2 -4.5 3t-4.5 3q-11 9 -18.5 26.5t-8 35t8 30t29.5 10.5z" />
    <glyph glyph-name="Ugrave" unicode="&#xd9;" horiz-adv-x="502" 
d="M39 682q0 15 16.5 21t37 4.5t39.5 -10t25 -24.5q0 -66 -0.5 -122t0.5 -110.5t4.5 -110.5t11.5 -122q3 -19 4.5 -36t7 -31.5t17.5 -24.5t35 -14q23 -5 48.5 -2t44.5 13q26 15 31.5 43.5t7.5 58.5q4 56 0.5 116.5t-9 121t-9 118.5t1.5 110q19 26 48.5 31.5t61.5 -23.5
q6 -71 8.5 -131.5t3.5 -111.5t1 -92.5t1 -75.5q1 -22 -1 -60.5t-8 -76.5q-3 -21 -11 -42.5t-37 -51.5q-15 -17 -30 -24.5t-38 -12.5q-35 -8 -74.5 -10t-74.5 2q-41 5 -70 21.5t-49 54.5q-13 25 -22.5 55.5t-15.5 61.5t-9.5 59t-4.5 49zM350 741q-12 4 -33.5 15.5t-44 27.5
t-42 34.5t-29 36.5t-4 33t33.5 25q18 4 32 -0.5t25.5 -14t21 -21.5t17.5 -24q1 -2 10 -16t18.5 -30.5t17.5 -30.5t8 -16q-1 -14 -9.5 -20t-21.5 1z" />
    <glyph glyph-name="Uacute" unicode="&#xda;" horiz-adv-x="502" 
d="M39 682q0 15 16.5 21t37 4.5t39.5 -10t25 -24.5q0 -66 -0.5 -122t0.5 -110.5t4.5 -110.5t11.5 -122q3 -19 4.5 -36t7 -31.5t17.5 -24.5t35 -14q23 -5 48.5 -2t44.5 13q26 15 31.5 43.5t7.5 58.5q4 56 0.5 116.5t-9 121t-9 118.5t1.5 110q19 26 48.5 31.5t61.5 -23.5
q6 -71 8.5 -131.5t3.5 -111.5t1 -92.5t1 -75.5q1 -22 -1 -60.5t-8 -76.5q-3 -21 -11 -42.5t-37 -51.5q-15 -17 -30 -24.5t-38 -12.5q-35 -8 -74.5 -10t-74.5 2q-41 5 -70 21.5t-49 54.5q-13 25 -22.5 55.5t-15.5 61.5t-9.5 59t-4.5 49zM248.016 741q11.999 4 33.4971 15.5
q21.499 11.5 43.998 27.5q22.498 16 41.9971 34.5t28.998 36.5q9.5 18 4 33t-33.498 25q-17.999 4 -31.998 -0.5t-25.498 -14q-11.5 -9.5 -20.999 -21.5t-17.499 -24q-1 -2 -9.99902 -16q-9 -14 -18.499 -30.5q-9.5 -16.5 -17.499 -30.5q-8 -14 -8 -16q1 -14 9.5 -20
q8.49902 -6 21.499 1z" />
    <glyph glyph-name="Ucircumflex" unicode="&#xdb;" horiz-adv-x="502" 
d="M39 682q0 15 16.5 21t37 4.5t39.5 -10t25 -24.5q0 -66 -0.5 -122t0.5 -110.5t4.5 -110.5t11.5 -122q3 -19 4.5 -36t7 -31.5t17.5 -24.5t35 -14q23 -5 48.5 -2t44.5 13q26 15 31.5 43.5t7.5 58.5q4 56 0.5 116.5t-9 121t-9 118.5t1.5 110q19 26 48.5 31.5t61.5 -23.5
q6 -71 8.5 -131.5t3.5 -111.5t1 -92.5t1 -75.5q1 -22 -1 -60.5t-8 -76.5q-3 -21 -11 -42.5t-37 -51.5q-15 -17 -30 -24.5t-38 -12.5q-35 -8 -74.5 -10t-74.5 2q-41 5 -70 21.5t-49 54.5q-13 25 -22.5 55.5t-15.5 61.5t-9.5 59t-4.5 49zM154 741q-12 -14 -28 -16t-29 4
t-18.5 19t3.5 28q14 23 32 30.5t41 16.5q31 21 47.5 39t30 25.5t31 1.5t52.5 -33q15 -16 34 -24t40 -11q21 -23 19.5 -40t-15.5 -25t-36.5 -5t-41.5 20q-18 17 -33.5 38t-33.5 39z" />
    <glyph glyph-name="Udieresis" unicode="&#xdc;" horiz-adv-x="502" 
d="M39 682q0 15 16.5 21t37 4.5t39.5 -10t25 -24.5q0 -66 -0.5 -122t0.5 -110.5t4.5 -110.5t11.5 -122q3 -19 4.5 -36t7 -31.5t17.5 -24.5t35 -14q23 -5 48.5 -2t44.5 13q26 15 31.5 43.5t7.5 58.5q4 56 0.5 116.5t-9 121t-9 118.5t1.5 110q19 26 48.5 31.5t61.5 -23.5
q6 -71 8.5 -131.5t3.5 -111.5t1 -92.5t1 -75.5q1 -22 -1 -60.5t-8 -76.5q-3 -21 -11 -42.5t-37 -51.5q-15 -17 -30 -24.5t-38 -12.5q-35 -8 -74.5 -10t-74.5 2q-41 5 -70 21.5t-49 54.5q-13 25 -22.5 55.5t-15.5 61.5t-9.5 59t-4.5 49zM128 842q31 24 49 21t24.5 -21
t4 -43.5t-12.5 -46.5t-25 -31t-33 5q-7 4 -9 8q-2 2 -4.5 3t-4.5 3q-11 9 -18.5 26.5t-8 35t8 30t29.5 10.5zM306 842q31 24 49 21t24.5 -21t4 -43.5t-12.5 -46.5t-25 -31t-33 5q-7 4 -9 8q-2 2 -4.5 3t-4.5 3q-11 9 -18.5 26.5t-8 35t8 30t29.5 10.5z" />
    <glyph glyph-name="Yacute" unicode="&#xdd;" horiz-adv-x="510" 
d="M19 629q-3 6 -7.5 20t-2.5 25q3 13 12 22.5t21 13.5t25 0.5t23 -16.5q33 -41 50 -71.5t30.5 -56.5t29 -49.5t46.5 -49.5q43 66 71 108.5t46 67.5t28.5 36.5t17.5 16.5q7 3 18 5.5t22.5 1.5t20 -8.5t9.5 -25.5q1 -20 -12 -48t-33.5 -60t-44.5 -65.5t-45.5 -64.5t-36 -57
t-15.5 -43q-3 -39 -1 -79.5l4 -81t2 -81.5t-7 -81q-2 -10 -18 -15t-34.5 -2.5t-33.5 13t-14 31.5q5 61 7.5 136.5t10.5 168.5l-3 6q-15 26 -42.5 65t-56.5 79.5t-53.5 78t-33.5 60.5zM252.016 741q11.999 4 33.4971 15.5q21.499 11.5 43.998 27.5q22.498 16 41.9971 34.5
t28.998 36.5q9.5 18 4 33t-33.498 25q-17.999 4 -31.998 -0.5t-25.498 -14q-11.5 -9.5 -20.999 -21.5t-17.499 -24q-1 -2 -9.99902 -16q-9 -14 -18.499 -30.5q-9.5 -16.5 -17.499 -30.5q-8 -14 -8 -16q1 -14 9.5 -20q8.49902 -6 21.499 1z" />
    <glyph glyph-name="Ydieresis" unicode="&#x178;" horiz-adv-x="510" 
d="M19 629q-3 6 -7.5 20t-2.5 25q3 13 12 22.5t21 13.5t25 0.5t23 -16.5q33 -41 50 -71.5t30.5 -56.5t29 -49.5t46.5 -49.5q43 66 71 108.5t46 67.5t28.5 36.5t17.5 16.5q7 3 18 5.5t22.5 1.5t20 -8.5t9.5 -25.5q1 -20 -12 -48t-33.5 -60t-44.5 -65.5t-45.5 -64.5t-36 -57
t-15.5 -43q-3 -39 -1 -79.5l4 -81t2 -81.5t-7 -81q-2 -10 -18 -15t-34.5 -2.5t-33.5 13t-14 31.5q5 61 7.5 136.5t10.5 168.5l-3 6q-15 26 -42.5 65t-56.5 79.5t-53.5 78t-33.5 60.5zM132 842q31 24 49 21t24.5 -21t4 -43.5t-12.5 -46.5t-25 -31t-33 5q-7 4 -9 8
q-2 2 -4.5 3t-4.5 3q-11 9 -18.5 26.5t-8 35t8 30t29.5 10.5zM310 842q31 24 49 21t24.5 -21t4 -43.5t-12.5 -46.5t-25 -31t-33 5q-7 4 -9 8q-2 2 -4.5 3t-4.5 3q-11 9 -18.5 26.5t-8 35t8 30t29.5 10.5z" />
    <glyph glyph-name="oe" unicode="&#x153;" horiz-adv-x="840" 
d="M296 484q40 -18 63 -47.5t34.5 -66t14.5 -77.5t4 -83q1 -24 -3.5 -55.5t-17.5 -53.5q-20 -32 -45 -54t-57 -42q-30 -6 -59 -7.5t-54 0t-43.5 6t-26.5 10.5q-20 15 -33 30.5t-22 32.5t-15.5 36.5t-13.5 41.5q-11 36 -8.5 85t16.5 98t39.5 90.5t60.5 62.5q9 5 21.5 9.5
t32 5t46.5 -4.5t66 -17zM164 404q-9 -4 -16 -14t-11.5 -22t-8.5 -23t-7 -17q-4 -12 -11.5 -33t-12.5 -45.5t-4 -50t13 -48t38.5 -38.5t72.5 -22q28 -4 47.5 9.5t32 35.5t19.5 47.5t10 46t3.5 31.5t1.5 4q-2 27 -10 56.5t-26 52t-49.5 33t-81.5 -2.5zM671 237q-19 0 -45 1
t-53.5 1h-53.5t-45 -1q-3 -22 2.5 -44t18.5 -42t33 -36t47 -25q10 -4 25 -7t30.5 -4t28.5 1t20 7q9 6 19 10t16 10q2 2 2 4.5t1 5.5l1 -1q6 11 16.5 13.5t19 -0.5t12.5 -11.5t-1 -20.5q-20 -44 -55 -68.5t-77 -30.5t-86.5 4.5t-83.5 36t-68.5 64.5t-40 89t1 110.5
t54.5 129.5q17 27 51.5 44t76 22.5t85.5 -2t80.5 -28t59.5 -56t24 -86.5q0 -35 -1 -53.5t-11.5 -27t-34.5 -9.5t-69 0zM593 412q-28 -4 -43.5 -8.5t-25.5 -14t-17.5 -25t-19.5 -41.5q51 1 104 -2t103 -1q-3 28 -12.5 44.5t-23.5 26t-30.5 14t-34.5 7.5zM444 409l1 -1z" />
    <glyph glyph-name="OE" unicode="&#x152;" horiz-adv-x="952" 
d="M18 348q4 79 12 135.5t20.5 95.5t30 63.5t41 38.5t53.5 20.5t67 9.5q76 0 129.5 -41.5t86 -106t45 -143.5t6.5 -155.5t-29 -140.5t-62 -99q-19 -18 -49.5 -27t-64 -11.5t-66 0.5t-55.5 9q-46 13 -75.5 35.5t-47 51.5t-26 62.5t-11.5 68.5t-3 69.5t-2 64.5zM255 76
q24 3 42 17t31 33.5t22 42t16 42.5q6 18 9 54.5t2.5 81.5t-6 93t-16.5 87t-28 64.5t-42 26.5q-51 1 -85 -22t-53.5 -62t-26 -88.5t-3 -101.5t16 -101.5t31 -87.5t42 -60t48.5 -19zM433 3q-14 238 -5.5 415.5t31.5 277.5l397 11q23 -2 36 -20t15.5 -38.5t-5.5 -37t-26 -16.5
q-40 -5 -77.5 -5.5t-76.5 1t-80.5 3.5t-89.5 4q4 -8 3 -30.5t-3 -51t-4 -59t0 -55.5q33 -2 61 -2t53.5 0.5t51 0t55.5 -3.5q22 -4 30 -20.5t5.5 -34.5t-13.5 -31.5t-27 -10.5q-26 -4 -58.5 -3.5t-64.5 1.5t-59 0.5t-41 -5.5q-4 -38 -5 -80.5t-6 -90.5q0 -3 -2 -9q2 0 3 -1
q42 -4 75.5 -5.5t65 -1.5t62.5 1.5t68 4.5q44 4 62 0.5t23.5 -13.5t6 -27t9.5 -40q0 -21 -20 -25q-31 -6 -66.5 -6.5t-66.5 -1.5q-34 0 -75 1t-83.5 2t-83.5 2t-75 0z" />
    <glyph glyph-name="AE" unicode="&#xc6;" horiz-adv-x="1213" 
d="M387 186q-12 20 -24 27t-27.5 6.5t-37.5 -6.5t-55 -13q-29 -42 -54 -87.5t-42 -92.5q-7 -17 -19 -24.5t-25 -5.5q-16 -20 -38.5 -15.5t-29.5 27.5q-13 5 -20 18t-3 32q55 81 94.5 157.5t75.5 150t74.5 145.5t91.5 145q2 15 23 26.5t44.5 19t42 10t15.5 -2.5l-10 18
q2 -38 2 -96.5t-2.5 -123t-8.5 -128t-15.5 -110t-22 -70t-29.5 -7.5zM368 504q-12 -24 -26.5 -54.5t-30 -62.5t-31 -63t-29.5 -55q23 2 51 1.5t56 10.5q-1 29 2 57.5l6 57t4.5 55.5t-2.5 53zM374 3q-14 238 -5.5 415.5t31.5 277.5l397 11q23 -2 36 -20t15.5 -38.5t-5.5 -37
t-26 -16.5q-40 -5 -77.5 -5.5t-76.5 1t-80.5 3.5t-89.5 4q4 -8 3 -30.5t-3 -51t-4 -59t0 -55.5q33 -2 61 -2t53.5 0.5t51 0t55.5 -3.5q22 -4 30 -20.5t5.5 -34.5t-13.5 -31.5t-27 -10.5q-26 -4 -58.5 -3.5t-64.5 1.5t-59 0.5t-41 -5.5q-4 -38 -5 -80.5t-6 -90.5q0 -3 -2 -9
q2 0 3 -1q42 -4 75.5 -5.5t65 -1.5t62.5 1.5t68 4.5q44 4 62 0.5t23.5 -13.5t6 -27t9.5 -40q0 -21 -20 -25q-31 -6 -66.5 -6.5t-66.5 -1.5q-34 0 -75 1t-83.5 2t-83.5 2t-75 0z" />
    <glyph glyph-name="agrave" unicode="&#xe0;" horiz-adv-x="469" 
d="M219 286q61 6 81.5 20t13.5 29t-34.5 28t-62.5 17t-70 -5t-57 -37q-17 -2 -29.5 5t-17 19t-1 25.5t18.5 24.5q15 5 21 13t20 16q64 34 114.5 37.5t87.5 -14t61 -51t35.5 -74.5t11 -83.5t-13.5 -78.5q-5 -14 -4.5 -26t3 -26.5t5.5 -33.5t5 -45q4 -7 4 -13q4 -11 3 -24
q0 -1 -1 -1q-6 -15 -16.5 -22.5t-22 -7t-22 8t-16.5 21.5q-2 7 -2 10v4q-7 8 -8 15q-4 3 -7 6.5t-6 7.5t-10 3.5t-9 4.5q-5 -2 -9 -4.5t-8 -4.5q-30 -19 -56.5 -33.5t-52.5 -18.5t-52.5 5.5t-56.5 39.5q-9 9 -15.5 24t-10 32.5t-3.5 34.5t5 31q4 11 7.5 18t10.5 15
q10 12 18 21l4.5 4.5t1.5 0.5q5 8 13.5 19.5t15.5 16.5q19 15 47 17.5t51 6.5zM292 120q12 17 16 30t5 24.5t1.5 21.5t3.5 22q-31 5 -67 6.5t-66 -8.5t-49.5 -35.5t-18.5 -73.5l28 -21q30 -7 66 2.5t81 31.5zM340 10q1 -2 0.5 0t-2.5 4q1 -1 1 -2t1 -2zM334 541
q-12 4 -33.5 15.5t-44 27.5t-42 34.5t-29 36.5t-4 33t33.5 25q18 4 32 -0.5t25.5 -14t21 -21.5t17.5 -24q1 -2 10 -16t18.5 -30.5t17.5 -30.5t8 -16q-1 -14 -9.5 -20t-21.5 1z" />
    <glyph glyph-name="aacute" unicode="&#xe1;" horiz-adv-x="469" 
d="M219 286q61 6 81.5 20t13.5 29t-34.5 28t-62.5 17t-70 -5t-57 -37q-17 -2 -29.5 5t-17 19t-1 25.5t18.5 24.5q15 5 21 13t20 16q64 34 114.5 37.5t87.5 -14t61 -51t35.5 -74.5t11 -83.5t-13.5 -78.5q-5 -14 -4.5 -26t3 -26.5t5.5 -33.5t5 -45q4 -7 4 -13q4 -11 3 -24
q0 -1 -1 -1q-6 -15 -16.5 -22.5t-22 -7t-22 8t-16.5 21.5q-2 7 -2 10v4q-7 8 -8 15q-4 3 -7 6.5t-6 7.5t-10 3.5t-9 4.5q-5 -2 -9 -4.5t-8 -4.5q-30 -19 -56.5 -33.5t-52.5 -18.5t-52.5 5.5t-56.5 39.5q-9 9 -15.5 24t-10 32.5t-3.5 34.5t5 31q4 11 7.5 18t10.5 15
q10 12 18 21l4.5 4.5t1.5 0.5q5 8 13.5 19.5t15.5 16.5q19 15 47 17.5t51 6.5zM292 120q12 17 16 30t5 24.5t1.5 21.5t3.5 22q-31 5 -67 6.5t-66 -8.5t-49.5 -35.5t-18.5 -73.5l28 -21q30 -7 66 2.5t81 31.5zM340 10q1 -2 0.5 0t-2.5 4q1 -1 1 -2t1 -2zM202.016 541
q11.999 4 33.4971 15.5q21.499 11.5 43.998 27.5q22.498 16 41.9971 34.5t28.998 36.5q9.5 18 4 33t-33.498 25q-17.999 4 -31.998 -0.5t-25.498 -14q-11.5 -9.5 -20.999 -21.5t-17.499 -24q-1 -2 -9.99902 -16q-9 -14 -18.499 -30.5q-9.5 -16.5 -17.499 -30.5
q-8 -14 -8 -16q1 -14 9.5 -20q8.49902 -6 21.499 1z" />
    <glyph glyph-name="acircumflex" unicode="&#xe2;" horiz-adv-x="469" 
d="M219 286q61 6 81.5 20t13.5 29t-34.5 28t-62.5 17t-70 -5t-57 -37q-17 -2 -29.5 5t-17 19t-1 25.5t18.5 24.5q15 5 21 13t20 16q64 34 114.5 37.5t87.5 -14t61 -51t35.5 -74.5t11 -83.5t-13.5 -78.5q-5 -14 -4.5 -26t3 -26.5t5.5 -33.5t5 -45q4 -7 4 -13q4 -11 3 -24
q0 -1 -1 -1q-6 -15 -16.5 -22.5t-22 -7t-22 8t-16.5 21.5q-2 7 -2 10v4q-7 8 -8 15q-4 3 -7 6.5t-6 7.5t-10 3.5t-9 4.5q-5 -2 -9 -4.5t-8 -4.5q-30 -19 -56.5 -33.5t-52.5 -18.5t-52.5 5.5t-56.5 39.5q-9 9 -15.5 24t-10 32.5t-3.5 34.5t5 31q4 11 7.5 18t10.5 15
q10 12 18 21l4.5 4.5t1.5 0.5q5 8 13.5 19.5t15.5 16.5q19 15 47 17.5t51 6.5zM292 120q12 17 16 30t5 24.5t1.5 21.5t3.5 22q-31 5 -67 6.5t-66 -8.5t-49.5 -35.5t-18.5 -73.5l28 -21q30 -7 66 2.5t81 31.5zM340 10q1 -2 0.5 0t-2.5 4q1 -1 1 -2t1 -2zM108 534
q-12 -14 -28 -16t-29 4t-18.5 19t3.5 28q14 23 32 30.5t41 16.5q31 21 47.5 39t30 25.5t31 1.5t52.5 -33q15 -16 34 -24t40 -11q21 -23 19.5 -40t-15.5 -25t-36.5 -5t-41.5 20q-18 17 -33.5 38t-33.5 39z" />
    <glyph glyph-name="atilde" unicode="&#xe3;" horiz-adv-x="469" 
d="M219 286q61 6 81.5 20t13.5 29t-34.5 28t-62.5 17t-70 -5t-57 -37q-17 -2 -29.5 5t-17 19t-1 25.5t18.5 24.5q15 5 21 13t20 16q64 34 114.5 37.5t87.5 -14t61 -51t35.5 -74.5t11 -83.5t-13.5 -78.5q-5 -14 -4.5 -26t3 -26.5t5.5 -33.5t5 -45q4 -7 4 -13q4 -11 3 -24
q0 -1 -1 -1q-6 -15 -16.5 -22.5t-22 -7t-22 8t-16.5 21.5q-2 7 -2 10v4q-7 8 -8 15q-4 3 -7 6.5t-6 7.5t-10 3.5t-9 4.5q-5 -2 -9 -4.5t-8 -4.5q-30 -19 -56.5 -33.5t-52.5 -18.5t-52.5 5.5t-56.5 39.5q-9 9 -15.5 24t-10 32.5t-3.5 34.5t5 31q4 11 7.5 18t10.5 15
q10 12 18 21l4.5 4.5t1.5 0.5q5 8 13.5 19.5t15.5 16.5q19 15 47 17.5t51 6.5zM292 120q12 17 16 30t5 24.5t1.5 21.5t3.5 22q-31 5 -67 6.5t-66 -8.5t-49.5 -35.5t-18.5 -73.5l28 -21q30 -7 66 2.5t81 31.5zM340 10q1 -2 0.5 0t-2.5 4q1 -1 1 -2t1 -2zM64 520
q-15 1 -24.5 8.5t-13 17.5t-1.5 20.5t10 18.5q0 1 1 2q8 9 24 20.5t34.5 21t38 16t34.5 4.5q23 -3 37 -10t25 -17t22.5 -21t29.5 -21q6 -3 17.5 -2t25 8.5t27 21.5t24.5 36q15 13 28.5 10t22 -15t8.5 -29t-12 -31q-11 -9 -25.5 -23t-31.5 -24.5t-36 -15t-40 4.5
q-15 6 -30 20.5t-30.5 28t-30.5 22t-29 4.5q-17 -5 -29.5 -17.5t-24 -26t-23.5 -23.5t-28 -9zM323 584q0 -1 -0.5 1t-1 3.5l-0.5 1.5z" />
    <glyph glyph-name="adieresis" unicode="&#xe4;" horiz-adv-x="469" 
d="M219 286q61 6 81.5 20t13.5 29t-34.5 28t-62.5 17t-70 -5t-57 -37q-17 -2 -29.5 5t-17 19t-1 25.5t18.5 24.5q15 5 21 13t20 16q64 34 114.5 37.5t87.5 -14t61 -51t35.5 -74.5t11 -83.5t-13.5 -78.5q-5 -14 -4.5 -26t3 -26.5t5.5 -33.5t5 -45q4 -7 4 -13q4 -11 3 -24
q0 -1 -1 -1q-6 -15 -16.5 -22.5t-22 -7t-22 8t-16.5 21.5q-2 7 -2 10v4q-7 8 -8 15q-4 3 -7 6.5t-6 7.5t-10 3.5t-9 4.5q-5 -2 -9 -4.5t-8 -4.5q-30 -19 -56.5 -33.5t-52.5 -18.5t-52.5 5.5t-56.5 39.5q-9 9 -15.5 24t-10 32.5t-3.5 34.5t5 31q4 11 7.5 18t10.5 15
q10 12 18 21l4.5 4.5t1.5 0.5q5 8 13.5 19.5t15.5 16.5q19 15 47 17.5t51 6.5zM292 120q12 17 16 30t5 24.5t1.5 21.5t3.5 22q-31 5 -67 6.5t-66 -8.5t-49.5 -35.5t-18.5 -73.5l28 -21q30 -7 66 2.5t81 31.5zM340 10q1 -2 0.5 0t-2.5 4q1 -1 1 -2t1 -2zM111 642q31 24 49 21
t24.5 -21t4 -43.5t-12.5 -46.5t-25 -31t-33 5q-7 4 -9 8q-2 2 -4.5 3t-4.5 3q-11 9 -18.5 26.5t-8 35t8 30t29.5 10.5zM289 642q31 24 49 21t24.5 -21t4 -43.5t-12.5 -46.5t-25 -31t-33 5q-7 4 -9 8q-2 2 -4.5 3t-4.5 3q-11 9 -18.5 26.5t-8 35t8 30t29.5 10.5z" />
    <glyph glyph-name="ae" unicode="&#xe6;" horiz-adv-x="812" 
d="M219 286q61 6 81.5 20t13.5 29t-34.5 28t-62.5 17t-70 -5t-57 -37q-17 -2 -29.5 5t-17 19t-1 25.5t18.5 24.5q15 5 21 13t20 16q64 34 114.5 37.5t87.5 -14t61 -51t35.5 -74.5t11 -83.5t-13.5 -78.5q-5 -14 -4.5 -26t3 -26.5t5.5 -33.5t5 -45q4 -7 4 -13q4 -11 3 -24
q0 -1 -1 -1q-6 -15 -16.5 -22.5t-22 -7t-22 8t-16.5 21.5q-2 7 -2 10v4q-7 8 -8 15q-4 3 -7 6.5t-6 7.5t-10 3.5t-9 4.5q-5 -2 -9 -4.5t-8 -4.5q-30 -19 -56.5 -33.5t-52.5 -18.5t-52.5 5.5t-56.5 39.5q-9 9 -15.5 24t-10 32.5t-3.5 34.5t5 31q4 11 7.5 18t10.5 15
q10 12 18 21l4.5 4.5t1.5 0.5q5 8 13.5 19.5t15.5 16.5q19 15 47 17.5t51 6.5zM292 120q12 17 16 30t5 24.5t1.5 21.5t3.5 22q-31 5 -67 6.5t-66 -8.5t-49.5 -35.5t-18.5 -73.5l28 -21q30 -7 66 2.5t81 31.5zM340 10q1 -2 0.5 0t-2.5 4q1 -1 1 -2t1 -2zM646 237q-19 0 -45 1
t-53.5 1h-53.5t-45 -1q-3 -22 2.5 -44t18.5 -42t33 -36t47 -25q10 -4 25 -7t30.5 -4t28.5 1t20 7q9 6 19 10t16 10q2 2 2 4.5t1 5.5l1 -1q6 11 16.5 13.5t19 -0.5t12.5 -11.5t-1 -20.5q-20 -44 -55 -68.5t-77 -30.5t-86.5 4.5t-83.5 36t-68.5 64.5t-40 89t1 110.5
t54.5 129.5q17 27 51.5 44t76 22.5t85.5 -2t80.5 -28t59.5 -56t24 -86.5q0 -35 -1 -53.5t-11.5 -27t-34.5 -9.5t-69 0zM568 412q-28 -4 -43.5 -8.5t-25.5 -14t-17.5 -25t-19.5 -41.5q51 1 104 -2t103 -1q-3 28 -12.5 44.5t-23.5 26t-30.5 14t-34.5 7.5zM419 409l1 -1z" />
    <glyph glyph-name="egrave" unicode="&#xe8;" horiz-adv-x="477" 
d="M337 237q-19 0 -45 1t-53.5 1h-53.5t-45 -1q-3 -22 2.5 -44t18.5 -42t33 -36t47 -25q10 -4 25 -7t30.5 -4t28.5 1t20 7q9 6 19 10t16 10q2 2 2 4.5t1 5.5l1 -1q6 11 16.5 13.5t19 -0.5t12.5 -11.5t-1 -20.5q-20 -44 -55 -68.5t-77 -30.5t-86.5 4.5t-83.5 36t-68.5 64.5
t-40 89t1 110.5t54.5 129.5q17 27 51.5 44t76 22.5t85.5 -2t80.5 -28t59.5 -56t24 -86.5q0 -35 -1 -53.5t-11.5 -27t-34.5 -9.5t-69 0zM259 412q-28 -4 -43.5 -8.5t-25.5 -14t-17.5 -25t-19.5 -41.5q51 1 104 -2t103 -1q-3 28 -12.5 44.5t-23.5 26t-30.5 14t-34.5 7.5z
M110 409l1 -1zM338 541q-12 4 -33.5 15.5t-44 27.5t-42 34.5t-29 36.5t-4 33t33.5 25q18 4 32 -0.5t25.5 -14t21 -21.5t17.5 -24q1 -2 10 -16t18.5 -30.5t17.5 -30.5t8 -16q-1 -14 -9.5 -20t-21.5 1z" />
    <glyph glyph-name="eacute" unicode="&#xe9;" horiz-adv-x="477" 
d="M337 237q-19 0 -45 1t-53.5 1h-53.5t-45 -1q-3 -22 2.5 -44t18.5 -42t33 -36t47 -25q10 -4 25 -7t30.5 -4t28.5 1t20 7q9 6 19 10t16 10q2 2 2 4.5t1 5.5l1 -1q6 11 16.5 13.5t19 -0.5t12.5 -11.5t-1 -20.5q-20 -44 -55 -68.5t-77 -30.5t-86.5 4.5t-83.5 36t-68.5 64.5
t-40 89t1 110.5t54.5 129.5q17 27 51.5 44t76 22.5t85.5 -2t80.5 -28t59.5 -56t24 -86.5q0 -35 -1 -53.5t-11.5 -27t-34.5 -9.5t-69 0zM259 412q-28 -4 -43.5 -8.5t-25.5 -14t-17.5 -25t-19.5 -41.5q51 1 104 -2t103 -1q-3 28 -12.5 44.5t-23.5 26t-30.5 14t-34.5 7.5z
M110 409l1 -1zM236.016 541q11.999 4 33.4971 15.5q21.499 11.5 43.998 27.5q22.498 16 41.9971 34.5t28.998 36.5q9.5 18 4 33t-33.498 25q-17.999 4 -31.998 -0.5t-25.498 -14q-11.5 -9.5 -20.999 -21.5t-17.499 -24q-1 -2 -9.99902 -16q-9 -14 -18.499 -30.5
q-9.5 -16.5 -17.499 -30.5q-8 -14 -8 -16q1 -14 9.5 -20q8.49902 -6 21.499 1z" />
    <glyph glyph-name="ecircumflex" unicode="&#xea;" horiz-adv-x="477" 
d="M337 237q-19 0 -45 1t-53.5 1h-53.5t-45 -1q-3 -22 2.5 -44t18.5 -42t33 -36t47 -25q10 -4 25 -7t30.5 -4t28.5 1t20 7q9 6 19 10t16 10q2 2 2 4.5t1 5.5l1 -1q6 11 16.5 13.5t19 -0.5t12.5 -11.5t-1 -20.5q-20 -44 -55 -68.5t-77 -30.5t-86.5 4.5t-83.5 36t-68.5 64.5
t-40 89t1 110.5t54.5 129.5q17 27 51.5 44t76 22.5t85.5 -2t80.5 -28t59.5 -56t24 -86.5q0 -35 -1 -53.5t-11.5 -27t-34.5 -9.5t-69 0zM259 412q-28 -4 -43.5 -8.5t-25.5 -14t-17.5 -25t-19.5 -41.5q51 1 104 -2t103 -1q-3 28 -12.5 44.5t-23.5 26t-30.5 14t-34.5 7.5z
M110 409l1 -1zM142 534q-12 -14 -28 -16t-29 4t-18.5 19t3.5 28q14 23 32 30.5t41 16.5q31 21 47.5 39t30 25.5t31 1.5t52.5 -33q15 -16 34 -24t40 -11q21 -23 19.5 -40t-15.5 -25t-36.5 -5t-41.5 20q-18 17 -33.5 38t-33.5 39z" />
    <glyph glyph-name="edieresis" unicode="&#xeb;" horiz-adv-x="477" 
d="M337 237q-19 0 -45 1t-53.5 1h-53.5t-45 -1q-3 -22 2.5 -44t18.5 -42t33 -36t47 -25q10 -4 25 -7t30.5 -4t28.5 1t20 7q9 6 19 10t16 10q2 2 2 4.5t1 5.5l1 -1q6 11 16.5 13.5t19 -0.5t12.5 -11.5t-1 -20.5q-20 -44 -55 -68.5t-77 -30.5t-86.5 4.5t-83.5 36t-68.5 64.5
t-40 89t1 110.5t54.5 129.5q17 27 51.5 44t76 22.5t85.5 -2t80.5 -28t59.5 -56t24 -86.5q0 -35 -1 -53.5t-11.5 -27t-34.5 -9.5t-69 0zM259 412q-28 -4 -43.5 -8.5t-25.5 -14t-17.5 -25t-19.5 -41.5q51 1 104 -2t103 -1q-3 28 -12.5 44.5t-23.5 26t-30.5 14t-34.5 7.5z
M110 409l1 -1zM115 642q31 24 49 21t24.5 -21t4 -43.5t-12.5 -46.5t-25 -31t-33 5q-7 4 -9 8q-2 2 -4.5 3t-4.5 3q-11 9 -18.5 26.5t-8 35t8 30t29.5 10.5zM293 642q31 24 49 21t24.5 -21t4 -43.5t-12.5 -46.5t-25 -31t-33 5q-7 4 -9 8q-2 2 -4.5 3t-4.5 3q-11 9 -18.5 26.5
t-8 35t8 30t29.5 10.5z" />
    <glyph glyph-name="igrave" unicode="&#xec;" horiz-adv-x="197" 
d="M153 25q-3 -15 -13 -24.5t-23 -12t-25.5 1.5t-19.5 15q-11 2 -20.5 10t-14.5 23q3 85 2 168t6 168q1 18 1.5 34.5t2.5 32t8.5 29.5t21.5 27q5 4 18.5 4t19.5 4q21 -9 29 -25.5t10 -36t-0.5 -40.5t-2.5 -40q-3 -85 -3.5 -169t3.5 -169zM148 541q-12 4 -33.5 15.5t-44 27.5
t-42 34.5t-29 36.5t-4 33t33.5 25q18 4 32 -0.5t25.5 -14t21 -21.5t17.5 -24q1 -2 10 -16t18.5 -30.5t17.5 -30.5t8 -16q-1 -14 -9.5 -20t-21.5 1z" />
    <glyph glyph-name="iacute" unicode="&#xed;" horiz-adv-x="197" 
d="M153 25q-4 85 -3.5 169t3.5 169q0 19 2.5 40t0.5 40.5t-10 36t-29 25.5q-6 -4 -19.5 -4t-18.5 -4q-15 -13 -21.5 -27t-8.5 -29.5t-2.5 -32t-1.5 -34.5q-7 -85 -6 -168t-2 -168q5 -15 14.5 -23t20.5 -10q7 -11 19.5 -15t25.5 -1.5t23 12t13 24.5zM86 541q-13 -7 -21.5 -1
t-9.5 20q0 2 8 16t17.5 30.5t18 30.5t10.5 16q8 12 17.5 24t21 21.5t25.5 14t32 0.5q28 -10 33.5 -25t-4 -33t-29 -36.5t-42 -34.5t-44 -27.5t-33.5 -15.5z" />
    <glyph glyph-name="icircumflex" unicode="&#xee;" horiz-adv-x="197" 
d="M153 25q-3 -15 -13 -24.5t-23 -12t-25.5 1.5t-19.5 15q-11 2 -20.5 10t-14.5 23q3 85 2 168t6 168q1 18 1.5 34.5t2.5 32t8.5 29.5t21.5 27q5 4 18.5 4t19.5 4q21 -9 29 -25.5t10 -36t-0.5 -40.5t-2.5 -40q-3 -85 -3.5 -169t3.5 -169zM1 534q-12 -14 -28 -16t-29 4
t-18.5 19t3.5 28q14 23 32 30.5t41 16.5q31 21 47.5 39t30 25.5t31 1.5t52.5 -33q15 -16 34 -24t40 -11q21 -23 19.5 -40t-15.5 -25t-36.5 -5t-41.5 20q-18 17 -33.5 38t-33.5 39z" />
    <glyph glyph-name="idieresis" unicode="&#xef;" horiz-adv-x="197" 
d="M153 25q-3 -15 -13 -24.5t-23 -12t-25.5 1.5t-19.5 15q-11 2 -20.5 10t-14.5 23q3 85 2 168t6 168q1 18 1.5 34.5t2.5 32t8.5 29.5t21.5 27q5 4 18.5 4t19.5 4q21 -9 29 -25.5t10 -36t-0.5 -40.5t-2.5 -40q-3 -85 -3.5 -169t3.5 -169zM-24 642q31 24 49 21t24.5 -21
t4 -43.5t-12.5 -46.5t-25 -31t-33 5q-7 4 -9 8q-2 2 -4.5 3t-4.5 3q-11 9 -18.5 26.5t-8 35t8 30t29.5 10.5zM154 642q31 24 49 21t24.5 -21t4 -43.5t-12.5 -46.5t-25 -31t-33 5q-7 4 -9 8q-2 2 -4.5 3t-4.5 3q-11 9 -18.5 26.5t-8 35t8 30t29.5 10.5z" />
    <glyph glyph-name="ntilde" unicode="&#xf1;" horiz-adv-x="477" 
d="M53 -13q-5 5 -18 13q-3 15 5 30v2q1 5 2 16t1 12q1 15 1.5 30.5t0.5 29.5q1 46 -1 86.5t1 85.5q1 11 2 20.5t3 20.5q-1 15 -2.5 33.5t-2 37t-1 36.5t0.5 33q4 16 11 24t21 13q1 1 3 1q11 0 19 -3q4 0 6 -1q14 7 30.5 0t23.5 -28q15 8 32 13.5t33 3.5q51 -6 93 -13
t70.5 -27.5t42.5 -59.5t9 -109q-4 -11 -7.5 -18t-5.5 -20q-4 -29 -3 -59t3.5 -60t6 -59.5t3.5 -59.5q-1 -27 -27 -31q-32 -5 -48 -1t-22 17t-5 33t4 46q4 74 7 125.5t2 86t-8 54t-22 29.5t-40.5 12.5t-64.5 3.5q-31 1 -48.5 -17t-25 -46t-7.5 -62t3 -66t7 -58.5t5 -39.5
q1 -18 3.5 -33.5t3 -29.5t-2.5 -28t-13 -29zM68 520q-15 1 -24.5 8.5t-13 17.5t-1.5 20.5t10 18.5q0 1 1 2q8 9 24 20.5t34.5 21t38 16t34.5 4.5q23 -3 37 -10t25 -17t22.5 -21t29.5 -21q6 -3 17.5 -2t25 8.5t27 21.5t24.5 36q15 13 28.5 10t22 -15t8.5 -29t-12 -31
q-11 -9 -25.5 -23t-31.5 -24.5t-36 -15t-40 4.5q-15 6 -30 20.5t-30.5 28t-30.5 22t-29 4.5q-17 -5 -29.5 -17.5t-24 -26t-23.5 -23.5t-28 -9zM327 584q0 -1 -0.5 1t-1 3.5l-0.5 1.5z" />
    <glyph glyph-name="ograve" unicode="&#xf2;" horiz-adv-x="444" 
d="M296 484q40 -18 63 -47.5t34.5 -66t14.5 -77.5t4 -83q1 -24 -3.5 -55.5t-17.5 -53.5q-20 -32 -45 -54t-57 -42q-30 -6 -59 -7.5t-54 0t-43.5 6t-26.5 10.5q-20 15 -33 30.5t-22 32.5t-15.5 36.5t-13.5 41.5q-11 36 -8.5 85t16.5 98t39.5 90.5t60.5 62.5q9 5 21.5 9.5
t32 5t46.5 -4.5t66 -17zM164 404q-9 -4 -16 -14t-11.5 -22t-8.5 -23t-7 -17q-4 -12 -11.5 -33t-12.5 -45.5t-4 -50t13 -48t38.5 -38.5t72.5 -22q28 -4 47.5 9.5t32 35.5t19.5 47.5t10 46t3.5 31.5t1.5 4q-2 27 -10 56.5t-26 52t-49.5 33t-81.5 -2.5zM321 541
q-12 4 -33.5 15.5t-44 27.5t-42 34.5t-29 36.5t-4 33t33.5 25q18 4 32 -0.5t25.5 -14t21 -21.5t17.5 -24q1 -2 10 -16t18.5 -30.5t17.5 -30.5t8 -16q-1 -14 -9.5 -20t-21.5 1z" />
    <glyph glyph-name="oacute" unicode="&#xf3;" horiz-adv-x="444" 
d="M296 484q40 -18 63 -47.5t34.5 -66t14.5 -77.5t4 -83q1 -24 -3.5 -55.5t-17.5 -53.5q-20 -32 -45 -54t-57 -42q-30 -6 -59 -7.5t-54 0t-43.5 6t-26.5 10.5q-20 15 -33 30.5t-22 32.5t-15.5 36.5t-13.5 41.5q-11 36 -8.5 85t16.5 98t39.5 90.5t60.5 62.5q9 5 21.5 9.5
t32 5t46.5 -4.5t66 -17zM164 404q-9 -4 -16 -14t-11.5 -22t-8.5 -23t-7 -17q-4 -12 -11.5 -33t-12.5 -45.5t-4 -50t13 -48t38.5 -38.5t72.5 -22q28 -4 47.5 9.5t32 35.5t19.5 47.5t10 46t3.5 31.5t1.5 4q-2 27 -10 56.5t-26 52t-49.5 33t-81.5 -2.5zM199.016 541
q11.999 4 33.4971 15.5q21.499 11.5 43.998 27.5q22.498 16 41.9971 34.5t28.998 36.5q9.5 18 4 33t-33.498 25q-17.999 4 -31.998 -0.5t-25.498 -14q-11.5 -9.5 -20.999 -21.5t-17.499 -24q-1 -2 -9.99902 -16q-9 -14 -18.499 -30.5q-9.5 -16.5 -17.499 -30.5
q-8 -14 -8 -16q1 -14 9.5 -20q8.49902 -6 21.499 1z" />
    <glyph glyph-name="ocircumflex" unicode="&#xf4;" horiz-adv-x="444" 
d="M296 484q40 -18 63 -47.5t34.5 -66t14.5 -77.5t4 -83q1 -24 -3.5 -55.5t-17.5 -53.5q-20 -32 -45 -54t-57 -42q-30 -6 -59 -7.5t-54 0t-43.5 6t-26.5 10.5q-20 15 -33 30.5t-22 32.5t-15.5 36.5t-13.5 41.5q-11 36 -8.5 85t16.5 98t39.5 90.5t60.5 62.5q9 5 21.5 9.5
t32 5t46.5 -4.5t66 -17zM164 404q-9 -4 -16 -14t-11.5 -22t-8.5 -23t-7 -17q-4 -12 -11.5 -33t-12.5 -45.5t-4 -50t13 -48t38.5 -38.5t72.5 -22q28 -4 47.5 9.5t32 35.5t19.5 47.5t10 46t3.5 31.5t1.5 4q-2 27 -10 56.5t-26 52t-49.5 33t-81.5 -2.5zM125 534
q-12 -14 -28 -16t-29 4t-18.5 19t3.5 28q14 23 32 30.5t41 16.5q31 21 47.5 39t30 25.5t31 1.5t52.5 -33q15 -16 34 -24t40 -11q21 -23 19.5 -40t-15.5 -25t-36.5 -5t-41.5 20q-18 17 -33.5 38t-33.5 39z" />
    <glyph glyph-name="otilde" unicode="&#xf5;" horiz-adv-x="444" 
d="M296 484q40 -18 63 -47.5t34.5 -66t14.5 -77.5t4 -83q1 -24 -3.5 -55.5t-17.5 -53.5q-20 -32 -45 -54t-57 -42q-30 -6 -59 -7.5t-54 0t-43.5 6t-26.5 10.5q-20 15 -33 30.5t-22 32.5t-15.5 36.5t-13.5 41.5q-11 36 -8.5 85t16.5 98t39.5 90.5t60.5 62.5q9 5 21.5 9.5
t32 5t46.5 -4.5t66 -17zM164 404q-9 -4 -16 -14t-11.5 -22t-8.5 -23t-7 -17q-4 -12 -11.5 -33t-12.5 -45.5t-4 -50t13 -48t38.5 -38.5t72.5 -22q28 -4 47.5 9.5t32 35.5t19.5 47.5t10 46t3.5 31.5t1.5 4q-2 27 -10 56.5t-26 52t-49.5 33t-81.5 -2.5zM53 520q-15 1 -24.5 8.5
t-13 17.5t-1.5 20.5t10 18.5q0 1 1 2q8 9 24 20.5t34.5 21t38 16t34.5 4.5q23 -3 37 -10t25 -17t22.5 -21t29.5 -21q6 -3 17.5 -2t25 8.5t27 21.5t24.5 36q15 13 28.5 10t22 -15t8.5 -29t-12 -31q-11 -9 -25.5 -23t-31.5 -24.5t-36 -15t-40 4.5q-15 6 -30 20.5t-30.5 28
t-30.5 22t-29 4.5q-17 -5 -29.5 -17.5t-24 -26t-23.5 -23.5t-28 -9zM312 584q0 -1 -0.5 1t-1 3.5l-0.5 1.5z" />
    <glyph glyph-name="odieresis" unicode="&#xf6;" horiz-adv-x="444" 
d="M296 484q40 -18 63 -47.5t34.5 -66t14.5 -77.5t4 -83q1 -24 -3.5 -55.5t-17.5 -53.5q-20 -32 -45 -54t-57 -42q-30 -6 -59 -7.5t-54 0t-43.5 6t-26.5 10.5q-20 15 -33 30.5t-22 32.5t-15.5 36.5t-13.5 41.5q-11 36 -8.5 85t16.5 98t39.5 90.5t60.5 62.5q9 5 21.5 9.5
t32 5t46.5 -4.5t66 -17zM164 404q-9 -4 -16 -14t-11.5 -22t-8.5 -23t-7 -17q-4 -12 -11.5 -33t-12.5 -45.5t-4 -50t13 -48t38.5 -38.5t72.5 -22q28 -4 47.5 9.5t32 35.5t19.5 47.5t10 46t3.5 31.5t1.5 4q-2 27 -10 56.5t-26 52t-49.5 33t-81.5 -2.5zM99 642q31 24 49 21
t24.5 -21t4 -43.5t-12.5 -46.5t-25 -31t-33 5q-7 4 -9 8q-2 2 -4.5 3t-4.5 3q-11 9 -18.5 26.5t-8 35t8 30t29.5 10.5zM277 642q31 24 49 21t24.5 -21t4 -43.5t-12.5 -46.5t-25 -31t-33 5q-7 4 -9 8q-2 2 -4.5 3t-4.5 3q-11 9 -18.5 26.5t-8 35t8 30t29.5 10.5z" />
    <glyph glyph-name="ugrave" unicode="&#xf9;" horiz-adv-x="449" 
d="M23 470q3 13 12 21.5t20 11.5t23 1t20 -9q14 -27 21 -66.5t10.5 -84t5.5 -90t5 -82.5q1 -15 2.5 -23.5t4 -14.5t7 -13t11.5 -20q15 -26 35 -23.5t41 18t41.5 36.5t35.5 32q2 98 3.5 175.5t11 121.5t32 48t65.5 -45q-3 -44 -9.5 -91.5t-11.5 -96.5t-5.5 -98t8.5 -94
q1 15 2.5 8.5t2.5 -20.5t1 -30t-3 -22q-7 -19 -19.5 -26t-26.5 -4q-17 -10 -36.5 4.5t-21.5 45.5q-1 8 -1 16v16q-19 -23 -41.5 -43.5t-48.5 -32.5q-13 -6 -32 -9t-33 2q-42 14 -67.5 46t-39 74.5t-17.5 92.5t-4.5 98.5t0 93t-3.5 76.5zM324 541q-12 4 -33.5 15.5t-44 27.5
t-42 34.5t-29 36.5t-4 33t33.5 25q18 4 32 -0.5t25.5 -14t21 -21.5t17.5 -24q1 -2 10 -16t18.5 -30.5t17.5 -30.5t8 -16q-1 -14 -9.5 -20t-21.5 1z" />
    <glyph glyph-name="uacute" unicode="&#xfa;" horiz-adv-x="449" 
d="M23 470q3 13 12 21.5t20 11.5t23 1t20 -9q14 -27 21 -66.5t10.5 -84t5.5 -90t5 -82.5q1 -15 2.5 -23.5t4 -14.5t7 -13t11.5 -20q15 -26 35 -23.5t41 18t41.5 36.5t35.5 32q2 98 3.5 175.5t11 121.5t32 48t65.5 -45q-3 -44 -9.5 -91.5t-11.5 -96.5t-5.5 -98t8.5 -94
q1 15 2.5 8.5t2.5 -20.5t1 -30t-3 -22q-7 -19 -19.5 -26t-26.5 -4q-17 -10 -36.5 4.5t-21.5 45.5q-1 8 -1 16v16q-19 -23 -41.5 -43.5t-48.5 -32.5q-13 -6 -32 -9t-33 2q-42 14 -67.5 46t-39 74.5t-17.5 92.5t-4.5 98.5t0 93t-3.5 76.5zM212.016 541q11.999 4 33.4971 15.5
q21.499 11.5 43.998 27.5q22.498 16 41.9971 34.5t28.998 36.5q9.5 18 4 33t-33.498 25q-17.999 4 -31.998 -0.5t-25.498 -14q-11.5 -9.5 -20.999 -21.5t-17.499 -24q-1 -2 -9.99902 -16q-9 -14 -18.499 -30.5q-9.5 -16.5 -17.499 -30.5q-8 -14 -8 -16q1 -14 9.5 -20
q8.49902 -6 21.499 1z" />
    <glyph glyph-name="ucircumflex" unicode="&#xfb;" horiz-adv-x="449" 
d="M23 470q3 13 12 21.5t20 11.5t23 1t20 -9q14 -27 21 -66.5t10.5 -84t5.5 -90t5 -82.5q1 -15 2.5 -23.5t4 -14.5t7 -13t11.5 -20q15 -26 35 -23.5t41 18t41.5 36.5t35.5 32q2 98 3.5 175.5t11 121.5t32 48t65.5 -45q-3 -44 -9.5 -91.5t-11.5 -96.5t-5.5 -98t8.5 -94
q1 15 2.5 8.5t2.5 -20.5t1 -30t-3 -22q-7 -19 -19.5 -26t-26.5 -4q-17 -10 -36.5 4.5t-21.5 45.5q-1 8 -1 16v16q-19 -23 -41.5 -43.5t-48.5 -32.5q-13 -6 -32 -9t-33 2q-42 14 -67.5 46t-39 74.5t-17.5 92.5t-4.5 98.5t0 93t-3.5 76.5zM128 534q-12 -14 -28 -16t-29 4
t-18.5 19t3.5 28q14 23 32 30.5t41 16.5q31 21 47.5 39t30 25.5t31 1.5t52.5 -33q15 -16 34 -24t40 -11q21 -23 19.5 -40t-15.5 -25t-36.5 -5t-41.5 20q-18 17 -33.5 38t-33.5 39z" />
    <glyph glyph-name="udieresis" unicode="&#xfc;" horiz-adv-x="449" 
d="M23 470q3 13 12 21.5t20 11.5t23 1t20 -9q14 -27 21 -66.5t10.5 -84t5.5 -90t5 -82.5q1 -15 2.5 -23.5t4 -14.5t7 -13t11.5 -20q15 -26 35 -23.5t41 18t41.5 36.5t35.5 32q2 98 3.5 175.5t11 121.5t32 48t65.5 -45q-3 -44 -9.5 -91.5t-11.5 -96.5t-5.5 -98t8.5 -94
q1 15 2.5 8.5t2.5 -20.5t1 -30t-3 -22q-7 -19 -19.5 -26t-26.5 -4q-17 -10 -36.5 4.5t-21.5 45.5q-1 8 -1 16v16q-19 -23 -41.5 -43.5t-48.5 -32.5q-13 -6 -32 -9t-33 2q-42 14 -67.5 46t-39 74.5t-17.5 92.5t-4.5 98.5t0 93t-3.5 76.5zM101 642q31 24 49 21t24.5 -21
t4 -43.5t-12.5 -46.5t-25 -31t-33 5q-7 4 -9 8q-2 2 -4.5 3t-4.5 3q-11 9 -18.5 26.5t-8 35t8 30t29.5 10.5zM279 642q31 24 49 21t24.5 -21t4 -43.5t-12.5 -46.5t-25 -31t-33 5q-7 4 -9 8q-2 2 -4.5 3t-4.5 3q-11 9 -18.5 26.5t-8 35t8 30t29.5 10.5z" />
    <glyph glyph-name="yacute" unicode="&#xfd;" horiz-adv-x="502" 
d="M-21 -272q-18 2 -28 12.5t-11.5 23t6 25t24.5 18.5q13 0 36 2t46.5 6t44 11t29.5 18q12 14 22 30t21 32q30 61 43 101.5t13.5 68t-9.5 45t-26.5 34t-37 35.5t-40.5 49l-55 87q-2 0 -8 6.5t-12.5 16.5t-12 21t-5.5 19q1 5 5 15q0 8 5 13t13 6q14 7 30 1t24 -26q-1 2 -1 4
q15 -26 26.5 -43t19.5 -29t14.5 -20.5t12.5 -16.5q28 -22 47.5 -35.5t33 -22.5t22.5 -14t16 -9q2 4 3 7t3 7q14 34 31 73t27 74l6 24t5 23q2 5 8.5 14t10.5 14q2 2 2.5 3.5t1.5 3.5q2 5 3 8t3 7q10 18 29 21q12 12 27 15q16 0 26.5 -6.5t15.5 -16t3.5 -21t-9.5 -20.5
q-1 -2 -4.5 -8.5t-4.5 -7.5q-5 -10 -10.5 -19.5t-10.5 -20.5q-20 -49 -36 -102t-31.5 -106.5t-33 -106.5t-41 -103t-55.5 -95.5t-76 -84.5q-4 -3 -10 -9q-21 -18 -39.5 -28t-39.5 -14.5t-47.5 -6t-64.5 -2.5zM238.016 541q11.999 4 33.4971 15.5q21.499 11.5 43.998 27.5
q22.498 16 41.9971 34.5t28.998 36.5q9.5 18 4 33t-33.498 25q-17.999 4 -31.998 -0.5t-25.498 -14q-11.5 -9.5 -20.999 -21.5t-17.499 -24q-1 -2 -9.99902 -16q-9 -14 -18.499 -30.5q-9.5 -16.5 -17.499 -30.5q-8 -14 -8 -16q1 -14 9.5 -20q8.49902 -6 21.499 1z" />
    <glyph glyph-name="ydieresis" unicode="&#xff;" horiz-adv-x="502" 
d="M-21 -272q-18 2 -28 12.5t-11.5 23t6 25t24.5 18.5q13 0 36 2t46.5 6t44 11t29.5 18q12 14 22 30t21 32q30 61 43 101.5t13.5 68t-9.5 45t-26.5 34t-37 35.5t-40.5 49l-55 87q-2 0 -8 6.5t-12.5 16.5t-12 21t-5.5 19q1 5 5 15q0 8 5 13t13 6q14 7 30 1t24 -26q-1 2 -1 4
q15 -26 26.5 -43t19.5 -29t14.5 -20.5t12.5 -16.5q28 -22 47.5 -35.5t33 -22.5t22.5 -14t16 -9q2 4 3 7t3 7q14 34 31 73t27 74l6 24t5 23q2 5 8.5 14t10.5 14q2 2 2.5 3.5t1.5 3.5q2 5 3 8t3 7q10 18 29 21q12 12 27 15q16 0 26.5 -6.5t15.5 -16t3.5 -21t-9.5 -20.5
q-1 -2 -4.5 -8.5t-4.5 -7.5q-5 -10 -10.5 -19.5t-10.5 -20.5q-20 -49 -36 -102t-31.5 -106.5t-33 -106.5t-41 -103t-55.5 -95.5t-76 -84.5q-4 -3 -10 -9q-21 -18 -39.5 -28t-39.5 -14.5t-47.5 -6t-64.5 -2.5zM128 642q31 24 49 21t24.5 -21t4 -43.5t-12.5 -46.5t-25 -31
t-33 5q-7 4 -9 8q-2 2 -4.5 3t-4.5 3q-11 9 -18.5 26.5t-8 35t8 30t29.5 10.5zM306 642q31 24 49 21t24.5 -21t4 -43.5t-12.5 -46.5t-25 -31t-33 5q-7 4 -9 8q-2 2 -4.5 3t-4.5 3q-11 9 -18.5 26.5t-8 35t8 30t29.5 10.5z" />
    <glyph glyph-name="slash" unicode="/" horiz-adv-x="499" 
d="M399 649q37 2 42.5 -18.5t-20.5 -58.5h-1q-33 -69 -72 -134.5l-78 -131t-75.5 -132.5t-64.5 -138q-2 -8 -2 -11q-6 -17 -18.5 -24.5t-25 -6t-23 11.5t-12.5 28q5 19 12 33t18 29q23 43 48 81l50 76t47 77.5t39 85.5q7 21 20 56t30.5 71t39 66t46.5 40z" />
    <glyph glyph-name="onequarter" unicode="&#xbc;" horiz-adv-x="686" 
d="M129.405 516.595q-9.29199 -10.6279 -19.5791 -11.624t-17.9199 4.64941q-7.63281 5.64648 -10.2871 15.9424t4.64551 22.252q25.2207 17.2705 38.8262 39.5225q13.6064 22.252 24.8887 51.4795q1.32812 0.664062 1.65918 1.32812q0.332031 0.664062 1.66016 1.32812
q3.31836 9.2998 12.9414 14.9463q9.62402 5.64551 23.5615 2.32422q0.663086 0 0.995117 -0.332031t0.996094 -0.332031q7.30078 -4.64941 9.95508 -8.63477q2.65527 -3.98535 4.64648 -11.957v-4.64941l-6.6377 -65.7607l-0.663086 -11.292v11.292l3.31836 -159.419
q0 -7.9707 1.99121 -18.5986t2.98633 -21.5879t0 -21.2559t-6.30566 -17.6025q-5.97266 -7.9707 -17.2559 -13.6172q-11.2822 -5.64551 -23.2295 -6.64258q-11.9463 -0.996094 -21.2383 4.65039q-9.29102 5.64551 -10.6191 20.9238l7.96484 94.3223l14.6016 132.85
q-6.6377 -9.96387 -11.6152 -20.9238t-10.2871 -23.5811zM205.73 622.21q0 3.32129 0.664062 5.31348v-2.65625q0 -0.664062 -0.332031 -1.99316q-0.332031 -1.32812 -0.332031 -0.664062zM421 667q37 2 42.5 -18.5t-20.5 -58.5h-1q-33 -69 -72 -134.5l-78 -131
t-75.5 -132.5t-64.5 -138q-2 -8 -2 -11q-6 -17 -18.5 -24.5t-25 -6t-23 11.5t-12.5 28q5 19 12 33t18 29q23 43 48 81l50 76t47 77.5t39 85.5q7 21 20 56t30.5 71t39 66t46.5 40zM477.316 181.009q25.3369 0 36.7695 -8.64746q11.4326 -8.64844 12.9775 -18.5322
t-4.63477 -18.2236t-15.4492 -7.10352h-1.23633q-3.70801 -1.23633 -9.5791 -1.23633q-5.87012 0 -12.0498 0.30957q-6.18066 0.308594 -12.0508 0.926758q-5.87109 0.617188 -9.5791 0q1.23633 -17.2969 0.618164 -36.4473q-0.618164 -19.1494 -2.47168 -38.2988
q-1.85449 -19.1504 -4.01758 -37.374q-2.16211 -18.2227 -4.0166 -33.0488q-1.23535 -1.85254 -1.85352 -3.39746q-0.618164 -1.54395 -1.85449 -2.7793q-6.17969 -10.502 -19.7754 -12.9727h-43.2588q-14.2129 0.617188 -16.9941 9.26562t0 20.0771
q2.78125 11.4277 8.03418 23.4736q5.25195 12.0459 7.72461 20.0762q9.26953 22.8564 13.5957 37.0645q4.3252 14.208 6.17969 23.4736q1.85352 9.2666 1.85352 16.0615t-0.618164 14.208h-8.0332t-7.41602 -0.618164q-2.47168 0 -6.17969 1.23633l-113.709 -1.23633
q-5.56152 -1.23535 -10.1963 -1.54395t-10.8145 0.308594q-6.79785 4.94238 -11.7422 11.7373q-1.85352 14.208 6.79785 24.0918q0.618164 1.23535 1.23633 1.54395q0.618164 0.30957 1.85352 1.54492q18.54 25.3271 35.8428 51.5811q17.3037 26.2539 34.2988 52.8164
q16.9941 26.5625 34.2979 53.125q17.3027 26.5625 36.4609 52.5078q3.70801 5.55957 7.41504 11.4277q3.70801 5.86914 6.79785 10.8105q9.8877 15.4434 21.9385 26.2539t23.792 14.5166q11.7422 3.70703 21.6299 -0.925781q9.8877 -4.63379 15.7588 -20.3857
q5.87012 -15.752 6.48828 -43.5508q0.618164 -27.7979 -6.79785 -70.4219q-2.47168 -25.9443 -5.87109 -51.2715q-3.39844 -25.3281 -5.25195 -51.2725q1.23535 -4.94238 1.54492 -9.5752q0.308594 -4.63281 1.54492 -9.5752zM441.473 351.505
q-1.85352 -3.08887 -4.63477 -8.03125q-2.78027 -4.94141 -5.56152 -10.501t-4.94336 -10.8105q-2.16309 -5.25098 -4.01758 -7.72168q-21.6289 -36.4463 -46.3486 -70.7314q-24.7188 -34.2842 -51.9102 -67.6416q15.4492 -1.23535 30.5898 -1.23535h29.9727
q4.94336 1.23535 8.0332 1.23535h1.23633q4.32617 1.23535 8.65137 1.85352q4.32617 0.617188 8.65234 1.85254q0.618164 17.915 4.63477 37.373q4.0166 19.459 8.65137 39.5352q4.63477 20.0771 8.65234 39.5352q4.0166 19.459 4.63477 37.373z" />
    <glyph glyph-name="onehalf" unicode="&#xbd;" horiz-adv-x="661" 
d="M393.797 32.668q11.5488 19.6953 31.249 37.0127q19.7002 17.3184 40.0801 34.6357q20.3799 17.3184 38.042 35.9951q17.6621 18.6758 25.8145 41.7666q0 0.679688 0.339844 0.679688q0.338867 0 0.338867 0.678711q0 1.3584 0.679688 2.03711
q-6.79297 28.5244 -31.249 44.8232q-15.624 -1.3584 -33.626 -1.69727q-18.002 -0.339844 -34.3057 -4.41504q-8.15234 -6.1123 -14.6055 -7.4707q-6.4541 -1.3584 -18.002 0q-7.47266 3.39648 -11.5488 9.16895t-4.75488 11.2051q-7.47266 7.4707 -8.15234 17.6582
q-0.678711 10.1865 8.15234 19.6953q-1.3584 -0.679688 0.339844 1.69727t3.05664 3.73535q6.79297 6.79102 11.8877 7.81055q5.0957 1.01855 16.6436 5.09277q17.6621 5.43359 35.3252 9.16895q17.6621 3.73535 36.6826 1.69727q24.4561 -2.03711 47.5527 -14.6016
q23.0967 -12.5635 35.6641 -33.9561q12.5674 -21.3936 11.209 -51.6152t-24.4551 -67.5742q-10.8691 -22.4111 -25.1348 -43.4648q-14.2666 -21.0527 -27.8525 -42.1064q-1.3584 -2.7168 -3.05664 -5.43262q-1.69824 -2.7168 -3.73633 -6.1123
q12.2275 -5.43359 22.0781 -9.84766q9.84961 -4.41406 20.0391 -6.79102q10.1904 -2.37793 22.418 -2.37793t29.8906 4.0752q19.0205 -5.43262 22.7568 -19.6953q3.73633 -14.2617 -5.77441 -24.4482q0 -1.3584 -0.339844 -3.39648q-0.338867 -2.03711 -0.338867 -3.39551
q-2.71777 -9.50781 -13.5869 -11.5449q-19.7002 0 -39.4004 2.37695t-39.4004 5.77246q-9.51074 2.03711 -18.6816 5.09375q-9.1709 3.05566 -18.6816 1.69727q-13.5859 -0.678711 -26.833 -3.39551q-13.2471 -2.71582 -27.5127 -4.07422
q-18.3418 -5.43359 -31.5879 3.39551q-13.2471 8.8291 -11.8887 31.2402q0 4.0752 2.03809 8.8291t4.75488 8.82812q2.71777 4.0752 4.75586 7.4707t2.7168 4.0752zM421 667q37 2 42.5 -18.5t-20.5 -58.5h-1q-33 -69 -72 -134.5l-78 -131t-75.5 -132.5t-64.5 -138
q-2 -8 -2 -11q-6 -17 -18.5 -24.5t-25 -6t-23 11.5t-12.5 28q5 19 12 33t18 29q23 43 48 81l50 76t47 77.5t39 85.5q7 21 20 56t30.5 71t39 66t46.5 40zM129.405 516.595q-9.29199 -10.6279 -19.5791 -11.624t-17.9199 4.64941q-7.63281 5.64648 -10.2871 15.9424
t4.64551 22.252q25.2207 17.2705 38.8262 39.5225q13.6064 22.252 24.8887 51.4795q1.32812 0.664062 1.65918 1.32812q0.332031 0.664062 1.66016 1.32812q3.31836 9.2998 12.9414 14.9463q9.62402 5.64551 23.5615 2.32422q0.663086 0 0.995117 -0.332031
t0.996094 -0.332031q7.30078 -4.64941 9.95508 -8.63477q2.65527 -3.98535 4.64648 -11.957v-4.64941l-6.6377 -65.7607l-0.663086 -11.292v11.292l3.31836 -159.419q0 -7.9707 1.99121 -18.5986t2.98633 -21.5879t0 -21.2559t-6.30566 -17.6025
q-5.97266 -7.9707 -17.2559 -13.6172q-11.2822 -5.64551 -23.2295 -6.64258q-11.9463 -0.996094 -21.2383 4.65039q-9.29102 5.64551 -10.6191 20.9238l7.96484 94.3223l14.6016 132.85q-6.6377 -9.96387 -11.6152 -20.9238t-10.2871 -23.5811zM205.73 622.21
q0 3.32129 0.664062 5.31348v-2.65625q0 -0.664062 -0.332031 -1.99316q-0.332031 -1.32812 -0.332031 -0.664062z" />
    <glyph glyph-name="threequarters" unicode="&#xbe;" horiz-adv-x="676" 
d="M137.95 511.63q-6.20215 -0.563477 -13.249 0.563477t-13.249 3.37988q-6.20117 2.25391 -10.4297 5.63379t-4.22852 6.75977q-3.94629 10.1406 3.66406 16.3379q7.61133 6.19629 20.8604 10.9854q13.249 4.78809 28.4707 8.73145q15.2227 3.94336 27.3438 10.1406
t17.4775 15.4922q5.35547 9.2959 -1.97363 23.9424q-2.81836 12.3945 -15.5039 18.5908q-12.6855 6.19727 -29.3164 8.4502q-16.6318 2.25391 -32.9814 1.97168q-16.3496 -0.28125 -25.3701 -0.844727q-11.8398 1.12695 -17.4775 8.4502q-5.6377 7.32422 -5.07422 15.2109
q-1.69141 13.5205 -0.845703 21.6895q0.845703 8.16797 3.10156 12.6748q2.25488 4.50684 5.6377 6.47852t7.3291 1.97168l65.9619 0.563477q40.5928 -2.25293 64.5537 -15.7734q23.96 -13.5205 34.9541 -31.2666q10.9941 -17.7451 11.5576 -36.0547
q0.563477 -18.3086 -5.07422 -30.7031q-3.94629 -8.4502 -11.8389 -14.3652q-7.89355 -5.91504 -14.6592 -12.6758q-6.76465 -6.19629 -13.8125 -12.3936q-7.04688 -6.19629 -14.9404 -10.7031q22.5518 -11.2676 37.7734 -29.8584q15.2227 -18.5908 20.2969 -42.5332
t-1.12793 -52.1104q-6.20117 -28.167 -26.498 -58.5889q-2.81836 -3.37988 -5.35547 -6.75977q-2.53711 -3.38086 -5.35645 -6.76074q-13.5303 -14.6475 -34.9541 -28.4492t-45.9482 -22.8154t-49.8945 -10.7041t-45.666 7.88672q-5.07422 2.81738 -7.89355 7.32422
q-9.58398 6.19629 -12.1211 18.5908q-2.53711 12.3936 4.22852 32.6738q2.81836 5.07031 5.6377 7.60547t8.45703 4.22559q6.20117 0.563477 10.9932 -1.12695t9.30273 -3.66211q4.50977 -1.97168 9.02051 -3.94336q4.50977 -1.97168 10.1484 -1.97168
q14.6582 0 35.2363 7.04199t40.3096 18.8721q19.7324 11.8311 34.6729 27.6045q14.9404 15.7744 18.3232 32.6748t-9.02051 34.083t-46.7939 32.3926zM421 667q37 2 42.5 -18.5t-20.5 -58.5h-1q-33 -69 -72 -134.5l-78 -131t-75.5 -132.5t-64.5 -138q-2 -8 -2 -11
q-6 -17 -18.5 -24.5t-25 -6t-23 11.5t-12.5 28q5 19 12 33t18 29q23 43 48 81l50 76t47 77.5t39 85.5q7 21 20 56t30.5 71t39 66t46.5 40zM477.316 181.009q25.3369 0 36.7695 -8.64746q11.4326 -8.64844 12.9775 -18.5322t-4.63477 -18.2236t-15.4492 -7.10352h-1.23633
q-3.70801 -1.23633 -9.5791 -1.23633q-5.87012 0 -12.0498 0.30957q-6.18066 0.308594 -12.0508 0.926758q-5.87109 0.617188 -9.5791 0q1.23633 -17.2969 0.618164 -36.4473q-0.618164 -19.1494 -2.47168 -38.2988q-1.85449 -19.1504 -4.01758 -37.374
q-2.16211 -18.2227 -4.0166 -33.0488q-1.23535 -1.85254 -1.85352 -3.39746q-0.618164 -1.54395 -1.85449 -2.7793q-6.17969 -10.502 -19.7754 -12.9727h-43.2588q-14.2129 0.617188 -16.9941 9.26562t0 20.0771q2.78125 11.4277 8.03418 23.4736
q5.25195 12.0459 7.72461 20.0762q9.26953 22.8564 13.5957 37.0645q4.3252 14.208 6.17969 23.4736q1.85352 9.2666 1.85352 16.0615t-0.618164 14.208h-8.0332t-7.41602 -0.618164q-2.47168 0 -6.17969 1.23633l-113.709 -1.23633q-5.56152 -1.23535 -10.1963 -1.54395
t-10.8145 0.308594q-6.79785 4.94238 -11.7422 11.7373q-1.85352 14.208 6.79785 24.0918q0.618164 1.23535 1.23633 1.54395q0.618164 0.30957 1.85352 1.54492q18.54 25.3271 35.8428 51.5811q17.3037 26.2539 34.2988 52.8164q16.9941 26.5625 34.2979 53.125
q17.3027 26.5625 36.4609 52.5078q3.70801 5.55957 7.41504 11.4277q3.70801 5.86914 6.79785 10.8105q9.8877 15.4434 21.9385 26.2539t23.792 14.5166q11.7422 3.70703 21.6299 -0.925781q9.8877 -4.63379 15.7588 -20.3857q5.87012 -15.752 6.48828 -43.5508
q0.618164 -27.7979 -6.79785 -70.4219q-2.47168 -25.9443 -5.87109 -51.2715q-3.39844 -25.3281 -5.25195 -51.2725q1.23535 -4.94238 1.54492 -9.5752q0.308594 -4.63281 1.54492 -9.5752zM441.473 351.505q-1.85352 -3.08887 -4.63477 -8.03125
q-2.78027 -4.94141 -5.56152 -10.501t-4.94336 -10.8105q-2.16309 -5.25098 -4.01758 -7.72168q-21.6289 -36.4463 -46.3486 -70.7314q-24.7188 -34.2842 -51.9102 -67.6416q15.4492 -1.23535 30.5898 -1.23535h29.9727q4.94336 1.23535 8.0332 1.23535h1.23633
q4.32617 1.23535 8.65137 1.85352q4.32617 0.617188 8.65234 1.85254q0.618164 17.915 4.63477 37.373q4.0166 19.459 8.65137 39.5352q4.63477 20.0771 8.65234 39.5352q4.0166 19.459 4.63477 37.373z" />
    <glyph glyph-name="onesuperior" unicode="&#xb9;" horiz-adv-x="245" 
d="M107.357 505.266q-7.53418 -8.61719 -15.876 -9.42578q-8.34082 -0.807617 -14.5303 3.77051q-6.18848 4.57715 -8.34082 12.9258q-2.15234 8.34766 3.7666 18.042q20.4502 14.0029 31.4824 32.0449q11.0312 18.043 20.1797 41.7402q1.07715 0.538086 1.3457 1.07617
q0.269531 0.539062 1.3457 1.07812q2.69043 7.53906 10.4932 12.1172q7.80371 4.57812 19.1045 1.88477q0.538086 0 0.807617 -0.268555q0.268555 -0.269531 0.806641 -0.269531q5.91992 -3.77051 8.07227 -7.00098q2.15332 -3.23242 3.76758 -9.69531v-3.76953
l-5.38184 -53.3184l-0.538086 -9.15625v9.15625l2.69043 -129.258q0 -6.46289 1.61523 -15.0801q1.61426 -8.61719 2.4209 -17.5039q0.807617 -8.88672 0 -17.2344q-0.806641 -8.34766 -5.1123 -14.2725q-4.84277 -6.46289 -13.9912 -11.041
q-9.14844 -4.57715 -18.8359 -5.38574q-9.68652 -0.807617 -17.2207 3.77051q-7.5332 4.57715 -8.61035 16.9648l6.45801 76.4775l11.8398 107.715q-5.38184 -8.07812 -9.41797 -16.9648t-8.34082 -19.1191zM169.244 590.898q0 2.69336 0.538086 4.30859v-2.1543
q0 -0.539062 -0.269531 -1.61523q-0.268555 -1.07812 -0.268555 -0.539062z" />
    <glyph glyph-name="ordmasculine" unicode="&#xba;" horiz-adv-x="336" 
d="M220.318 650.007q25.1787 -11.3066 39.6562 -29.8359t21.7158 -41.4551q7.23926 -22.9258 9.12793 -48.6787q1.8877 -25.7529 2.51758 -52.1338q0.628906 -15.0742 -2.20312 -34.8604q-2.83301 -19.7852 -11.0156 -33.6035q-12.5889 -20.0996 -28.3252 -33.918
t-35.8789 -26.3809q-18.8838 -3.76855 -37.1387 -4.71094q-18.2539 -0.942383 -33.9902 0t-27.3809 3.76855q-11.6455 2.82715 -16.6807 6.5957q-12.5898 9.4209 -20.7725 19.1572q-8.18262 9.73535 -13.8477 20.4131q-5.66504 10.6787 -9.75684 22.9268t-8.49805 26.0664
q-6.92383 22.6123 -5.34961 53.3896q1.57324 30.7773 10.3857 61.5547q8.8125 30.7783 24.8633 56.8447t38.082 39.2568q5.66504 3.14062 13.5332 5.9668q7.86816 2.82715 20.1426 3.14062q12.2744 0.314453 29.2695 -2.82617q16.9961 -3.14062 41.5439 -10.6777z
M137.23 599.758q-5.66504 -2.5127 -10.0713 -8.79395t-7.23828 -13.8184q-2.83301 -7.53711 -5.35059 -14.4463t-4.40625 -10.6777q-2.51758 -7.53809 -7.23828 -20.7285q-4.72168 -13.1904 -7.86816 -28.5791q-3.14746 -15.3887 -2.51855 -31.4053
q0.629883 -16.0166 8.18359 -30.1494q7.55273 -14.1328 24.2334 -24.1826t45.6357 -13.8184q17.625 -2.5127 29.8994 5.9668t20.1426 22.2988q7.86816 13.8184 12.2744 29.835t6.29395 28.8936q1.88867 12.876 2.20312 19.7852q0.31543 6.90918 0.944336 2.5127
q-1.25879 16.959 -6.29395 35.4883q-5.03613 18.5293 -16.3662 32.6611q-11.3301 14.1328 -31.1582 20.7285q-19.8281 6.59473 -51.3008 -1.57031z" />
    <glyph glyph-name="numbersign" unicode="#" horiz-adv-x="641" 
d="M46 157q-21 2 -30.5 14.5t-9 26.5t11.5 25.5t32 12.5l49 -2q-25 3 -24.5 1.5t12.5 -3.5t29.5 -3.5t26.5 0.5q4 20 7 40t9 40q8 30 17.5 59.5t18.5 59.5q-2 -1 -3 -1t-3 -1h1q4 -1 -3.5 -2t-11.5 -3q-6 -2 -12.5 -4t-13.5 -4l-81 -2q-21 2 -30.5 14.5t-9 26.5t11.5 25.5
t32 12.5q4 0 10.5 1.5t5.5 -2.5l124 -3q8 34 13.5 68t4.5 70q4 21 17 30t27 7.5t25 -13.5t10 -33l-34 -126l52 2t52 1q8 26 15 55t10 75q4 21 17 30t27 7.5t25 -13.5t10 -33q-5 -30 -15.5 -62.5t-25.5 -59.5h12l112 9q13 1 23.5 -4.5t16 -15.5t4.5 -23t-12 -26
q-22 -11 -45 -10.5t-45.5 5.5t-45 10.5t-43.5 3.5q-2 -30 -3.5 -53.5t-4 -46t-5.5 -46t-9 -53.5l167 -1q22 0 37 -21l1 -1q6 -23 -3 -38t-32 -20q-8 2 -14.5 3t-14.5 5l-155 19q-14 -41 -15.5 -77t-4.5 -80q-6 -17 -18.5 -24.5t-25 -6t-23 11.5t-12.5 28q5 21 8 38.5t6.5 33
t9 31.5t15.5 35h-137q-3 -12 -4.5 -25.5t-4 -31t-5 -41t-6.5 -54.5q-6 -17 -18.5 -24.5t-25 -6t-23 11.5t-12.5 28q5 37 12.5 69t22.5 64zM193 229q29 -1 57 -0.5t56 2.5q18 0 38 3q2 3 6.5 56t16.5 155l-112 -5zM440 491q1 2 1 3.5t1 3.5q-1 -2 -2 -3.5t-1 -3.5h1z" />
    <glyph glyph-name="ampersand" unicode="&#x26;" 
d="M604 23q-10 -26 -24.5 -31.5t-32 1.5t-37 23.5t-39 34.5t-38 34t-34.5 23q-20 -26 -43 -50t-49 -45q-12 -10 -30 -16.5t-37 -8.5t-38.5 0.5t-34.5 10.5q-49 26 -71 68.5t-20.5 90.5t26 96.5t68.5 86.5q-28 38 -47 76.5t-19.5 74t23.5 66.5t81 53q28 11 51 13t44.5 -3
t43 -17.5t47.5 -30.5q6 -6 10 -13t6 -14q14 -28 3 -58t-33.5 -58.5t-50 -53.5t-47.5 -42q14 -15 26.5 -27t25 -23t25 -22.5t27.5 -26.5q49 48 87 85.5t81 72.5q5 6 11.5 5t11 -5.5t5.5 -13t-6 -17.5l-52 -78q-20 -26 -38.5 -52.5t-36.5 -52.5q10 -25 33.5 -42t48.5 -33
t46.5 -34.5t26.5 -46.5zM238 416q15 -8 28.5 -3t24 16t19 26t13.5 26q8 17 4.5 30.5t-23.5 19.5q-15 5 -36.5 11t-40 3t-29 -19t-3.5 -53q5 -19 17.5 -36t25.5 -21zM228 269q-32 -47 -40.5 -82.5t-2 -58.5t25 -33.5t39.5 -5.5q9 2 29.5 29t54.5 66z" />
    <glyph glyph-name="twosuperior" unicode="&#xb2;" horiz-adv-x="336" 
d="M83.5479 388.188q10.6719 18.21 28.877 34.2217q18.2041 16.0127 37.0361 32.0254q18.833 16.0117 35.1543 33.2793q16.3213 17.2686 23.8545 38.6182q0 0.62793 0.313477 0.62793q0.314453 0 0.314453 0.62793q0 1.25586 0.626953 1.88379
q-6.27734 26.373 -28.876 41.4434q-14.4385 -1.25586 -31.0732 -1.57031q-16.6357 -0.313477 -31.7012 -4.08105q-7.5332 -5.65137 -13.4971 -6.90723q-5.96289 -1.25586 -16.6348 0q-6.90527 3.13965 -10.6719 8.47656q-3.7666 5.33789 -4.39453 10.3613
q-6.90527 6.90723 -7.53223 16.3262q-0.62793 9.41895 7.53223 18.21q-1.25488 -0.62793 0.314453 1.56934q1.56934 2.19824 2.82422 3.4541q6.27832 6.2793 10.9863 7.22168q4.70801 0.941406 15.3799 4.70898q16.3213 5.02344 32.6426 8.47656
q16.3213 3.4541 33.8984 1.57031q22.5986 -1.88379 43.9424 -13.5q21.3428 -11.6172 32.9561 -31.3965q11.6133 -19.7803 10.3584 -47.7227q-1.25586 -27.9434 -22.5996 -62.4795q-10.0439 -20.7217 -23.2266 -40.1875t-25.7373 -38.9316
q-1.25586 -2.51172 -2.8252 -5.02344t-3.45215 -5.65137q11.2988 -5.02344 20.4014 -9.10547q9.10254 -4.08105 18.5186 -6.2793q9.41602 -2.19727 20.7158 -2.19727t27.6211 3.76758q17.5771 -5.02344 21.0293 -18.21t-5.33594 -22.6055q0 -1.25586 -0.313477 -3.13965
q-0.314453 -1.88379 -0.314453 -3.13965q-2.51074 -8.79102 -12.5547 -10.6748q-18.2051 0 -36.4092 2.19727q-18.2051 2.19824 -36.4092 5.33789q-8.78906 1.88379 -17.2637 4.70898q-8.47461 2.82617 -17.2627 1.57031q-12.5547 -0.62793 -24.7959 -3.13965
t-25.4238 -3.76758q-16.9492 -5.02344 -29.1904 3.13965t-10.9854 28.8848q0 3.76758 1.88379 8.16309q1.88281 4.39551 4.39355 8.16309q2.51172 3.76758 4.39453 6.90723t2.51074 3.76758z" />
    <glyph glyph-name="threesuperior" unicode="&#xb3;" horiz-adv-x="313" 
d="M144.988 449.045q-6.13379 -0.558594 -13.1035 0.55957q-6.9707 1.11914 -13.1045 3.35742t-10.3154 5.59473q-4.18262 3.35742 -4.18262 6.71484q-3.90332 10.0713 3.62402 16.2256q7.52832 6.1543 20.6328 10.9102q13.1035 4.75586 28.1592 8.67285
q15.0557 3.91602 27.0439 10.0713q11.9893 6.1543 17.2871 15.3857q5.29688 9.23242 -1.95215 23.7793q-2.78809 12.3096 -15.335 18.4639q-12.5459 6.1543 -28.9961 8.39258q-16.4492 2.23828 -32.6201 1.95801q-16.1709 -0.279297 -25.0928 -0.838867
q-11.71 1.11914 -17.2861 8.39258t-5.01855 15.1064q-1.67285 13.4287 -0.835938 21.541q0.835938 8.11328 3.06641 12.5898q2.23047 4.47559 5.57617 6.43359q3.3457 1.95898 7.24902 1.95898l65.2412 0.55957q40.1484 -2.23828 63.8477 -15.667
q23.6982 -13.4277 34.5723 -31.0527q10.873 -17.624 11.4307 -35.8086q0.557617 -18.1836 -5.01855 -30.4932q-3.90332 -8.39258 -11.71 -14.2676q-7.80664 -5.87402 -14.498 -12.5889q-6.69141 -6.1543 -13.6611 -12.3086q-6.9707 -6.15527 -14.7773 -10.6309
q22.3047 -11.1904 37.3604 -29.6543t20.0742 -42.2432q5.01855 -23.7783 -1.11523 -51.7539t-26.208 -58.1895q-2.78809 -3.35645 -5.29688 -6.71387q-2.50977 -3.35742 -5.29785 -6.71387q-13.3828 -14.5479 -34.5723 -28.2559t-45.4463 -22.6602
q-24.2559 -8.95215 -49.3486 -10.6299q-25.0928 -1.67871 -45.167 7.83301q-5.01855 2.79688 -7.80664 7.27344q-9.47949 6.1543 -11.9883 18.4639q-2.50977 12.3086 4.18164 32.4512q2.78809 5.03613 5.57617 7.55371t8.36426 4.19629q6.13379 0.55957 10.874 -1.11914
q4.73926 -1.67871 9.2002 -3.63672t8.92188 -3.91699q4.46094 -1.95801 10.0371 -1.95801q14.498 0 34.8506 6.99414q20.3535 6.99316 39.8701 18.7432t34.2939 27.416q14.7764 15.666 18.1221 32.4512q3.3457 16.7861 -8.92188 33.8506q-12.2676 17.0654 -46.2822 32.1719z
" />
    <glyph glyph-name="degree" unicode="&#xb0;" horiz-adv-x="381" 
d="M49 518q-1 27 9 53t27.5 46.5t40 34.5t47.5 17.5t49.5 -5t45.5 -32.5q22 -24 37 -62t15.5 -76t-17 -68.5t-59.5 -40.5q-56 -12 -92.5 -9t-58.5 20.5t-32 48t-12 73.5zM106 458q4 -23 19 -32t35 -6.5t41.5 13.5t39.5 28t28.5 37t7.5 39.5t-21.5 37.5t-59.5 30
q-41 4 -61 -13.5t-27.5 -42.5t-6 -51.5t4.5 -39.5z" />
    <glyph glyph-name="parenleft" unicode="(" horiz-adv-x="318" 
d="M135 555q9 10 28 21t41.5 18.5t45.5 10t40 -4.5q-6 -14 -16 -25t-22.5 -20.5t-25.5 -19t-23 -19.5q-42 -42 -67 -98.5t-31.5 -117t4.5 -119t41 -104.5q32 -51 71.5 -107t81.5 -100q16 -20 -7 -33q-36 28 -74.5 61t-74.5 72t-65.5 84t-46.5 96q-11 37 -13.5 74t0.5 75
q2 15 6 29.5t8 28.5q7 27 15.5 52t20 49t27 48t36.5 49z" />
    <glyph glyph-name="parenright" unicode=")" horiz-adv-x="318" 
d="M186.008 555q-8.99902 10 -27.998 21t-41.4971 18.5q-22.499 7.5 -45.4971 10q-22.999 2.5 -39.998 -4.5q6 -14 15.999 -25t22.499 -20.5q12.499 -9.5 25.498 -19t22.999 -19.5q41.9971 -42 66.9951 -98.5q24.999 -56.5 31.499 -117q6.49902 -60.5 -4.5 -119
t-40.998 -104.5q-31.998 -51 -71.4951 -107q-39.498 -56 -81.4951 -100q-15.999 -20 6.99902 -33q35.998 28 74.4961 61q38.4971 33 74.4951 72t65.4961 84t46.4971 96q11 37 13.499 74q2.5 37 -0.5 75q-1.99902 15 -5.99902 29.5t-8 28.5q-6.99902 27 -15.499 52
q-8.49902 25 -19.999 49q-11.499 24 -26.998 48t-36.498 49z" />
    <glyph glyph-name="asterisk" unicode="*" horiz-adv-x="454" 
d="M85 360q-18 -11 -33.5 -7t-24 15.5t-7 27t17.5 29.5q14 6 31.5 9.5t35.5 8.5t35 12.5t29 19.5q-20 17 -41 31t-44 24q-13 13 -15 27.5t4.5 25t20 16t30.5 0.5q22 -19 37.5 -44t35.5 -45q4 12 3 28.5t-3 33.5t-3.5 33.5t3 29.5t17 19.5t36.5 4.5q12 -8 19.5 -19t5.5 -26
q0 -8 -5 -20t-11.5 -26t-12 -30t-6.5 -33q14 8 31 21t34.5 27.5t33 28.5t27.5 25q17 6 31 2t21.5 -14t7 -24.5t-12.5 -28.5q-37 -21 -76 -39t-77 -39l-13 13q5 -15 22 -26.5t37.5 -22t41 -20t31 -20t8 -23.5t-27.5 -29q-43 9 -75.5 39t-53.5 69q8 -13 12.5 -33t4 -40.5
t-4.5 -38.5t-12.5 -27.5t-21.5 -8t-30 21.5q-4 29 5.5 64t16.5 62q-8 -13 -22.5 -24t-31 -20.5t-33 -19.5t-28.5 -20z" />
    <glyph glyph-name="plus" unicode="+" horiz-adv-x="527" 
d="M75 275q-21 2 -30.5 14.5t-9 26.5t11.5 25.5t32 12.5q41 -5 81 -10.5t82 -6.5q1 36 -1.5 74t-7.5 82q3 18 14 27.5t24 10t24.5 -7.5t16.5 -26q-7 -45 -11 -83t-6 -76q35 2 70.5 7t71.5 4q20 -6 27.5 -19.5t4.5 -27.5t-15.5 -23.5t-33.5 -7.5q-5 2 -13.5 1.5t-7.5 4.5l1 1
q-28 5 -54 8t-52 5q1 -30 3 -61t7 -66q-1 -21 -12.5 -32t-25.5 -11.5t-26.5 9t-14.5 30.5q5 36 9 68t6 63q-40 -1 -80 -5.5t-85 -10.5z" />
    <glyph glyph-name="hyphen" unicode="-" horiz-adv-x="358" 
d="M88 243q-21 2 -30.5 14.5t-9 26.5t11.5 25.5t32 12.5q29 -16 60.5 -18.5t60.5 0t53.5 5.5t40 0t20 -17t-6.5 -47q-13 -4 -26 -3.5t-26 3t-26.5 6t-26.5 4.5q-32 3 -63.5 -1.5t-63.5 -10.5z" />
    <glyph glyph-name="equal" unicode="=" 
d="M411 457q9 -1 23.5 0t31 2.5t31.5 1.5t25 -4q13 -5 18 -14t-0.5 -17.5t-22 -14.5t-44.5 -6q-42 -1 -78.5 -0.5t-72 1t-72 0.5t-78.5 -2q-35 -1 -50.5 8.5t-15.5 21.5t12.5 23t34.5 14q67 -5 129.5 -5.5t128.5 -8.5zM249 254q-9 1 -23.5 0t-31 -2.5t-31.5 -1.5t-25 4
q-14 5 -18.5 14t1 17.5t21.5 14.5t45 6q42 1 78.5 0.5t72 -1t72 -0.5t78.5 2q35 1 50.5 -8.5t15.5 -21.5t-12.5 -23t-34.5 -14q-67 5 -129.5 5.5t-128.5 8.5z" />
    <glyph glyph-name="less" unicode="&#x3c;" horiz-adv-x="459" 
d="M132 313q28 -25 58 -41.5t63 -33t71 -37t83 -54.5q12 -17 9.5 -32.5t-13 -24.5t-26.5 -9t-31 15q-52 42 -98 72t-85 56t-70 52t-52 60q45 22 82 45.5t72 49.5t70.5 56.5t77.5 66.5q17 6 31 2t21.5 -14t7 -24.5t-12.5 -28.5q-72 -29 -132 -71t-119 -90l1 -1q1 1 -0.5 -1
t-3.5 -5t-3.5 -5.5t-0.5 -2.5z" />
    <glyph glyph-name="greater" unicode="&#x3e;" horiz-adv-x="459" 
d="M328.008 313q-27.998 -25 -57.9961 -41.5t-62.9961 -33t-70.9961 -37q-37.9971 -20.5 -82.9951 -54.5q-11.999 -17 -9.49902 -32.5t12.999 -24.5q10.5 -9 26.499 -9t30.998 15q51.9961 42 97.9941 72q45.9971 30 84.9941 56q38.998 26 69.9961 52t51.9971 60
q-44.998 22 -81.9951 45.5q-36.998 23.5 -71.9961 49.5t-70.4951 56.5q-35.498 30.5 -77.4961 66.5q-16.999 6 -30.998 2t-21.498 -14q-7.5 -10 -7 -24.5t12.499 -28.5q71.9961 -29 131.992 -71t118.993 -90l-1 -1q-1 1 0.5 -1t3.49902 -5q2 -3 3.5 -5.5t0.5 -2.5z" />
    <glyph glyph-name="guilsinglleft" unicode="&#x2039;" horiz-adv-x="356" 
d="M266 488q28 -12 31 -30.5t-10.5 -40t-38.5 -45t-53 -46.5t-54.5 -43.5t-41.5 -35.5q9 -12 30.5 -35.5t46.5 -49.5t48 -49t35 -32q12 -17 12.5 -32t-7 -23.5t-20.5 -8t-28 15.5q-28 34 -61.5 70t-61.5 78q-20 29 -27 47.5t-4 31.5t14.5 22.5t28 21t36 27t39.5 40.5
q12 15 20 32t16.5 33.5t20 30t29.5 21.5z" />
    <glyph glyph-name="guilsinglright" unicode="&#x203a;" horiz-adv-x="356" 
d="M104.017 488q-27.999 -12 -30.998 -30.5q-3 -18.5 10.499 -40t38.498 -45q24.998 -23.5 52.9961 -46.5t54.4971 -43.5q26.498 -20.5 41.4971 -35.5q-8.99902 -12 -30.498 -35.5t-46.4971 -49.5t-47.9971 -49t-34.998 -32q-11.999 -17 -12.499 -32t7 -23.5
q7.49902 -8.5 20.498 -8t27.999 15.5q27.998 34 61.4961 70t61.4961 78q19.999 29 26.998 47.5q7 18.5 4 31.5t-14.499 22.5t-27.998 21t-35.998 27t-39.498 40.5q-11.999 15 -19.999 32q-7.99902 17 -16.498 33.5q-8.5 16.5 -19.999 30t-29.498 21.5z" />
    <glyph glyph-name="guillemotleft" unicode="&#xab;" horiz-adv-x="479" 
d="M266 488q28 -12 31 -30.5t-10.5 -40t-38.5 -45t-53 -46.5t-54.5 -43.5t-41.5 -35.5q9 -12 30.5 -35.5t46.5 -49.5t48 -49t35 -32q12 -17 12.5 -32t-7 -23.5t-20.5 -8t-28 15.5q-28 34 -61.5 70t-61.5 78q-20 29 -27 47.5t-4 31.5t14.5 22.5t28 21t36 27t39.5 40.5
q12 15 20 32t16.5 33.5t20 30t29.5 21.5zM406 488q28 -12 31 -30.5t-10.5 -40t-38.5 -45t-53 -46.5t-54.5 -43.5t-41.5 -35.5q9 -12 30.5 -35.5t46.5 -49.5t48 -49t35 -32q12 -17 12.5 -32t-7 -23.5t-20.5 -8t-28 15.5q-28 34 -61.5 70t-61.5 78q-20 29 -27 47.5t-4 31.5
t14.5 22.5t28 21t36 27t39.5 40.5q12 15 20 32t16.5 33.5t20 30t29.5 21.5z" />
    <glyph glyph-name="guillemotright" unicode="&#xbb;" horiz-adv-x="479" 
d="M94.0166 488q-27.999 -12 -30.998 -30.5q-3 -18.5 10.499 -40t38.498 -45q24.998 -23.5 52.9961 -46.5t54.4971 -43.5q26.498 -20.5 41.4971 -35.5q-8.99902 -12 -30.498 -35.5t-46.4971 -49.5t-47.9971 -49t-34.998 -32q-11.999 -17 -12.499 -32t7 -23.5
q7.49902 -8.5 20.498 -8t27.999 15.5q27.998 34 61.4961 70t61.4961 78q19.999 29 26.998 47.5q7 18.5 4 31.5t-14.499 22.5t-27.998 21t-35.998 27t-39.498 40.5q-11.999 15 -19.999 32q-7.99902 17 -16.498 33.5q-8.5 16.5 -19.999 30t-29.498 21.5zM234.017 488
q-27.999 -12 -30.998 -30.5q-3 -18.5 10.499 -40t38.498 -45q24.998 -23.5 52.9961 -46.5t54.4971 -43.5q26.498 -20.5 41.4971 -35.5q-8.99902 -12 -30.498 -35.5t-46.4971 -49.5t-47.9971 -49t-34.998 -32q-11.999 -17 -12.499 -32t7 -23.5q7.49902 -8.5 20.498 -8
t27.999 15.5q27.998 34 61.4961 70t61.4961 78q19.999 29 26.998 47.5q7 18.5 4 31.5t-14.499 22.5t-27.998 21t-35.998 27t-39.498 40.5q-11.999 15 -19.999 32q-7.99902 17 -16.498 33.5q-8.5 16.5 -19.999 30t-29.498 21.5z" />
    <glyph glyph-name="periodcentered" unicode="&#xb7;" horiz-adv-x="202" 
d="M154 375q9 -14 9 -27.5t-6 -24.5q-1 -2 -1 -2.5t-1 -2.5q-1 -4 -1 -7t-2 -6q9 -15 8 -30t-9.5 -25t-22 -12.5t-28.5 8.5q-16 11 -18 29q-14 -2 -27 9q-10 7 -14 15.5t-4 17t4 16.5t11 13q1 19 17 31t39 4q21 10 46 -6z" />
    <glyph glyph-name="plusminus" unicode="&#xb1;" horiz-adv-x="459" 
d="M119 -4q-21 2 -30.5 14.5t-9 26.5t11.5 25.5t32 12.5q34 -8 59.5 -12t48.5 -4.5t48 2.5t60 11q18 -5 26 -16.5t7.5 -24.5t-10 -24t-27.5 -14q-35 8 -59.5 12.5t-47.5 5t-48 -3t-61 -11.5zM69.6504 242.781q-18.1025 1.72168 -26.291 12.4854
q-8.18945 10.7627 -7.75879 22.8164q0.431641 12.0547 9.91309 21.9561q9.48242 9.90234 27.584 10.7627q35.3418 -4.30469 69.8223 -9.04004q34.4805 -4.73633 70.6836 -5.59668q0.862305 30.9961 -1.29297 63.7158q-2.1543 32.7188 -6.46484 70.6035
q2.58594 15.498 12.0684 23.6777q9.48145 8.17969 20.6875 8.61035t21.1191 -6.45703q9.91309 -6.88867 14.2227 -22.3867q-6.0332 -38.7461 -9.48145 -71.4648q-3.44824 -32.7197 -5.17188 -65.4385q30.1699 1.72266 60.7705 6.02734q30.6016 4.30566 61.6328 3.44434
q17.2402 -5.16602 23.7051 -16.79t3.87891 -23.6777q-2.58594 -12.0547 -13.3604 -20.2344q-10.7754 -8.17969 -28.877 -6.45801q-4.31055 1.72266 -11.6377 1.29199q-7.32617 -0.430664 -6.46484 3.87402l0.862305 0.861328q-24.1357 4.30566 -46.5479 6.88867
t-44.8242 4.30469q0.862305 -25.8311 2.58594 -52.5225q1.72461 -26.6914 6.03418 -56.8271q-0.862305 -18.082 -10.7754 -27.5527q-9.91309 -9.47168 -21.9805 -9.90234q-12.0684 -0.430664 -22.8428 7.75q-10.7754 8.17969 -12.499 26.2607
q4.30957 30.9971 7.75781 58.5498t5.17188 54.2441q-34.4795 -0.861328 -68.96 -4.73535q-34.4805 -3.875 -73.2695 -9.04102z" />
    <glyph glyph-name="braceleft" unicode="{" horiz-adv-x="381" 
d="M281 652q21 1 33 -10t13.5 -25t-7.5 -27t-30 -17q-14 -2 -27.5 -2t-27.5 -4q-22 -7 -32.5 -23.5t-13 -39t-1 -49t3 -52.5t0 -49t-10.5 -39q-7 -11 -24 -23.5t-25 -18.5q-6 -5 -11 -9.5t-10 -7.5q30 -21 45.5 -43.5t22.5 -46.5t8 -49t1.5 -51t2.5 -52.5t11 -53.5
q9 -22 11.5 -35t7.5 -20.5t18.5 -9.5t45.5 -1q33 -15 34.5 -33t-14 -31.5t-41 -17.5t-47.5 9q-42 24 -58.5 58.5t-20 74t-1 81.5t-2 80.5t-22 71.5t-60.5 55q-8 4 -10.5 8.5t-4.5 12.5q0 12 5.5 16.5t13.5 6t17 2.5t15 5q6 3 13.5 9.5t14.5 13.5t13 13.5t8 11.5q6 9 5 28.5
t-4 41.5t-7 42.5t-4 32.5q0 34 10 64.5t29.5 53t48.5 35.5t65 13z" />
    <glyph glyph-name="braceright" unicode="}" horiz-adv-x="381" 
d="M99.0176 652q-20.999 1 -32.998 -10q-12 -11 -13.5 -25q-1.49902 -14 7.5 -27t29.998 -17q13.999 -2 27.498 -2q13.5 0 27.499 -4q21.998 -7 32.498 -23.5q10.499 -16.5 12.999 -39t1 -49t-3 -52.5t0 -49t10.499 -39q7 -11 23.999 -23.5t24.998 -18.5q6 -5 11 -9.5
q4.99902 -4.5 9.99902 -7.5q-29.998 -21 -45.4971 -43.5t-22.499 -46.5q-6.99902 -24 -7.99902 -49t-1.5 -51t-2.5 -52.5t-10.999 -53.5q-9 -22 -11.5 -35q-2.49902 -13 -7.49902 -20.5t-18.499 -9.5t-45.4971 -1q-32.998 -15 -34.498 -33t13.999 -31.5t40.998 -17.5
q25.498 -4 47.4971 9q41.9971 24 58.4961 58.5t19.999 74q3.49902 39.5 1 81.5q-2.5 42 1.99902 80.5q4.5 38.5 21.999 71.5t60.4961 55q8 4 10.5 8.5q2.49902 4.5 4.49902 12.5q0 12 -5.49902 16.5q-5.5 4.5 -13.499 6q-8 1.5 -16.999 2.5q-9 1 -14.999 5q-6 3 -13.5 9.5
q-7.49902 6.5 -14.499 13.5q-6.99902 7 -12.999 13.5t-7.99902 11.5q-6 9 -5 28.5t4 41.5q2.99902 22 6.99902 42.5t4 32.5q0 34 -9.99902 64.5q-10 30.5 -29.499 53q-19.498 22.5 -48.4961 35.5q-28.999 13 -64.9961 13z" />
    <glyph glyph-name="bar" unicode="|" 
d="M260 690q3 18 14 27.5t24 10t24.5 -7.5t16.5 -26q-8 -160 -9 -317t7 -317q1 -8 4.5 -39t6.5 -67.5t3 -69.5t-7 -44q-12 -13 -25 -16t-24.5 2t-18.5 15.5t-5 24.5q5 34 6.5 70t1.5 72t0.5 71.5t3.5 70.5q4 136 -5 270.5t-18 269.5z" />
    <glyph glyph-name="bracketleft" unicode="[" horiz-adv-x="308" 
d="M231 649q21 1 33 -10t13.5 -25t-7.5 -27t-30 -17q-26 -4 -52.5 0.5t-52.5 6.5q0 -63 -3 -125.5t-6 -129.5q-3 -77 -2.5 -161.5t11.5 -179.5v-4q0 -4 0.5 -7t0.5 -7q3 -2 5.5 -4t4.5 -4q10 1 24.5 2t28.5 -0.5t26 -7t18 -17.5q0 -1 0.5 -1t0.5 -1q2 -4 2 -5
q0 -21 -9.5 -31.5t-25 -14t-34.5 -2t-37.5 3.5t-36 2t-28.5 -6q-19 10 -23 24q-5 95 -2 186t5.5 179t1 174t-14.5 172q8 12 20 18.5t26 11.5q18 4 35.5 4.5t35.5 -0.5t36 -1t36 4z" />
    <glyph glyph-name="bracketright" unicode="]" horiz-adv-x="308" 
d="M83.0137 649q-20.998 1 -32.998 -10q-11.999 -11 -13.499 -25t7.5 -27q8.99902 -13 29.998 -17q25.998 -4 52.4971 0.5q26.498 4.5 52.4961 6.5q0 -63 3 -125.5t6 -129.5q3 -77 2.5 -161.5t-11.5 -179.5v-4q0 -4 -0.5 -7t-0.5 -7q-2.99902 -2 -5.49902 -4t-4.5 -4
q-9.99902 1 -24.498 2t-28.499 -0.5q-13.999 -1.5 -25.998 -7t-17.999 -17.5q0 -1 -0.5 -1t-0.5 -1q-2 -4 -2 -5q0 -21 9.5 -31.5q9.49902 -10.5 24.998 -14t34.498 -2t37.498 3.5t35.9971 2q17.499 0 28.499 -6q18.999 10 22.998 24q5 95 2 186t-5.5 179
q-2.49902 88 -0.999023 174q1.49902 86 14.499 172q-8 12 -19.999 18.5t-25.998 11.5q-17.999 4 -35.498 4.5t-35.498 -0.5t-35.998 -1t-35.998 4z" />
    <glyph glyph-name="ellipsis" unicode="&#x2026;" horiz-adv-x="568" 
d="M154 121q9 -14 9 -27.5t-6 -24.5q-1 -2 -1 -2.5t-1 -2.5q-1 -4 -1 -7t-2 -6q9 -15 8 -30t-9.5 -25t-22 -12.5t-28.5 8.5q-16 11 -18 29q-14 -2 -27 9q-10 7 -14 15.5t-4 17t4 16.5t11 13q1 19 17 31t39 4q21 10 46 -6zM326 121q9 -14 9 -27.5t-6 -24.5q-1 -2 -1 -2.5
t-1 -2.5q-1 -4 -1 -7t-2 -6q9 -15 8 -30t-9.5 -25t-22 -12.5t-28.5 8.5q-16 11 -18 29q-14 -2 -27 9q-10 7 -14 15.5t-4 17t4 16.5t11 13q1 19 17 31t39 4q21 10 46 -6zM508 121q9 -14 9 -27.5t-6 -24.5q-1 -2 -1 -2.5t-1 -2.5q-1 -4 -1 -7t-2 -6q9 -15 8 -30t-9.5 -25
t-22 -12.5t-28.5 8.5q-16 11 -18 29q-14 -2 -27 9q-10 7 -14 15.5t-4 17t4 16.5t11 13q1 19 17 31t39 4q21 10 46 -6z" />
    <glyph glyph-name="perthousand" unicode="&#x2030;" horiz-adv-x="626" 
d="M148.903 601.209q21.7549 -1.52148 36.9316 -11.4121q15.1777 -9.89062 24.79 -25.6133q9.61328 -15.7236 14.6719 -35.5039q5.05957 -19.7812 6.57715 -40.5762q1.51758 -20.7959 -0.25293 -40.8301q-1.77051 -20.0352 -4.80664 -36.2656
q-1.01172 -6.59277 -3.03516 -15.2158q-2.02344 -8.62207 -5.05957 -17.498q-3.03516 -8.87598 -7.08203 -16.9912q-4.04785 -8.11523 -9.61328 -12.6807q-9.10645 -7.60742 -23.2725 -10.3975q-14.165 -2.78906 -29.0898 -2.53613q-14.9248 0.253906 -29.0908 2.28223
q-14.165 2.0293 -23.7783 3.55078q-26.3076 4.56445 -38.9551 22.8242q-12.6484 18.2598 -16.9492 42.8584q-4.2998 24.5996 -2.5293 52.4951q1.77051 27.8965 4.80664 51.7354q1.51758 13.1865 4.04688 29.9248q2.53027 16.7373 8.09473 28.9102
q4.55371 9.63672 16.1895 16.7383q11.6367 7.10059 25.5488 11.4121q13.9131 4.31055 28.0791 5.07129t23.7783 -2.28223zM185.329 407.458q5.05957 13.6943 9.6123 29.6709q4.55371 15.9775 6.07129 32.208t-1.01172 31.7002q-2.5293 15.4688 -11.1299 27.8955
t-24.5371 20.7959q-15.9365 8.36816 -40.7266 10.3975l-5.56543 -1.52148q-5.56543 -3.55078 -13.6602 -7.10156q-8.09473 -3.5498 -11.6357 -9.12891q-9.6123 -16.7383 -12.6484 -35.5049q-3.03516 -18.7656 -1.51758 -38.04q1.51758 -19.2734 6.32422 -38.2939
q4.80664 -19.0195 10.3711 -35.7578l18.7188 -14.708q16.1895 -1.01465 27.5732 -1.52246q11.3828 -0.506836 19.4775 2.0293t13.9131 8.62207q5.81836 6.08691 10.3711 18.2598zM390 651q37 2 42.5 -18.5t-20.5 -58.5h-1q-33 -69 -72 -134.5l-78 -131t-75.5 -132.5
t-64.5 -138q-2 -8 -2 -11q-6 -17 -18.5 -24.5t-25 -6t-23 11.5t-12.5 28q5 19 12 33t18 29q23 43 48 81l50 76t47 77.5t39 85.5q7 21 20 56t30.5 71t39 66t46.5 40zM322.903 273.209q21.7549 -1.52148 36.9316 -11.4121q15.1777 -9.89062 24.79 -25.6133
q9.61328 -15.7236 14.6719 -35.5039q5.05957 -19.7812 6.57715 -40.5762q1.51758 -20.7959 -0.25293 -40.8301q-1.77051 -20.0352 -4.80664 -36.2656q-1.01172 -6.59277 -3.03516 -15.2158q-2.02344 -8.62207 -5.05957 -17.498q-3.03516 -8.87598 -7.08203 -16.9912
q-4.04785 -8.11523 -9.61328 -12.6807q-9.10645 -7.60742 -23.2725 -10.3975q-14.165 -2.78906 -29.0898 -2.53613q-14.9248 0.253906 -29.0908 2.28223q-14.165 2.0293 -23.7783 3.55078q-26.3076 4.56445 -38.9551 22.8242q-12.6484 18.2598 -16.9492 42.8584
q-4.2998 24.5996 -2.5293 52.4951q1.77051 27.8965 4.80664 51.7354q1.51758 13.1865 4.04688 29.9248q2.53027 16.7373 8.09473 28.9102q4.55371 9.63672 16.1895 16.7383q11.6367 7.10059 25.5488 11.4121q13.9131 4.31055 28.0791 5.07129t23.7783 -2.28223z
M359.329 79.458q5.05957 13.6943 9.6123 29.6709q4.55371 15.9775 6.07129 32.208t-1.01172 31.7002q-2.5293 15.4688 -11.1299 27.8955t-24.5371 20.7959q-15.9365 8.36816 -40.7266 10.3975l-5.56543 -1.52148q-5.56543 -3.55078 -13.6602 -7.10156
q-8.09473 -3.5498 -11.6357 -9.12891q-9.6123 -16.7383 -12.6484 -35.5049q-3.03516 -18.7656 -1.51758 -38.04q1.51758 -19.2734 6.32422 -38.2939q4.80664 -19.0195 10.3711 -35.7578l18.7188 -14.708q16.1895 -1.01465 27.5732 -1.52246
q11.3828 -0.506836 19.4775 2.0293t13.9131 8.62207q5.81836 6.08691 10.3711 18.2598zM525.903 273.209q21.7549 -1.52148 36.9316 -11.4121q15.1777 -9.89062 24.79 -25.6133q9.61328 -15.7236 14.6719 -35.5039q5.05957 -19.7812 6.57715 -40.5762
q1.51758 -20.7959 -0.25293 -40.8301q-1.77051 -20.0352 -4.80664 -36.2656q-1.01172 -6.59277 -3.03516 -15.2158q-2.02344 -8.62207 -5.05957 -17.498q-3.03516 -8.87598 -7.08203 -16.9912q-4.04785 -8.11523 -9.61328 -12.6807q-9.10645 -7.60742 -23.2725 -10.3975
q-14.165 -2.78906 -29.0898 -2.53613q-14.9248 0.253906 -29.0908 2.28223q-14.165 2.0293 -23.7783 3.55078q-26.3076 4.56445 -38.9551 22.8242q-12.6484 18.2598 -16.9492 42.8584q-4.2998 24.5996 -2.5293 52.4951q1.77051 27.8965 4.80664 51.7354
q1.51758 13.1865 4.04688 29.9248q2.53027 16.7373 8.09473 28.9102q4.55371 9.63672 16.1895 16.7383q11.6367 7.10059 25.5488 11.4121q13.9131 4.31055 28.0791 5.07129t23.7783 -2.28223zM562.329 79.458q5.05957 13.6943 9.6123 29.6709
q4.55371 15.9775 6.07129 32.208t-1.01172 31.7002q-2.5293 15.4688 -11.1299 27.8955t-24.5371 20.7959q-15.9365 8.36816 -40.7266 10.3975l-5.56543 -1.52148q-5.56543 -3.55078 -13.6602 -7.10156q-8.09473 -3.5498 -11.6357 -9.12891
q-9.6123 -16.7383 -12.6484 -35.5049q-3.03516 -18.7656 -1.51758 -38.04q1.51758 -19.2734 6.32422 -38.2939q4.80664 -19.0195 10.3711 -35.7578l18.7188 -14.708q16.1895 -1.01465 27.5732 -1.52246q11.3828 -0.506836 19.4775 2.0293t13.9131 8.62207
q5.81836 6.08691 10.3711 18.2598z" />
    <glyph glyph-name="divide" unicode="&#xf7;" horiz-adv-x="219" 
d="M5 235q-21 2 -30.5 14.5t-9 26.5t11.5 25.5t32 12.5q34 -8 59.5 -12t48.5 -4.5t48 2.5t60 11q18 -5 26 -16.5t7.5 -24.5t-10 -24t-27.5 -14q-35 8 -59.5 12.5t-47.5 5t-48 -3t-61 -11.5zM93 493q36 26 56.5 23t28.5 -22.5t4.5 -47.5t-15 -51t-29 -33.5t-38.5 5.5
q-4 2 -6.5 4.5l-4.5 4.5t-4.5 3t-4.5 3q-12 9 -21 28.5t-10 39t9 33t35 10.5zM154 153q9 -14 9 -27.5t-6 -24.5q-1 -2 -1 -2.5t-1 -2.5q-1 -4 -1 -7t-2 -6q9 -15 8 -30t-9.5 -25t-22 -12.5t-28.5 8.5q-16 11 -18 29q-18 -1 -28 8.5t-12.5 23t1.5 29t13 27.5t22.5 17.5
t29.5 0.5z" />
    <glyph glyph-name="multiply" unicode="&#xd7;" 
d="M462 505q13 9 27 5.5t22.5 -13.5t8 -23t-16.5 -23q-1 0 -1.5 -0.5t-1.5 -0.5q-17 -14 -36 -27.5t-38 -28.5t-36 -31.5t-29 -35.5q1 -2 1 -4t1 -4l3 -2v-1q31 -28 58 -63t62 -63q14 -12 13.5 -32.5t-23.5 -34.5q-23 -5 -37 4t-25 30q-17 29 -45.5 55.5t-63.5 55.5
q-4 -5 -6 -9t-5 -7q-13 -14 -25.5 -31t-26 -33t-28 -30.5t-32.5 -23.5q-16 -16 -30 -15t-20.5 11t-4.5 25.5t19 28.5q28 35 63 73t64 75q-4 3 -10 11q-29 32 -60.5 62.5t-63.5 60.5q-8 15 -6 27q0 19 15.5 31.5t40.5 5.5q10 -8 26 -29t34 -46.5t36.5 -52t34.5 -44.5z
M151 188l-1 -1z" />
    <glyph glyph-name="backslash" unicode="\" horiz-adv-x="467" 
d="M155.024 649q-36.998 2 -42.4971 -18.5q-5.5 -20.5 20.498 -58.5h1q32.998 -69 71.9961 -134.5q38.9971 -65.5 77.9951 -131q38.9971 -65.5 75.4951 -132.5t64.4961 -138q2 -8 2 -11q6 -17 18.499 -24.5t24.998 -6t22.999 11.5q10.499 10 12.499 28q-5 19 -11.999 33
q-7 14 -17.999 29q-22.999 43 -47.9971 81t-49.9971 76q-24.998 38 -46.9971 77.5t-38.998 85.5q-6.99902 21 -19.998 56q-13 35 -30.498 71q-17.499 36 -38.998 66t-46.4971 40z" />
    <glyph glyph-name="asciicircum" unicode="^" horiz-adv-x="623" 
d="M109 332q-16 -9 -30.5 -7.5t-23.5 10.5t-10.5 23.5t7.5 30.5q18 -4 43 17.5t52 56.5t54.5 76t50.5 76t40 57t23 19q7 -3 16.5 -18.5t18.5 -33.5l17 -34t11 -21q17 -23 37 -52t42.5 -57t47.5 -51t52 -35q15 -11 19.5 -24.5t-0.5 -25.5t-17.5 -19.5t-30.5 -5.5
q-33 19 -64 54t-59.5 76.5t-53 85t-44.5 80.5l-6 -18t-6 -17q-14 -38 -33.5 -73t-48.5 -64q-11 -15 -20 -27.5t-18.5 -24t-21.5 -22t-29 -19.5q-8 -5 -8 -5.5t-7 -7.5z" />
    <glyph glyph-name="underscore" unicode="_" horiz-adv-x="643" 
d="M49 -227q-21 2 -30.5 14.5t-9 26.5t11.5 25.5t32 12.5q86 -8 169 -14t170 -7q19 0 49.5 2t62 4.5t58 4.5t38.5 3q18 -5 26 -16.5t7.5 -24.5t-10 -24t-27.5 -14q-87 8 -171 14.5t-172 6.5q-20 0 -49 -2t-59 -4t-56.5 -4.5t-39.5 -3.5z" />
    <glyph glyph-name="cedilla" unicode="&#xb8;" 
d="M269 -2q-2 18 5.5 30.5t19.5 17.5t25.5 0.5t24.5 -19.5q1 -5 1 -10.5t2 -10.5q4 -11 15 -19t23.5 -16.5t24 -18t18.5 -23.5q4 -8 4.5 -18t-3.5 -18q-11 -23 -26 -36t-34 -20.5t-40.5 -10.5t-44.5 -7q-21 2 -30.5 14.5t-9 26.5t11.5 25.5t32 12.5q46 -3 67 -3t22 5
t-16.5 16t-49.5 30q-16 10 -25 23t-17 29z" />
    <glyph glyph-name="ccedilla" unicode="&#xe7;" horiz-adv-x="416" 
d="M393 108q-16 -40 -53 -67.5t-81.5 -39.5t-90 -7t-76.5 30q-31 24 -49 61t-25 78.5t-5.5 84.5t9.5 80q12 66 44.5 102.5t73 52t82.5 15t73 -7.5q16 -3 34.5 -12t33.5 -22t23.5 -28.5t4.5 -33.5q-9 -19 -29 -15q-6 2 -9.5 4t-8.5 6q-1 2 -4 3.5t-5 3.5q-18 5 -35.5 12.5
t-35.5 13t-36 6.5t-36 -7q-39 -18 -58.5 -52t-25.5 -73t0 -77t18 -65q16 -15 29.5 -26t29.5 -15.5t36.5 -2.5t50.5 11q16 5 37.5 15.5t40.5 14t31.5 -4t11.5 -38.5zM151 -2q-2 18 5.5 30.5t19.5 17.5t25.5 0.5t24.5 -19.5q1 -5 1 -10.5t2 -10.5q4 -11 15 -19t23.5 -16.5
t24 -18t18.5 -23.5q4 -8 4.5 -18t-3.5 -18q-11 -23 -26 -36t-34 -20.5t-40.5 -10.5t-44.5 -7q-21 2 -30.5 14.5t-9 26.5t11.5 25.5t32 12.5q46 -3 67 -3t22 5t-16.5 16t-49.5 30q-16 10 -25 23t-17 29z" />
    <glyph glyph-name="emdash" unicode="&#x2014;" horiz-adv-x="658" 
d="M49 243q-21 2 -30.5 14.5t-9 26.5t11.5 25.5t32 12.5q86 -8 169 -14t170 -7q19 0 49.5 2t62 4.5t58 4.5t38.5 3q18 -5 26 -16.5t7.5 -24.5t-10 -24t-27.5 -14q-87 8 -171 14.5t-172 6.5q-20 0 -49 -2t-59 -4t-56.5 -4.5t-39.5 -3.5z" />
    <glyph glyph-name="endash" unicode="&#x2013;" horiz-adv-x="550" 
d="M49 243q-21 2 -30.5 14.5t-9 26.5t11.5 25.5t32 12.5q43 -4 71 -7.5t53 -6.5t53.5 -5t71.5 -2q19 0 44.5 2t51.5 4.5t48 4.5t34 3q18 -5 26 -16.5t7.5 -24.5t-10 -24t-27.5 -14q-43 4 -81 8t-75 7t-75 4.5t-82 1.5q-39 0 -63 -6t-51 -8z" />
    <glyph glyph-name="aring" unicode="&#xe5;" horiz-adv-x="469" 
d="M105 654q3 15 10 23q0 14 8 24t19 19q35 27 77 27t74.5 -20t47 -55t-5.5 -78q-5 -11 -7 -22.5t-10 -22.5q-16 -23 -40 -31t-49.5 -5.5t-50.5 15.5t-43.5 32t-27 43.5t-2.5 50.5zM162 684q-3 -8 -6.5 -13t-5.5 -10q0 -10 1.5 -24t4.5 -28t8 -25.5t12 -15.5q51 -26 80 -18
t39.5 32t4 56t-25 53.5t-47.5 24t-65 -31.5zM161 684q-3 -3 -6.5 -5.5t-6.5 -4.5q3 2 7 3.5t6 2.5v4zM219 286q61 6 81.5 20t13.5 29t-34.5 28t-62.5 17t-70 -5t-57 -37q-17 -2 -29.5 5t-17 19t-1 25.5t18.5 24.5q15 5 21 13t20 16q64 34 114.5 37.5t87.5 -14t61 -51
t35.5 -74.5t11 -83.5t-13.5 -78.5q-5 -14 -4.5 -26t3 -26.5t5.5 -33.5t5 -45q4 -7 4 -13q4 -11 3 -24q0 -1 -1 -1q-6 -15 -16.5 -22.5t-22 -7t-22 8t-16.5 21.5q-2 7 -2 10v4q-7 8 -8 15q-4 3 -7 6.5t-6 7.5t-10 3.5t-9 4.5q-5 -2 -9 -4.5t-8 -4.5q-30 -19 -56.5 -33.5
t-52.5 -18.5t-52.5 5.5t-56.5 39.5q-9 9 -15.5 24t-10 32.5t-3.5 34.5t5 31q4 11 7.5 18t10.5 15q10 12 18 21l4.5 4.5t1.5 0.5q5 8 13.5 19.5t15.5 16.5q19 15 47 17.5t51 6.5zM292 120q12 17 16 30t5 24.5t1.5 21.5t3.5 22q-31 5 -67 6.5t-66 -8.5t-49.5 -35.5
t-18.5 -73.5l28 -21q30 -7 66 2.5t81 31.5zM340 10q1 -2 0.5 0t-2.5 4q1 -1 1 -2t1 -2z" />
    <glyph glyph-name="Aring" unicode="&#xc5;" horiz-adv-x="681" 
d="M211 808q3 15 10 23q0 14 8 24t19 19q35 27 77 27t74.5 -20t47 -55t-5.5 -78q-5 -11 -7 -22.5t-10 -22.5q-16 -23 -40 -31t-49.5 -5.5t-50.5 15.5t-43.5 32t-27 43.5t-2.5 50.5zM268 838q-3 -8 -6.5 -13t-5.5 -10q0 -10 1.5 -24t4.5 -28t8 -25.5t12 -15.5q51 -26 80 -18
t39.5 32t4 56t-25 53.5t-47.5 24t-65 -31.5zM267 838q-3 -3 -6.5 -5.5t-6.5 -4.5q3 2 7 3.5t6 2.5v4zM417 186q-12 20 -27 27t-34.5 6t-45 -7.5t-58.5 -13.5q-23 -22 -39.5 -52.5t-32 -60.5t-33 -56t-44.5 -39q-16 -20 -38.5 -15.5t-29.5 27.5q-13 5 -20 18t-3 32
q67 64 110 140t75.5 158t60.5 166.5t64 165.5q0 3 1 5.5t2 6.5l1 -1q5 6 12 8.5t12.5 0.5t9.5 -7.5t3 -14.5q0 -1 -1 -1q10 -8 17 -26q11 -81 34.5 -163.5t58 -161.5t79 -152t97.5 -135q17 -12 20 -27.5t-4 -28t-22 -17.5t-34 4q-18 13 -38 27.5t-43.5 37.5t-50.5 58t-59 91
zM338 489q-10 -33 -17 -61t-15 -54t-17.5 -50.5t-23.5 -48.5q23 2 52.5 5.5t57.5 14.5q-10 21 -15 43t-8 46t-5.5 50t-8.5 55z" />
    <glyph glyph-name="trademark" unicode="&#x2122;" horiz-adv-x="575" 
d="M62.9668 630.902q17.5342 -2.24609 42.0361 -3.59375q24.5029 -1.34766 49.6787 -1.79688q25.1777 -0.449219 47.6562 -0.224609q22.4795 0.224609 35.5176 0.673828q6.29395 0.449219 11.6895 0.449219q5.39453 0 9.44141 -1.57227q4.0459 -1.57129 6.51855 -5.38965
q2.47266 -3.81738 2.92188 -11.0039q4.49609 -8.08496 0.899414 -15.2715t-15.2861 -9.43262q-19.7812 3.14453 -35.292 4.26758q-15.5107 1.12207 -35.7422 0.673828q0 -9.88184 -0.224609 -19.9883q-0.224609 -10.1055 -0.899414 -23.3555
q-0.673828 -13.251 -1.34863 -31.2168q-0.673828 -17.9668 -0.899414 -43.5684q-0.224609 -25.6016 0 -59.9629q0.225586 -34.3604 1.12402 -80.1748q-0.449219 -8.5332 -6.74316 -13.9238q-6.29492 -5.38965 -14.6123 -7.18652q-8.31641 -1.7959 -16.4092 0
q-8.09277 1.79688 -11.2402 7.18652q0 27.3994 -1.57324 53.6748t2.92188 46.0391v10.3301t0.225586 12.3516q0.224609 7.41113 0.224609 18.416q0 11.0039 0.224609 28.2969q0.224609 17.292 0.449219 41.7715q0.225586 24.4795 0.225586 58.6152
q-7.64355 -1.34766 -25.4023 -0.449219q-17.7578 0.898438 -48.7793 0.898438q-6.74414 0.449219 -10.79 4.49121q-4.04688 4.04297 -5.84473 9.43262q-1.79883 5.38965 -1.12402 11.2285q0.674805 5.83984 3.37207 9.88184q4.0459 8.08496 17.084 9.43262zM413.924 453.971
q-8.10156 -9.91211 -9.45215 -9.91211q-1.34961 0 -2.47461 3.15332q-1.12598 3.1543 -6.07617 6.75879q-3.60059 3.1543 -9.45215 12.165q-5.85059 9.01172 -12.6016 20.0498q-6.75098 11.0391 -13.7275 22.7539q-6.97559 11.7148 -12.6016 20.2754t-9.00195 12.3896
q-3.375 3.83008 -2.9248 -0.675781q1.7998 -8.56055 2.47461 -12.165q0.675781 -3.60449 0.900391 -7.20898t-0.224609 -9.68652q-0.450195 -6.08301 -1.12598 -19.374q-0.674805 -13.292 -1.5752 -36.4961q-0.899414 -23.2041 -1.7998 -60.6006
q-0.900391 -21.1758 -0.450195 -36.2695q0.450195 -15.0947 -0.900391 -24.7812q-1.34961 -9.6875 -5.85059 -14.6436t-15.3027 -5.85742q-11.252 -0.450195 -18.0029 4.95703q-6.75098 5.40625 -8.55078 13.0654q-2.70117 37.3975 -1.57617 73.4424
q1.12598 36.0449 2.47559 71.4131q1.35059 35.3691 1.5752 70.2881q0.225586 34.918 -3.8252 70.0625q0 8.56055 5.85059 13.0664q5.85156 4.50488 14.1777 5.85742q8.32617 1.35156 17.1025 0q8.77637 -1.35254 14.1777 -4.95703q3.60059 -4.50488 6.30078 -10.8135
q0 -0.900391 0.450195 -2.70312q2.7002 -13.5166 9.67676 -26.3574q6.97559 -12.8408 16.4268 -24.7812q9.45215 -11.9395 19.5791 -23.4287q10.126 -11.4902 19.1279 -22.3027q4.05078 4.05469 6.30078 8.10938q2.25 4.05566 6.75098 9.01172
q9.45215 11.2637 19.3535 25.4561q9.90137 14.1934 17.7773 27.4844q7.87695 13.292 12.1523 24.1055t2.47559 15.7695q0.900391 2.25293 2.47559 3.83008t3.8252 3.8291q1.35059 0.901367 1.80078 1.57715q0.449219 0.675781 0.449219 0.901367t0.450195 0.450195
q0.450195 0.225586 2.25098 0.225586q4.9502 0 11.0264 -1.35156t11.4766 -4.05469q5.40137 -2.7041 9.45215 -6.75879q4.05078 -4.05566 4.5 -9.46191q-1.7998 -30.6387 -2.02441 -58.1221q-0.225586 -27.4844 0.224609 -53.8428q0.450195 -26.3574 1.125 -53.3916
q0.674805 -27.0332 0.674805 -56.7705q0 -13.9668 0.225586 -28.8359q0.224609 -14.8682 -0.450195 -27.0332q-0.674805 -12.166 -2.47559 -19.8252q-1.7998 -7.65918 -5.40039 -7.65918q-7.65137 0 -15.5273 0.450195q-7.87695 0.450195 -14.4023 2.92871
q-6.52637 2.47852 -10.8018 7.88477q-4.27637 5.40723 -4.27637 15.7695q0 22.0781 1.5752 44.1553t3.15039 43.2539q1.57617 21.1768 2.25098 40.7754q0.674805 19.5996 -1.125 37.1719q-0.900391 4.95605 -1.12598 9.68652q-0.224609 4.73145 -1.125 9.6875
q-4.5 -9.46191 -12.377 -18.0225q-7.87598 -8.56055 -16.4277 -17.3467q-8.55078 -8.78613 -15.9775 -17.7969q-7.42578 -9.01172 -11.0264 -18.9238z" />
    <glyph glyph-name="ordfeminine" unicode="&#xaa;" horiz-adv-x="338" 
d="M157.36 509.944q35.7529 3.52344 47.7686 11.7451q12.0156 8.2207 7.91309 17.0293q-4.10254 8.80762 -20.2217 16.4414q-16.1182 7.63477 -36.6318 9.9834q-20.5146 2.34863 -41.0283 -2.93652q-20.5146 -5.28516 -33.4092 -21.7266q-9.96387 -1.1748 -17.291 2.93555
q-7.32617 4.11035 -9.96387 11.1572t-0.585938 14.9746q2.05176 7.92676 10.8428 14.3867q8.79199 2.93555 12.3086 7.63379q3.5166 4.69727 11.7227 9.39551q37.5117 19.9648 67.1113 22.0205q29.5986 2.05566 51.2852 -8.2207t35.7529 -29.9482
q14.0674 -19.6719 20.8076 -43.748t6.44727 -49.0332q-0.292969 -24.9561 -7.91211 -46.0967q-2.93066 -8.2207 -2.6377 -15.2676t1.75781 -15.5615q1.46582 -8.51465 3.22363 -19.6719q1.75879 -11.1572 2.93066 -26.4248q2.34473 -4.11035 2.34473 -7.63379
q2.34473 -6.45898 1.75879 -14.0928q0 -0.587891 -0.586914 -0.587891q-3.5166 -8.80762 -9.6709 -13.2119t-12.8945 -4.11035q-6.74023 0.292969 -12.8945 4.69727t-9.6709 12.625q-1.17188 4.11133 -1.17188 5.87305v2.34863q-4.10352 4.69727 -4.68945 8.80859
q-2.34473 1.76074 -4.10254 3.81641q-1.75879 2.05566 -3.5166 4.4043q-1.75879 2.34863 -5.86133 2.05566q-4.10254 -0.293945 -5.27539 2.6416q-2.93066 -1.17383 -5.27539 -2.6416q-2.34375 -1.46875 -4.68848 -2.64258q-17.584 -11.1572 -33.1162 -19.6719
t-30.7705 -10.8643q-15.2393 -2.34863 -30.7715 3.23047q-15.5322 5.57812 -33.1162 23.1943q-5.27539 5.28516 -9.08496 14.0938t-5.86133 19.085q-2.05078 10.2764 -2.05078 20.2588t2.93066 18.2041q2.34375 6.45898 4.39551 10.5693t6.1543 8.80859
q5.86133 7.04688 10.5498 12.3311q1.17285 1.1748 2.6377 2.64258q1.46582 1.46875 0.878906 0.293945q2.93066 4.69727 7.91309 11.4512q4.98242 6.75293 9.08496 9.68848q11.1357 8.80859 27.5479 10.2764q16.4111 1.46875 29.8916 3.81738zM200.147 412.467
q7.0332 9.98242 9.37793 17.6162q2.34375 7.63379 2.93066 14.3867q0.585938 6.75293 0.878906 12.625t2.05176 12.9189q-18.1699 2.93652 -39.2705 3.81738t-38.6836 -4.99121q-17.584 -5.87305 -29.0137 -20.8467q-11.4287 -14.9746 -10.8428 -43.1611l16.4111 -12.3311
q17.584 -4.11035 38.6846 1.46777q21.0996 5.5791 47.4756 18.498zM228.281 347.872q0.585938 -1.1748 0.292969 0t-1.46582 2.34863q0.586914 -0.586914 0.586914 -1.17383q0 -0.587891 0.585938 -1.1748z" />
    <glyph glyph-name="Ccedilla" unicode="&#xc7;" horiz-adv-x="570" 
d="M149 53q-74 71 -103.5 154t-23.5 163.5t44 151t98.5 117t139 62t166.5 -14.5q22 -8 37.5 -26t20.5 -39t-2 -42t-30 -34q-29 -6 -46 10t-14 37q-2 1 -5 2t-5 3q-23 16 -50.5 19.5t-56 -2t-54.5 -18.5t-45 -28q-31 -24 -51.5 -60t-30 -78t-8 -86.5t14.5 -84.5t36.5 -72.5
t59 -50.5t82 -18t104.5 24q6 5 12.5 8.5t12.5 5.5q9 16 23 21t28 2t26 -12.5t17 -22.5q5 -17 2 -29.5t-11 -27.5q-18 -37 -45.5 -59.5t-61.5 -33t-71.5 -10t-75 9t-72 24t-62.5 35.5zM224 -2q-2 18 5.5 30.5t19.5 17.5t25.5 0.5t24.5 -19.5q1 -5 1 -10.5t2 -10.5
q4 -11 15 -19t23.5 -16.5t24 -18t18.5 -23.5q4 -8 4.5 -18t-3.5 -18q-11 -23 -26 -36t-34 -20.5t-40.5 -10.5t-44.5 -7q-21 2 -30.5 14.5t-9 26.5t11.5 25.5t32 12.5q46 -3 67 -3t22 5t-16.5 16t-49.5 30q-16 10 -25 23t-17 29z" />
    <glyph glyph-name="copyright" unicode="&#xa9;" horiz-adv-x="416" 
d="M98 584q29 31 66.5 48t78.5 23.5t82 4.5t78 -9q132 -29 179 -153q14 -38 19.5 -80.5t-2.5 -82.5q-13 -71 -53.5 -126.5t-97.5 -89t-124.5 -42t-134.5 15.5q-40 14 -66.5 41t-45 60.5t-30.5 72t-22 75.5q-8 30 -5.5 63.5t13.5 66t28 62t37 50.5zM447 562q-29 13 -60 14
t-61 7q-24 0 -48.5 -0.5t-47.5 -5t-45 -14t-40 -26.5q-35 -33 -48.5 -67t-14.5 -69.5t7.5 -72.5t17.5 -77q5 -16 13.5 -35t23.5 -37.5t37.5 -33t55.5 -21.5q58 -12 113.5 7t100 57.5t73 90t32.5 104t-21 100.5t-88 79zM437 264q-10 -26 -34 -43.5t-53 -25.5t-58.5 -4.5
t-49.5 19.5t-31.5 39.5t-16.5 50.5t-4 55t6 52q8 43 29 66.5t47 33.5t53.5 9.5t47.5 -4.5q10 -2 22.5 -8t22 -14t15.5 -18.5t3 -21.5q-6 -13 -19 -10q-5 1 -12 6q-1 2 -2.5 2.5t-3.5 2.5q-11 3 -22.5 8t-23 8.5t-23.5 4t-24 -4.5q-25 -11 -37.5 -33t-16.5 -47.5t0 -50.5
t12 -42q10 -10 18.5 -17t19 -10t23.5 -1.5t33 7.5q10 3 24 9.5t26.5 9t21 -2.5t7.5 -25z" />
    <glyph glyph-name="registered" unicode="&#xae;" 
d="M98 584q29 31 66.5 48t78.5 23.5t82 4.5t78 -9q132 -29 179 -153q14 -38 19.5 -80.5t-2.5 -82.5q-13 -71 -53.5 -126.5t-97.5 -89t-124.5 -42t-134.5 15.5q-40 14 -66.5 41t-45 60.5t-30.5 72t-22 75.5q-8 30 -5.5 63.5t13.5 66t28 62t37 50.5zM447 562q-29 13 -60 14
t-61 7q-24 0 -48.5 -0.5t-47.5 -5t-45 -14t-40 -26.5q-35 -33 -48.5 -67t-14.5 -69.5t7.5 -72.5t17.5 -77q5 -16 13.5 -35t23.5 -37.5t37.5 -33t55.5 -21.5q58 -12 113.5 7t100 57.5t73 90t32.5 104t-21 100.5t-88 79zM254 352l-1 1l-6 -143q-13 -4 -25.5 -4t-36.5 9
q3 21 4 51.5t2 64.5t1 68t1 62t1.5 46.5t2.5 21.5h-1q6 13 24 17t41.5 2t49.5 -8.5t47 -14.5q27 -10 46 -26.5t17 -47.5q-2 -18 -12.5 -34.5t-28.5 -27.5q-12 -6 -24 -10.5t-35 -9.5l45 -84q19 -31 25 -39.5t8 -12.5q7 -16 -3.5 -24.5t-26.5 -3.5l-111 144zM246 502
q4 -24 4.5 -48.5t2.5 -50.5q19 3 37 5t32 7t22 15t7 29q0 15 -14 24t-31.5 13.5t-35 5t-24.5 0.5z" />
    <glyph glyph-name="percent" unicode="%" horiz-adv-x="485" 
d="M148.903 601.209q21.7549 -1.52148 36.9316 -11.4121q15.1777 -9.89062 24.79 -25.6133q9.61328 -15.7236 14.6719 -35.5039q5.05957 -19.7812 6.57715 -40.5762q1.51758 -20.7959 -0.25293 -40.8301q-1.77051 -20.0352 -4.80664 -36.2656
q-1.01172 -6.59277 -3.03516 -15.2158q-2.02344 -8.62207 -5.05957 -17.498q-3.03516 -8.87598 -7.08203 -16.9912q-4.04785 -8.11523 -9.61328 -12.6807q-9.10645 -7.60742 -23.2725 -10.3975q-14.165 -2.78906 -29.0898 -2.53613q-14.9248 0.253906 -29.0908 2.28223
q-14.165 2.0293 -23.7783 3.55078q-26.3076 4.56445 -38.9551 22.8242q-12.6484 18.2598 -16.9492 42.8584q-4.2998 24.5996 -2.5293 52.4951q1.77051 27.8965 4.80664 51.7354q1.51758 13.1865 4.04688 29.9248q2.53027 16.7373 8.09473 28.9102
q4.55371 9.63672 16.1895 16.7383q11.6367 7.10059 25.5488 11.4121q13.9131 4.31055 28.0791 5.07129t23.7783 -2.28223zM185.329 407.458q5.05957 13.6943 9.6123 29.6709q4.55371 15.9775 6.07129 32.208t-1.01172 31.7002q-2.5293 15.4688 -11.1299 27.8955
t-24.5371 20.7959q-15.9365 8.36816 -40.7266 10.3975l-5.56543 -1.52148q-5.56543 -3.55078 -13.6602 -7.10156q-8.09473 -3.5498 -11.6357 -9.12891q-9.6123 -16.7383 -12.6484 -35.5049q-3.03516 -18.7656 -1.51758 -38.04q1.51758 -19.2734 6.32422 -38.2939
q4.80664 -19.0195 10.3711 -35.7578l18.7188 -14.708q16.1895 -1.01465 27.5732 -1.52246q11.3828 -0.506836 19.4775 2.0293t13.9131 8.62207q5.81836 6.08691 10.3711 18.2598zM390 651q37 2 42.5 -18.5t-20.5 -58.5h-1q-33 -69 -72 -134.5l-78 -131t-75.5 -132.5
t-64.5 -138q-2 -8 -2 -11q-6 -17 -18.5 -24.5t-25 -6t-23 11.5t-12.5 28q5 19 12 33t18 29q23 43 48 81l50 76t47 77.5t39 85.5q7 21 20 56t30.5 71t39 66t46.5 40zM322.903 273.209q21.7549 -1.52148 36.9316 -11.4121q15.1777 -9.89062 24.79 -25.6133
q9.61328 -15.7236 14.6719 -35.5039q5.05957 -19.7812 6.57715 -40.5762q1.51758 -20.7959 -0.25293 -40.8301q-1.77051 -20.0352 -4.80664 -36.2656q-1.01172 -6.59277 -3.03516 -15.2158q-2.02344 -8.62207 -5.05957 -17.498q-3.03516 -8.87598 -7.08203 -16.9912
q-4.04785 -8.11523 -9.61328 -12.6807q-9.10645 -7.60742 -23.2725 -10.3975q-14.165 -2.78906 -29.0898 -2.53613q-14.9248 0.253906 -29.0908 2.28223q-14.165 2.0293 -23.7783 3.55078q-26.3076 4.56445 -38.9551 22.8242q-12.6484 18.2598 -16.9492 42.8584
q-4.2998 24.5996 -2.5293 52.4951q1.77051 27.8965 4.80664 51.7354q1.51758 13.1865 4.04688 29.9248q2.53027 16.7373 8.09473 28.9102q4.55371 9.63672 16.1895 16.7383q11.6367 7.10059 25.5488 11.4121q13.9131 4.31055 28.0791 5.07129t23.7783 -2.28223z
M359.329 79.458q5.05957 13.6943 9.6123 29.6709q4.55371 15.9775 6.07129 32.208t-1.01172 31.7002q-2.5293 15.4688 -11.1299 27.8955t-24.5371 20.7959q-15.9365 8.36816 -40.7266 10.3975l-5.56543 -1.52148q-5.56543 -3.55078 -13.6602 -7.10156
q-8.09473 -3.5498 -11.6357 -9.12891q-9.6123 -16.7383 -12.6484 -35.5049q-3.03516 -18.7656 -1.51758 -38.04q1.51758 -19.2734 6.32422 -38.2939q4.80664 -19.0195 10.3711 -35.7578l18.7188 -14.708q16.1895 -1.01465 27.5732 -1.52246
q11.3828 -0.506836 19.4775 2.0293t13.9131 8.62207q5.81836 6.08691 10.3711 18.2598z" />
    <glyph glyph-name="logicalnot" unicode="&#xac;" horiz-adv-x="616" 
d="M79 401q-21 2 -30.5 14.5t-9 26.5t11.5 25.5t32 12.5q76 -7 151 -15.5t151 -13.5h17t28 0.5t30.5 1.5t24.5 1h-6q-3 0 2.5 1.5t7.5 2.5q11 5 23.5 6.5t21.5 -8.5q8 -8 13 -20t7 -25t3 -26.5t2 -23.5q2 -20 3 -39.5t2 -39.5q-1 -21 -12.5 -32t-25.5 -11.5t-26.5 9
t-14.5 30.5q3 29 8.5 63.5t0.5 64.5q-3 -3 -9 -3q-102 6 -202.5 5.5t-203.5 -7.5zM495 454h-8h8z" />
    <glyph glyph-name="scaron" unicode="&#x161;" horiz-adv-x="406" 
d="M72 619q-16 9 -22 22t-3.5 25.5t13.5 21.5t29 9q29 -8 45 -19t27.5 -25t23 -30.5t31.5 -36.5q20 24 37 52t42 47q20 7 34.5 1t20.5 -18.5t2 -28t-22 -26.5q-14 -6 -27 -18.5t-26.5 -25t-28 -22t-30.5 -9.5q-5 0 -14.5 5.5t-20 14.5t-21 19t-18.5 18q-10 2 -14.5 6.5
t-9.5 8.5t-15.5 7t-32.5 2zM375 472q17 -17 15.5 -34t-12.5 -27q1 -9 0 -16q-3 -11 -11.5 -14t-35.5 8q-31 7 -39 11.5t-12 8.5q-16 4 -33.5 6.5t-33.5 2.5t-30 -3t-23 -12t-13.5 -21.5t-3.5 -25.5t5.5 -25t13.5 -20q12 -11 26.5 -19t29.5 -14q18 -2 33.5 -5t30.5 -8.5
t31 -15t36 -22.5q17 -12 27.5 -32t12.5 -40q1 -23 -2.5 -48t-13.5 -46.5t-27.5 -37.5t-43.5 -21q-25 -5 -52 -4t-50 0q-32 -1 -63 -2.5t-63 -1.5q-22 1 -34 17t-10.5 35t17.5 35t51 18q20 -1 41.5 -2.5t43 -1t42.5 4.5t41 14q3 6 5.5 14.5t3 17.5t-1 17.5t-5.5 13.5
q-8 10 -17.5 17t-19.5 13q-2 1 -3 2t-3 2q-26 12 -56.5 18.5t-58 16t-47.5 27t-24 50.5q-3 19 0.5 38.5t5.5 39.5l16 32q26 31 66.5 49t85 23t87.5 -3.5t75 -29.5z" />
    <glyph glyph-name="zcaron" unicode="&#x17e;" horiz-adv-x="547" 
d="M143 619q-16 9 -22 22t-3.5 25.5t13.5 21.5t29 9q29 -8 45 -19t27.5 -25t23 -30.5t31.5 -36.5q20 24 37 52t42 47q20 7 34.5 1t20.5 -18.5t2 -28t-22 -26.5q-14 -6 -27 -18.5t-26.5 -25t-28 -22t-30.5 -9.5q-5 0 -14.5 5.5t-20 14.5t-21 19t-18.5 18q-10 2 -14.5 6.5
t-9.5 8.5t-15.5 7t-32.5 2zM432 491q35 10 56.5 7t31 -16t6.5 -34.5t-18 -49.5q-21 -33 -57.5 -69.5t-77.5 -72t-81.5 -69.5t-71.5 -62q-15 -15 -34 -37q30 -5 64.5 -11.5t73 -10t79 -3t81.5 10.5q14 -4 21.5 -12t9.5 -18q15 -5 15.5 -18.5t-13.5 -21.5q-52 -15 -102 -17.5
t-100.5 0.5t-103.5 7t-110 3q-14 -3 -27 -3t-22 4.5t-13 14t-1 26.5q1 3 4 7.5t14 17.5t33.5 36.5t62.5 65.5t100.5 105t147.5 154q-15 -2 -30 -4.5t-32 -2.5q-62 -1 -123 -2t-123 -4q-18 4 -35.5 22t-24.5 37t0 33.5t39 13.5q33 -4 77 -10t92.5 -10.5t98 -7t93.5 0.5z" />
    <glyph glyph-name="Scaron" unicode="&#x160;" horiz-adv-x="467" 
d="M103 819q-16 9 -22 22t-3.5 25.5t13.5 21.5t29 9q29 -8 45 -19t27.5 -25t23 -30.5t31.5 -36.5q20 24 37 52t42 47q20 7 34.5 1t20.5 -18.5t2 -28t-22 -26.5q-14 -6 -27 -18.5t-26.5 -25t-28 -22t-30.5 -9.5q-5 0 -14.5 5.5t-20 14.5t-21 19t-18.5 18q-10 2 -14.5 6.5
t-9.5 8.5t-15.5 7t-32.5 2zM353 361q38 -29 59 -64.5t26.5 -72t-2 -72t-26.5 -65.5t-47 -52.5t-63 -32.5q-39 -13 -83 -6t-82 29t-66 56t-35 75q-11 38 -12.5 76t11.5 63q8 10 21.5 15.5t27.5 5t25.5 -7.5t15.5 -23q0 -1 1 -3.5t2 -12.5t3 -30.5t5 -56.5q1 -6 11 -23
t27.5 -30.5t43 -16.5t58.5 18q10 7 21 18.5t16 22.5q9 19 9 35q-5 31 -13 51.5t-20.5 37t-29.5 31t-40 33.5q-5 4 -14.5 11t-25.5 19t-39.5 31t-57.5 47q-17 18 -26 32t-13 25t-5 19.5t-1 16.5q0 27 8.5 53t31.5 47t63.5 34t104.5 14q11 0 31.5 -2t43.5 -6.5t45.5 -13
t38.5 -21t21 -30t-6 -40.5q-11 -22 -25 -26.5t-28.5 -0.5t-26.5 12t-19 11q-16 7 -35 13.5t-39 10t-39.5 3.5t-36.5 -6q-30 -11 -33.5 -36t34.5 -62z" />
    <glyph glyph-name="Zcaron" unicode="&#x17d;" horiz-adv-x="580" 
d="M159 819q-16 9 -22 22t-3.5 25.5t13.5 21.5t29 9q29 -8 45 -19t27.5 -25t23 -30.5t31.5 -36.5q20 24 37 52t42 47q20 7 34.5 1t20.5 -18.5t2 -28t-22 -26.5q-14 -6 -27 -18.5t-26.5 -25t-28 -22t-30.5 -9.5q-5 0 -14.5 5.5t-20 14.5t-21 19t-18.5 18q-10 2 -14.5 6.5
t-9.5 8.5t-15.5 7t-32.5 2zM97 572q-12 1 -28 7t-21 20q-4 10 -3.5 29.5t5.5 39.5q3 15 7.5 22.5t12 11.5t18 5.5t25.5 4.5q49 7 103.5 2t109 -12t108 -9.5t100.5 9.5q11 -6 16 -13.5t3 -20.5q-78 -148 -170 -290t-198 -263l205 12q54 3 87 6t51 -2.5t24.5 -23t8.5 -56.5
l-2 -12q0 -14 -10 -27t-32 -15q-29 0 -57 2.5t-56 6t-56 5.5t-57 1q-11 -1 -41 -5t-63.5 -7.5t-62.5 -6t-38 -0.5t-17.5 5.5t-15 9.5t-10.5 15.5t-3 23.5q27 79 67.5 151t88 139.5t99 131t100.5 125.5q-12 4 -35.5 8.5t-49 8.5t-49.5 5t-39 -2q-34 -8 -62.5 -20.5
t-62.5 -21.5z" />
    <glyph glyph-name="Eth" unicode="&#xd0;" horiz-adv-x="555" 
d="M78 13q-9 7 -20.5 21t-20.5 30.5t-13 34t2 31.5q2 2 12.5 10t20.5 15q36 34 49.5 82t13 100t-12 102.5t-25.5 91.5q-2 7 -2.5 13.5t-2.5 11.5v-1q-2 -4 -3 1.5t-2 8.5q-8 6 -12 9.5t-10 10.5q-17 11 -22.5 27t1.5 30q-4 18 7 34.5t37 19.5q67 9 135.5 1.5t127.5 -34.5
t104 -73.5t65 -115.5q10 -34 14 -72.5t2.5 -77.5t-9 -76.5t-20.5 -70.5q-14 -35 -38 -63t-54 -50t-63.5 -38.5t-65.5 -27.5q-63 -21 -115 -11q-5 -2 -13 -4q-1 0 -2 -1t-3 -2q-31 3 -44 23zM152 101q52 -15 97.5 -5t81 37.5t58.5 68.5t31.5 87.5t0.5 95t-36.5 91t-78 75.5
t-124.5 48q16 -60 25 -123t7.5 -127t-16.5 -126.5t-46 -121.5zM75 569q1 -2 2 -3.5t2 -3.5q-2 5 -3 7t-1 0zM87 303q-21 2 -30.5 14.5t-9 26.5t11.5 25.5t32 12.5q29 -16 60.5 -18.5t60.5 0t53.5 5.5t40 0t20 -17t-6.5 -47q-13 -4 -26 -3.5t-26 3t-26.5 6t-26.5 4.5
q-32 3 -63.5 -1.5t-63.5 -10.5z" />
    <glyph glyph-name="oslash" unicode="&#xf8;" horiz-adv-x="444" 
d="M305 484q40 -18 63 -47.5t34.5 -66t14.5 -77.5t4 -83q1 -24 -3.5 -55.5t-17.5 -53.5q-20 -32 -45 -54t-57 -42q-30 -6 -59 -7.5t-54 0t-43.5 6t-26.5 10.5q-20 15 -33 30.5t-22 32.5t-15.5 36.5t-13.5 41.5q-11 36 -8.5 85t16.5 98t39.5 90.5t60.5 62.5q9 5 21.5 9.5
t32 5t46.5 -4.5t66 -17zM173 404q-9 -4 -16 -14t-11.5 -22t-8.5 -23t-7 -17q-4 -12 -11.5 -33t-12.5 -45.5t-4 -50t13 -48t38.5 -38.5t72.5 -22q28 -4 47.5 9.5t32 35.5t19.5 47.5t10 46t3.5 31.5t1.5 4q-2 27 -10 56.5t-26 52t-49.5 33t-81.5 -2.5zM379 567
q37 2 42.5 -18.5t-20.5 -58.5h-1q-33 -69 -72 -134.5l-78 -131t-75.5 -132.5t-64.5 -138q-2 -8 -2 -11q-6 -17 -18.5 -24.5t-25 -6t-23 11.5t-12.5 28q5 19 12 33t18 29q23 43 48 81l50 76t47 77.5t39 85.5q7 21 20 56t30.5 71t39 66t46.5 40z" />
    <glyph glyph-name="Oslash" unicode="&#xd8;" horiz-adv-x="530" 
d="M18 348q4 79 12 135.5t20.5 95.5t30 63.5t41 38.5t53.5 20.5t67 9.5q76 0 129.5 -41.5t86 -106t45 -143.5t6.5 -155.5t-29 -140.5t-62 -99q-19 -18 -49.5 -27t-64 -11.5t-66 0.5t-55.5 9q-46 13 -75.5 35.5t-47 51.5t-26 62.5t-11.5 68.5t-3 69.5t-2 64.5zM255 76
q24 3 42 17t31 33.5t22 42t16 42.5q6 18 9 54.5t2.5 81.5t-6 93t-16.5 87t-28 64.5t-42 26.5q-51 1 -85 -22t-53.5 -62t-26 -88.5t-3 -101.5t16 -101.5t31 -87.5t42 -60t48.5 -19zM415 657q37 2 42.5 -18.5t-20.5 -58.5h-1q-33 -69 -72 -134.5l-78 -131t-75.5 -132.5
t-64.5 -138q-2 -8 -2 -11q-6 -17 -18.5 -24.5t-25 -6t-23 11.5t-12.5 28q5 19 12 33t18 29q23 43 48 81l50 76t47 77.5t39 85.5q7 21 20 56t30.5 71t39 66t46.5 40z" />
    <glyph glyph-name="cent" unicode="&#xa2;" horiz-adv-x="416" 
d="M393 108q-16 -40 -53 -67.5t-81.5 -39.5t-90 -7t-76.5 30q-31 24 -49 61t-25 78.5t-5.5 84.5t9.5 80q12 66 44.5 102.5t73 52t82.5 15t73 -7.5q16 -3 34.5 -12t33.5 -22t23.5 -28.5t4.5 -33.5q-9 -19 -29 -15q-6 2 -9.5 4t-8.5 6q-1 2 -4 3.5t-5 3.5q-18 5 -35.5 12.5
t-35.5 13t-36 6.5t-36 -7q-39 -18 -58.5 -52t-25.5 -73t0 -77t18 -65q16 -15 29.5 -26t29.5 -15.5t36.5 -2.5t50.5 11q16 5 37.5 15.5t40.5 14t31.5 -4t11.5 -38.5zM157 690q3 18 14 27.5t24 10t24.5 -7.5t16.5 -26q-8 -160 -9 -317t7 -317q1 -8 4.5 -39t6.5 -67.5t3 -69.5
t-7 -44q-12 -13 -25 -16t-24.5 2t-18.5 15.5t-5 24.5q5 34 6.5 70t1.5 72t0.5 71.5t3.5 70.5q4 136 -5 270.5t-18 269.5z" />
    <glyph glyph-name="A" unicode="A" horiz-adv-x="681" 
d="M417 186q-12 20 -27 27t-34.5 6t-45 -7.5t-58.5 -13.5q-23 -22 -39.5 -52.5t-32 -60.5t-33 -56t-44.5 -39q-16 -20 -38.5 -15.5t-29.5 27.5q-13 5 -20 18t-3 32q67 64 110 140t75.5 158t60.5 166.5t64 165.5q0 3 1 5.5t2 6.5l1 -1q5 6 12 8.5t12.5 0.5t9.5 -7.5t3 -14.5
q0 -1 -1 -1q10 -8 17 -26q11 -81 34.5 -163.5t58 -161.5t79 -152t97.5 -135q17 -12 20 -27.5t-4 -28t-22 -17.5t-34 4q-18 13 -38 27.5t-43.5 37.5t-50.5 58t-59 91zM338 489q-10 -33 -17 -61t-15 -54t-17.5 -50.5t-23.5 -48.5q23 2 52.5 5.5t57.5 14.5q-10 21 -15 43t-8 46
t-5.5 50t-8.5 55z" />
    <glyph glyph-name="Euro" unicode="&#x20ac;" horiz-adv-x="555" 
d="M518 534q0 -18 -9 -29t-21.5 -13.5t-25.5 3.5t-22 22q-18 15 -40 25t-49.5 11t-61.5 -9t-76 -35q-41 -23 -60 -59.5t-20 -80t13 -89t39.5 -85t60 -69.5t73 -42t79.5 -2.5t80 48.5q1 1 5 3q22 8 33.5 -4t0.5 -44q-10 -39 -37.5 -58t-62 -25t-70.5 -3.5t-63 6.5
q-54 8 -95.5 36t-70 69t-44.5 90.5t-19.5 101.5t5 103t30.5 93q18 36 51.5 65t74 47.5t85.5 25t86.5 -1.5t76 -32t54.5 -68zM60 335q-21 2 -30.5 14.5t-9 26.5t11.5 25.5t32 12.5q34 -8 59.5 -12t48.5 -4.5t48 2.5t60 11q18 -5 26 -16.5t7.5 -24.5t-10 -24t-27.5 -14
q-35 8 -59.5 12.5t-47.5 5t-48 -3t-61 -11.5zM70 202q-21 2 -30.5 14.5t-9 26.5t11.5 25.5t32 12.5q34 -8 59.5 -12t48.5 -4.5t48 2.5t60 11q18 -5 26 -16.5t7.5 -24.5t-10 -24t-27.5 -14q-35 8 -59.5 12.5t-47.5 5t-48 -3t-61 -11.5z" />
    <glyph glyph-name="florin" unicode="&#x192;" horiz-adv-x="538" 
d="M221 340q-8 -2 -23.5 -1t-32 4t-30.5 9t-19.5 14t1 18.5t32.5 24.5l76 14q-13 61 2.5 105.5t46 70.5t71 34.5t78.5 -0.5t67 -36.5t38 -73.5q-9 -11 -20 -11.5t-22 9.5q-28 18 -52.5 25t-44 6t-33 -9.5t-18.5 -20.5q-16 -40 -15 -60.5t11 -30t26.5 -11.5t32 -3.5t26.5 -6
t11 -20.5q0 -17 -17 -25q-16 -6 -28.5 -8t-23 -5t-20.5 -11t-22 -27q-2 -107 -2 -175.5t0.5 -111.5t0 -68t-3.5 -46q-2 -30 -21 -50t-52 -26t-78 3t-99 37q-8 5 -13.5 16.5t-10.5 19.5q2 34 14.5 42t30 3.5t38.5 -16.5t41 -18t36 -1t25 34v3q0 24 -1.5 49.5t-1.5 54.5
q-1 64 -1.5 138t0.5 138z" />
    <glyph glyph-name="dagger" unicode="&#x2020;" horiz-adv-x="400" 
d="M149 690q3 18 14 27.5t24 10t24.5 -7.5t16.5 -26q-8 -160 -6 -315.5t10 -315.5l-29 -239q-16 87 -23 163t-9 146t-1.5 136t0 133t-4.5 138t-16 150zM90 413q-21 2 -30.5 14.5t-9 26.5t11.5 25.5t32 12.5q29 -16 60.5 -18.5t60.5 0t53.5 5.5t40 0t20 -17t-6.5 -47
q-13 -4 -26 -3.5t-26 3t-26.5 6t-26.5 4.5q-32 3 -63.5 -1.5t-63.5 -10.5z" />
    <glyph glyph-name="daggerdbl" unicode="&#x2021;" horiz-adv-x="484" 
d="M189 690q3 18 14 27.5t24 10t24.5 -7.5t16.5 -26q-8 -160 -9 -317t7 -317q1 -8 4.5 -39t6.5 -67.5t3 -69.5t-7 -44q-12 -13 -25 -16t-24.5 2t-18.5 15.5t-5 24.5q5 34 6.5 70t1.5 72t0.5 71.5t3.5 70.5q4 136 -5 270.5t-18 269.5zM321 457q9 -1 23.5 0t31 2.5t31.5 1.5
t25 -4q13 -5 18 -14t-0.5 -17.5t-22 -14.5t-44.5 -6q-42 -1 -78.5 -0.5t-72 1t-72 0.5t-78.5 -2q-35 -1 -50.5 8.5t-15.5 21.5t12.5 23t34.5 14q67 -5 129.5 -5.5t128.5 -8.5zM159 74q-9 1 -23.5 0t-31 -2.5t-31.5 -1.5t-25 4q-14 5 -18.5 14t1 17.5t21.5 14.5t45 6
q42 1 78.5 0.5t72 -1t72 -0.5t78.5 2q35 1 50.5 -8.5t15.5 -21.5t-12.5 -23t-34.5 -14q-67 5 -129.5 5.5t-128.5 8.5z" />
    <glyph glyph-name="sterling" unicode="&#xa3;" horiz-adv-x="482" 
d="M286 40q-39 8 -71 3.5t-58 -14t-46 -20.5t-36 -16t-27.5 0t-20.5 27q-5 13 2.5 23.5t22 20t34 18.5t38 18.5t33.5 20.5t22 25q-8 39 -11.5 88t-1 100.5t11 101.5t24.5 91.5t41 71.5t59 41t79 -1t101 -53l67 -59q6 -9 5.5 -19t-5.5 -19t-14 -14.5t-20 -5.5
q-14 -8 -31 -3.5t-28 24.5q-39 43 -69.5 57t-53 8t-38 -28t-25 -51.5t-13.5 -62t-3 -59.5q1 -25 0.5 -48.5t0 -47t4.5 -47t13 -48.5q12 -11 21.5 -23.5t20.5 -24.5t25 -21t34.5 -11t49.5 4t71 25q12 8 23.5 5t18 -12.5t5 -23t-15.5 -26.5q-13 -12 -21 -23t-17 -18.5
t-22 -11.5t-35 -4q-18 1 -36.5 7.5t-36.5 14t-36 14t-35 6.5zM137 255q-21 2 -30.5 14.5t-9 26.5t11.5 25.5t32 12.5q29 -16 63 -18.5t66 0.5t60.5 6.5t47 0.5t25.5 -16.5t-4 -46.5q-13 -4 -30.5 -4t-36.5 2t-37 5t-31 4q-32 3 -63.5 -1.5t-63.5 -10.5z" />
    <glyph glyph-name="currency" unicode="&#xa4;" 
d="M232 527q10 12 37 15.5t58.5 1.5t61 -8.5t43.5 -14.5q19 11 29.5 26t20.5 32q7 12 10.5 25.5t9.5 22t17.5 10t34.5 -9.5q13 -6 19 -17t4.5 -23t-11 -22t-27.5 -14q-10 -2 -18 -9.5t-14 -18t-11 -23t-8 -24.5q22 -23 31.5 -46t6.5 -55v-2v-7t-1 -8q-2 -20 -4 -39t-10 -38
q-7 -17 -16.5 -35t-22.5 -34q15 -31 33.5 -59.5t54.5 -46.5q5 -18 -1 -31.5t-17.5 -19.5t-25 -4t-24.5 15l-1 1q-3 12 -8 25.5t-12.5 26.5t-20 23.5t-30.5 18.5q-18 -16 -39.5 -21.5t-45 -4t-47 8t-44.5 12.5q-16 -9 -25 -20t-16 -23t-13.5 -25t-16.5 -25
q-16 -16 -33.5 -13.5t-26.5 14.5t-5.5 29t30.5 30q24 13 32 26.5t15 28.5q-28 33 -44 77.5t-17 89t14.5 84.5t51.5 65q-3 0 -9.5 8t-15.5 17.5t-20 17.5t-24 7q-8 0 -15.5 3.5t-11 11t-1.5 19t13 26.5q6 9 17 10t22.5 -3t21.5 -13t14 -21q1 -5 1.5 -8.5t4.5 -9t14 -13
t31 -19.5zM214 220q7 7 16.5 8t18.5 -2.5t16.5 -11t10.5 -16.5q19 -6 33 -12.5t26.5 -8.5t26.5 2t34 19q3 15 12 25.5t26 12.5q15 21 24 45t12 48q6 48 -12 79t-49 46t-69.5 14.5t-73 -15t-59 -42.5t-27.5 -68q0 -30 10 -61.5t24 -61.5z" />
    <glyph glyph-name="yen" unicode="&#xa5;" horiz-adv-x="510" 
d="M19 629q-3 6 -7.5 20t-2.5 25q3 13 7.5 22.5t11 13.5t14.5 0.5t18 -16.5q33 -41 55 -79.5t40.5 -73.5t39 -66.5t51.5 -57.5q86 133 132.5 201.5t60.5 77.5q7 3 13.5 5.5t12 1.5t9.5 -8.5t5 -25.5q1 -20 -12 -48t-33.5 -60t-44.5 -65.5t-45.5 -64.5t-36 -57t-15.5 -43
q-3 -39 -1 -79.5l4 -81t2 -81.5t-7 -81q-2 -10 -18 -15t-34.5 -2.5t-33.5 13t-14 31.5q5 61 7.5 136.5t10.5 168.5l-3 6q-15 26 -42.5 65t-56.5 79.5t-53.5 78t-33.5 60.5zM336 297q9 -1 23.5 0t31 2.5t31.5 1.5t25 -4q13 -5 18 -14t-0.5 -17.5t-22 -14.5t-44.5 -6
q-42 -1 -78.5 -0.5t-72 1t-72 0.5t-78.5 -2q-35 -1 -50.5 8.5t-15.5 21.5t12.5 23t34.5 14q67 -5 129.5 -5.5t128.5 -8.5zM174 134q-9 1 -23.5 0t-31 -2.5t-31.5 -1.5t-25 4q-14 5 -18.5 14t1 17.5t21.5 14.5t45 6q42 1 78.5 0.5t72 -1t72 -0.5t78.5 2q35 1 50.5 -8.5
t15.5 -21.5t-12.5 -23t-34.5 -14q-67 5 -129.5 5.5t-128.5 8.5z" />
    <glyph glyph-name="brokenbar" unicode="&#xa6;" horiz-adv-x="261" 
d="M84 173q3 18 14 27.5t24 10t24.5 -7.5t16.5 -26q-11 -34 -14 -63.5t-2 -58t3.5 -59t3.5 -67.5q0 -28 -1 -57t3 -58q-6 -7 -11.5 -13t-15.5 -11q-9 -2 -16 1t-11 19.5t-3.5 51t5.5 96.5zM78 634q3 18 14 27.5t24 10t24.5 -7.5t16.5 -26q3 -44 3.5 -71t-0.5 -50
q6 -60 11 -112t-13 -98q-9 -11 -20.5 -9.5t-17.5 14.5q-5 9 -7.5 24.5t-6 49.5t-9.5 93t-19 155z" />
    <glyph glyph-name="section" unicode="&#xa7;" 
d="M460 628q7 -22 -4.5 -34.5t-33.5 -19.5t-50.5 -10.5t-57 -7.5t-53.5 -10t-38 -18q-24 -21 -17.5 -42t28 -40t49 -34.5t44.5 -24.5q20 -11 42.5 -21.5t43.5 -23.5t39 -29.5t30 -39.5q10 -19 11.5 -42t-4 -46.5t-17 -44t-27.5 -35.5q-6 -5 -23 -10t-36.5 -9t-38 -5t-26.5 3
q-25 13 -11 35q10 10 22.5 12t27 4.5t30 8.5t32.5 24l21 36q-2 19 -16 41.5t-28 33.5q-20 15 -56.5 34.5t-76 42.5t-75 49t-55 52.5t-15.5 53t44 51.5l125 54q16 4 40.5 10t50 9.5t47.5 2.5t32 -10zM150 -144q-7 21 4.5 34t33.5 20t50.5 10.5t57 7.5t53 10t38.5 18
q24 21 17.5 42t-28 40t-49 34.5t-44.5 24.5q-20 11 -42.5 21.5t-43.5 23.5t-39 29.5t-30 39.5q-10 19 -11.5 42t3.5 46.5t16.5 44t28.5 35.5q6 4 23 9.5t36.5 9t38 5t26.5 -2.5q25 -13 11 -35q-10 -10 -22.5 -12t-27 -4.5t-30.5 -8.5t-32 -24l-21 -36q2 -19 16 -41.5
t28 -33.5q20 -15 56.5 -34.5t76 -42.5t75 -49t55 -52.5t15.5 -53t-44 -51.5l-125 -54q-16 -5 -40.5 -10.5t-50 -9t-47.5 -2.5t-32 10z" />
    <glyph glyph-name="paragraph" unicode="&#xb6;" 
d="M253 654q22 -4 41 -8.5t40 -8.5t45.5 -6.5t58 -3t78 1.5t105.5 8q18 -5 26 -16.5t7.5 -24.5t-10 -24t-27.5 -14q-23 3 -50.5 5.5t-56.5 4.5v-1l-4 -388q8 -81 9 -162.5t6 -163.5q-1 -21 -12.5 -32t-25.5 -11.5t-26.5 9t-14.5 30.5q24 93 22.5 183t-11 179.5t-19.5 179
t-3 181.5q-19 1 -36.5 1.5t-34.5 0.5q5 -26 1.5 -55t-6.5 -49q-11 -68 -17.5 -130t-8.5 -122.5t1.5 -123t12.5 -131.5l6 -36t3.5 -36t-3 -35t-15.5 -32q-5 3 -14 0.5t-18 -5.5t-17 -3t-11 8q-14 33 -17.5 87t-2 114.5t5.5 119.5t5 101q-18 6 -45 15.5t-54 24t-49.5 32.5
t-31.5 40q-21 53 -17.5 102t26.5 88.5t63.5 67t95.5 38.5z" />
    <glyph glyph-name="mu" unicode="&#xb5;" 
d="M234 -12q-24 -98 -45.5 -148.5t-38.5 -69.5t-28 -12t-13 25q7 68 15.5 110.5t17 72.5t15 56t9 63t0.5 91.5t-12 141.5q-2 20 -3 49t1 57.5t8.5 53.5t20 38t35 10.5t53.5 -28.5l-25 -376q0 -30 12 -44.5t30 -18t40 2t42.5 15.5t36 23t21.5 25q21 43 30 94.5t10 104.5
t-4.5 105t-14.5 96q2 13 10 20t17.5 7.5t18.5 -5.5t13 -18h1v-1q6 -32 14 -68.5t12.5 -75t3.5 -79t-14 -79.5l28 -245q0 -18 -8.5 -27.5t-20 -10.5t-24 7.5t-20.5 28.5q-4 24 -11 48t-12 50q-17 -17 -42 -33.5t-52.5 -29t-53 -19t-43.5 -3.5q-14 3 -29 11v-7t-1 -8z" />
    <glyph glyph-name="Thorn" unicode="&#xde;" horiz-adv-x="504" 
d="M93 625q3 18 14 27.5t24 10t24.5 -7.5t16.5 -26q0 -31 1.5 -61t3.5 -60q27 5 57.5 5t61 -6t59 -19.5t49.5 -35.5q37 -38 47.5 -85t-1.5 -89.5t-45 -75t-83 -41.5q-18 -3 -38.5 -2.5t-41.5 1t-41 -1.5t-37 -11q0 -4 -0.5 -7.5t-0.5 -7.5q5 -24 4.5 -64.5t-14.5 -78.5
q-8 -17 -30 -15l-4 1l-25 22q-6 7 -10.5 29t-7.5 52t-5.5 64.5t-4 66t-2 57t-0.5 38.5q0 35 1.5 79.5t5 89.5t9 85t13.5 67zM178 426q2 -24 -1.5 -48t-8 -47.5t-7 -47t2.5 -47.5q43 -6 81 -4.5t77 18.5q16 8 27.5 14.5t18.5 14.5t10 18.5t1 26.5q-10 32 -28 52t-43.5 31
t-57 15t-68.5 5q-1 0 -2 -0.5t-2 -0.5z" />
    <glyph glyph-name="thorn" unicode="&#xfe;" horiz-adv-x="553" 
d="M93 585q3 18 14 27.5t24 10t24.5 -7.5t16.5 -26q0 -15 0.5 -44.5t1 -61.5t1.5 -61t2 -44q27 5 60 13t67 11.5t65.5 -1t54.5 -23.5q30 -25 48.5 -61.5t25 -76.5t0.5 -80.5t-24.5 -74.5t-50.5 -57.5t-77 -29.5q-18 -3 -42.5 3t-49.5 12.5t-49 9.5t-41 -6q0 -4 -0.5 -7.5
t-0.5 -7.5q2 -12 3.5 -41.5t1 -63.5t-4 -66.5t-10.5 -51.5q-8 -17 -30 -15l-4 1l-25 22q-6 7 -10.5 35t-7.5 67t-5.5 83.5t-4 85t-2 72t-0.5 44.5q0 23 0.5 57.5t2 74.5t3.5 82t5.5 79.5t7.5 68.5t10 49zM178 296q2 -24 1.5 -48.5t-1.5 -49t-0.5 -48.5t5.5 -48
q21 -10 37.5 -19t34 -13.5t39 -3.5t52.5 10q32 16 51.5 45.5t15.5 61.5q3 76 -16 111t-51.5 42.5t-75.5 -6t-88 -33.5q-1 0 -2 -0.5t-2 -0.5z" />
    <glyph glyph-name="germandbls" unicode="&#xdf;" horiz-adv-x="504" 
d="M148 -199q-39 28 -53 67.5t-16.5 84t0.5 91t-2 90.5q-1 16 -1.5 32t-2.5 33q-3 34 -8 66.5t-7 65t0.5 65t13.5 66.5q8 21 17.5 46.5t26.5 42.5q28 28 56.5 40t55.5 10.5t51 -13.5t42.5 -32t29.5 -46t13 -54q7 -37 -8.5 -71t-47.5 -57q-1 -1 -2 -1.5t-2 -1.5q2 -2 3.5 -2
t3.5 -1q29 -18 53.5 -35.5t43.5 -37.5t32 -45.5t19 -59.5t-12.5 -67t-49 -57t-67 -34.5t-67.5 0.5q-18 10 -23.5 25t-0.5 28t19 20.5t34 1.5q13 -6 30.5 0t33.5 18.5t27 28t10 29.5q-2 28 -13.5 47.5t-30.5 36.5t-45.5 33.5t-57.5 39.5q-18 5 -26.5 23t5.5 41
q31 8 49.5 33.5t21 53.5t-13 51.5t-51.5 27.5q-11 2 -24.5 -0.5t-24.5 -4.5q-2 0 -4 -1q-24 -46 -35.5 -112.5t-14.5 -142.5l39 -341q6 -26 8 -35t-0.5 -16t-9 -20.5t-17.5 -49.5z" />
    <glyph glyph-name="eth" unicode="&#xf0;" horiz-adv-x="494" 
d="M269 514q-5 -6 -11.5 -14t-14 -15.5t-16.5 -13t-18 -6.5q-36 3 -47 19t-6 36.5t23.5 41.5t41.5 35q-14 19 -26.5 33t-20 25t-8.5 19.5t8 16.5q1 0 2 1v3q27 24 57 16t59 -38q9 17 29.5 23.5t39 3t28.5 -17t-2 -36.5l-42 -45q27 -45 49.5 -102t39 -116t25 -116.5
t5.5 -105.5q-3 -53 -29.5 -88.5t-65.5 -55t-86 -23t-92 7t-82 35.5t-56 63q-12 23 -18.5 51t-5.5 54q1 42 26 76.5t63.5 57t86 32t92.5 0.5q-1 44 -8.5 79t-19.5 64zM154 123q2 -2 12 -8.5t24.5 -13t32 -12t35 -4.5t33.5 9.5t27 29.5q16 30 15.5 57t-11 49t-29 38t-38 23.5
t-38.5 5t-30 -16.5q-17 -21 -31.5 -41t-21 -39t-2.5 -38.5t22 -38.5z" />
  </font>
</defs>
</svg>
